<?xml version="1.0" encoding="UTF-8"?>
<!DOCTYPE svg PUBLIC "-//W3C//DTD SVG 1.1//EN" "http://www.w3.org/Graphics/SVG/1.1/DTD/svg11.dtd">
<!-- Creator: CorelDRAW 2018 (64-Bit) -->
<svg xmlns="http://www.w3.org/2000/svg" xml:space="preserve" width="14.1741mm" height="15.4941mm" version="1.1" style="shape-rendering:geometricPrecision; text-rendering:geometricPrecision; image-rendering:optimizeQuality; fill-rule:evenodd; clip-rule:evenodd"
viewBox="0 0 759.12 829.81"
 xmlns:xlink="http://www.w3.org/1999/xlink">
 <defs>
  <style type="text/css">
   <![CDATA[
    .fil2 {fill:#111224;fill-opacity:0.901961}
    .fil6 {fill:#4B001D;fill-opacity:0.901961}
    .fil5 {fill:#73012B;fill-opacity:0.901961}
    .fil3 {fill:#99003A;fill-opacity:0.901961}
    .fil0 {fill:#FC6359;fill-opacity:0.901961}
    .fil4 {fill:#FEC19E;fill-opacity:0.901961}
    .fil1 {fill:#FF9A81;fill-opacity:0.901961}
    .fil7 {fill:white;fill-opacity:0.901961}
   ]]>
  </style>
 </defs>
 <g id="Layer_x0020_1">
  <metadata id="CorelCorpID_0Corel-Layer"/>
  <g id="_2071354034480">
   <path class="fil0" d="M454.76 175.29c-6.08,21.69 -16.65,38.95 -16.16,65.41 8.78,19.02 9.36,22.52 32.97,28.27 23.54,5.74 32.2,2.51 44.37,3.83l11.54 3.66c-12.98,15.01 -74.59,14.59 -45.5,50.66 4.95,6.14 2.12,-0.22 7.43,9.6 -28.77,4.02 -35.47,-10.2 -40.68,-32.76 -4.97,-21.49 -9.05,-45.17 -12.33,-65.08 -2.29,-11.03 -9.24,-31.41 -16.3,-40.55l-3.12 -2.87 0.55 7.06c13.73,19.8 20.97,67.19 27.07,96.97 8.94,43.69 38.43,56.47 67.95,25.8 4.01,-3.9 1.88,-1.08 5.17,-4.57l-9.74 2.97c1.12,-11.72 0.37,-12.25 9.42,-16.25l9.14 -1.08c0.2,0.08 0.86,0.58 1.03,0.69l2.21 3.25c5.06,-7.64 56.62,-58.02 100.2,-18.27l13.11 9.75c-8.49,-12.66 -20.27,-23.22 -39.34,-28.76 -19.65,-0.54 -32.89,5.39 -47.83,9.81 -3.4,-70.81 -71.45,-17.08 -77.5,-70.15 -1.34,-11.75 1.45,-28.97 6.91,-37.08 20.81,-63.26 76.91,-7.21 100.94,19.37l20.37 23.48c89.24,110.11 141.64,160.79 74.69,341.02 -29.24,78.71 -83.23,165.04 -176.66,169.92 -65.92,3.44 -254.19,-55.21 -325.35,-130.58 -18.48,-19.57 -13.99,-10.8 -32.09,-33.89 -14.79,-18.87 -23.51,-30.75 -36,-51.61 -10.21,-17.05 -20.74,-36.15 -28.78,-55.75 -39.09,-95.36 -47.93,-189.57 1.31,-282.44 26.38,-49.75 39.38,-53.79 68.01,-85.58l37.84 -28.02c68.48,-45.81 163.28,-52.14 231.68,-5.49 38.8,26.46 52.51,60.86 33.47,119.26zm-119.2 -175.28c-224.42,-0.21 -395.22,238 -315.76,476.23 31.91,95.68 132.85,165.82 196.57,220.17 85.03,72.53 159.22,134.16 282.08,133.4 59.37,-0.37 115.24,-17.88 142.16,-54.14 11.58,-15.61 20.61,-45.99 27.75,-66.37 24.65,-70.38 72.76,-147.69 83.67,-198.14 12,-55.52 7.86,-115.35 -5.48,-169.74 -46.73,-190.52 -214.16,-341.22 -410.98,-341.41z"/>
   <path class="fil1" d="M375.96 351.95c-7.64,-48.3 53.95,0.89 0,0zm-39.34 -6.29c-4.33,1.43 -8.03,3.47 -14.22,3.72 -1.58,0.06 -5.37,-0.21 -6.73,-0.66 -20.99,-6.83 2.61,3.4 -4.56,-3.35l21.1 -3.13c1.9,-6.06 4.3,-10.3 6.49,-15.31l-2.08 18.73zm-90.81 -81.73l16.18 -17.57c11.51,-9.63 20.05,-13.95 36.18,-13.02 1.3,0.07 5.15,0.43 6.34,0.65l29.58 14.28 1.67 73.53c-27.08,7.32 -17.15,10.68 -34.66,12.75 -20.5,2.42 -21.49,-5.98 -45.38,-6.44 -0.95,-22.19 -6.04,-9.44 -9.7,-26.29 -1.46,-6.72 -0.32,-29.7 -0.2,-37.9zm134.89 40.72l21.64 -2.2c1.38,-13.09 3.95,-10.43 6.78,-18.57 6.18,19.97 -15.75,33.37 -28.42,20.77zm-219.51 -84.39c5.27,16.88 2.54,23.94 -9.61,29.87 -2.6,20.69 -6.2,34.85 -2.32,56.72 3.79,21.36 11.47,30.92 16.76,47.77 7.45,4.7 16.53,21.75 28.34,31.59 11.42,9.52 24.78,18.42 41.63,25.46 0.02,29.73 -15.61,60.11 27.82,112.02 19.9,23.8 57.17,52.42 85.13,65.8 118.01,56.13 252.17,58.97 253.29,-99.78 -2.5,-26.57 -13.24,-39.43 -15.25,-54.94 -0.9,-13.15 11.32,3.99 -4.53,-4.2l-34.52 -7.34c9.01,20.05 8.1,60.05 -7.41,89.55 -6.01,11.43 -7.74,13.32 -8.29,29.92 -5.29,3.33 -4.44,1.53 -9.52,5.32l-19.56 14.9c-35.63,20.22 -5.91,3.96 -30.92,13.09 -20.57,7.52 1.58,5.09 -23.96,4.02 -21.52,-0.9 -17.83,5.43 -39.85,-3.89l-8.64 -3.91c-29.13,-13.65 -6.77,-14.94 -24.35,-21.79 -14.46,-5.62 3.86,5.08 -11.15,-0.77 18.71,-10.04 33.62,-29.82 42.37,-51.8 18.05,-45.3 0.88,-45.03 20.13,-77.15l2.67 6.68c0.77,2.01 1.99,5.33 2.48,6.65 0.22,0.57 0.56,1.48 0.77,2.02l3.1 8.92c10.4,-3.43 11.93,-5.93 23.45,-3.85 -6.1,-36.2 -24.8,-40.91 -37.02,-57.17 -0.58,-0.76 -2.22,-3.08 -2.75,-3.87 -3.32,-4.92 -1.02,-0.54 -4.03,-6.57 46.65,-83 2.28,-55.97 -0.06,-96.95 -0.13,-2.44 0.22,-9.38 0.21,-12.51 -0.12,-28.13 -10.94,-38.09 -12.91,-56.48 -7.6,-5.41 -7.54,-6.7 -13.72,-15.88 -4.32,-6.41 -5.37,-8.91 -10.49,-14.62 -8.73,-9.74 -17.91,-13.58 -28.5,-22.85 -60.92,-24.43 -103.63,-23.42 -153.41,27.05l-35.38 38.95z"/>
   <path class="fil2" d="M485.31 175.59c11.02,25.65 3.16,1.82 23.41,18.62l23.52 20.38c0.48,0.42 1.2,1.01 1.68,1.43l25.28 27.84c8.51,9.22 17.88,11.71 17.94,27.6 15.82,-2.55 15.95,-3.74 26.6,1.55 19.07,5.54 30.85,16.1 39.34,28.76l11.53 15.79c4.02,6.96 6.56,11.38 9.22,18.65 9.94,8.23 11.74,22.6 14.74,36.44 -0.43,8.05 5.34,30.77 6.03,42.36 1.01,17.07 -0.55,34.51 -3.69,50.69 -6.81,34.96 -18.69,51.16 -30.53,77.54 -1.73,6.64 -6.57,14.05 -9.91,19.19 -0.46,0.7 -6.14,9.16 -6.2,9.23 -6.19,7.44 -0.87,4.3 -9.42,6.5 -12.16,11.18 -20.12,19.31 -31.88,31.07 -0.29,0.72 -0.85,1.03 -1.06,2.09l-16.59 14.65c-7.01,4.48 -14.26,7.91 -22.42,12.3 -16.35,8.8 -30.61,13.34 -50.18,18.87 -90.77,25.66 -215.91,-4.36 -270.86,-63.82 -5.7,-6.17 -12.41,-9.89 -18.83,-15.82l-44.91 -52.54c-29.24,-42.55 -59.71,-93.94 -75.77,-146.84 -26.37,-86.88 -15.51,-144.17 30.88,-210.67 8.07,-11.57 2.06,-7.24 10.34,-7.94 8.77,-7.3 8.93,-7.14 16.02,-16.02 1.39,-10.02 -3.11,-0.47 2.43,-6.68l11.77 -7.4c4.6,-3.08 0.84,-1.06 7.01,-5.52 61.41,-44.39 135.31,-35.5 196.6,7.55 12.39,8.7 9.37,4.72 9.67,14.25 8.62,5 8.99,10.71 17.81,12.28 7.68,-2.06 5.48,-0.56 12.9,2.44l8.03 2.85c0.25,0.06 1.05,0.36 1.29,0.41l6.86 -0.66c16.01,0.3 7.34,10.59 26.8,4.24 0.87,14.82 -0.36,3.54 4.02,8.01 19.04,-58.4 5.32,-92.8 -33.47,-119.26 -68.39,-46.64 -163.2,-40.32 -231.68,5.49l-37.84 28.02c-28.63,31.79 -41.63,35.83 -68.01,85.58 -49.24,92.87 -40.4,187.08 -1.31,282.44 8.03,19.6 18.57,38.69 28.78,55.75 12.49,20.87 21.21,32.74 36,51.61 18.1,23.08 13.61,14.31 32.09,33.89 71.16,75.38 259.42,134.02 325.35,130.58 93.42,-4.88 147.42,-91.21 176.66,-169.92 66.95,-180.23 14.55,-230.92 -74.69,-341.02l-20.37 -23.48c-24.03,-26.58 -80.13,-82.62 -100.94,-19.37z"/>
   <path class="fil3" d="M622.47 540.84c-9.2,-19.54 1.86,-29.49 23.4,-26.41 1.54,12.77 -1.06,25.62 -13.42,28.04l-9.98 -1.63zm-457.74 -350.35c-2.78,-12.52 0.79,-17.06 12.96,-16.06 3.69,12.7 -0.47,17.91 -12.96,16.06zm-15.15 -46.97c-2.04,9.83 5.06,0.97 -4.8,11.05 -10.64,10.86 -0.26,2.62 -11.22,4.96 -8.27,0.71 -2.27,-3.63 -10.34,7.94 -46.39,66.5 -57.25,123.79 -30.88,210.67 16.06,52.9 46.52,104.3 75.77,146.84l44.91 52.54c6.42,5.93 13.13,9.65 18.83,15.82 54.95,59.46 180.09,89.49 270.86,63.82 19.57,-5.53 33.83,-10.07 50.18,-18.87 8.16,-4.39 15.41,-7.82 22.42,-12.3l16.59 -14.65c0.21,-1.07 0.77,-1.37 1.06,-2.09 2.25,-9.47 -4.32,-0.4 5.63,-10.15 18.87,-18.49 16.91,-18.89 26.25,-20.92 8.54,-2.2 3.22,0.95 9.42,-6.5 0.06,-0.07 5.74,-8.53 6.2,-9.23 3.34,-5.14 8.18,-12.55 9.91,-19.19 1.11,-10.95 11.1,-24.93 15.9,-36.69 5.9,-14.48 10.72,-27.43 11.8,-44.05l-13.73 17.88c-16.81,14.13 -30.13,-10.15 -46.03,-17.93 -2.38,4.35 -4.59,3.22 -7.69,5.06 6.36,14.65 -2.92,-3.68 -4.21,42.12 1.34,-12.59 0.98,-12.31 -4.19,-19.94 -1.12,158.75 -135.28,155.91 -253.29,99.78 -3.8,6.09 11.28,6.76 -10.4,6.6 -25.03,-0.19 10.7,0.65 -21.56,-7.92l-11.49 -4.76c-5.75,-4.48 -0.73,0.51 -2.32,1.12 -0.18,0.07 -0.96,0.51 -1.19,0.58l-18.79 -3.23c-22.99,-9.12 -43.12,-27.98 -60.21,-45.7 -26.16,-27.11 -17.23,0.22 -25.28,-27.44 -1.26,-4.35 -8.93,-12.58 -18.28,-36.21 -3.91,-9.89 -4.94,-4.32 -9.45,-18.76 -5.22,-16.7 -7.29,-52.81 -10.26,-70.06l-0.42 -5.65c0.02,-0.27 0.15,-1.16 0.17,-1.44l-0.51 -23.09 7.06 1.09c-5.3,-16.85 -12.97,-26.4 -16.76,-47.77 -3.88,-21.87 -0.28,-36.03 2.32,-56.72 -16.28,3.08 -25.13,-3.96 -20.6,-21.47 3.49,-13.48 10.06,-18.03 25.74,-17.31l4.47 8.91 35.38 -38.95c49.78,-50.47 92.49,-51.48 153.41,-27.05 1.24,-8.22 -2.49,-4.79 7.84,-6.62l5.11 -0.17c0.41,0.04 1.35,0.32 1.77,0.37l5.37 1.09c4.77,-0.24 -1.23,3.34 6.99,-3.22 -0.31,-9.53 2.72,-5.55 -9.67,-14.25 -61.28,-43.04 -135.19,-51.93 -196.6,-7.55 -6.16,4.46 -2.41,2.43 -7.01,5.52l-11.77 7.4c-5.54,6.21 -1.04,-3.34 -2.43,6.68z"/>
   <path class="fil4" d="M493.28 414.26c-1.17,13.39 0.97,26.19 -4.24,38.31 -20.91,-1.99 -3.48,-11.06 -29.8,-11.41 -11.52,-2.08 -13.05,0.41 -23.45,3.85l-3.1 -8.92c-0.2,-0.54 -0.55,-1.45 -0.77,-2.02 -0.49,-1.32 -1.71,-4.64 -2.48,-6.65l-2.67 -6.68c-19.25,32.12 -2.08,31.84 -20.13,77.15 -8.75,21.98 -23.66,41.76 -42.37,51.8 15,5.85 -3.32,-4.86 11.15,0.77 17.58,6.84 -4.79,8.14 24.35,21.79l8.64 3.91c22.02,9.32 18.32,2.99 39.85,3.89 25.54,1.07 3.38,3.5 23.96,-4.02 25.01,-9.13 -4.71,7.13 30.92,-13.09l19.56 -14.9c5.08,-3.79 4.23,-1.99 9.52,-5.32 0.55,-16.6 2.28,-18.49 8.29,-29.92 15.52,-29.5 16.42,-69.51 7.41,-89.55l34.52 7.34c15.84,8.19 3.63,-8.95 4.53,4.2 7.64,3.82 11.59,6.48 17.59,11.29 7.61,6.11 7.64,8.34 15.32,13.02 3.84,-10.54 -4.38,-14.5 19.51,-27.43l-0.71 -0.39c-0.07,-0.14 -0.52,-0.93 -0.61,-1.1 -1.43,-2.98 0.16,4.56 -2.83,-6.9l17.43 3.53c-20.54,0 -2.1,1.06 -10.14,-5.51 -5.96,-7.71 -7.78,-6.97 -13.48,-15.56 -6.4,-9.65 -4.49,-11.57 -11.9,-13.38l-8.07 -7.25c-1.56,-1.55 -4.35,-4.81 -6.01,-6.33 -11.42,-10.46 -34.41,-22.27 -48.26,-16.24 -5.63,5.6 -3.82,5.53 -8.91,11.23 -16.77,18.8 -17.76,1.85 -18.41,38.23 -14.41,0.22 -21.57,1.72 -31.29,-4.22 2.66,8.16 0.64,2.32 -2.93,6.5z"/>
   <path class="fil5" d="M348.94 589.48c-27.96,-13.38 -65.23,-42 -85.13,-65.8 -43.43,-51.91 -27.8,-82.28 -27.82,-112.02 -16.85,-7.04 -30.21,-15.94 -41.63,-25.46 -11.8,-9.84 -20.89,-26.89 -28.34,-31.59l-7.06 -1.09 0.51 23.09c-0.02,0.28 -0.16,1.17 -0.17,1.44l0.42 5.65c2.96,17.26 5.04,53.36 10.26,70.06 4.5,14.44 5.53,8.87 9.45,18.76 9.35,23.63 17.01,31.86 18.28,36.21 8.05,27.66 -0.88,0.33 25.28,27.44 17.09,17.72 37.22,36.58 60.21,45.7l18.79 3.23c0.23,-0.06 1.01,-0.51 1.19,-0.58 1.59,-0.61 -3.43,-5.61 2.32,-1.12l11.49 4.76c32.26,8.56 -3.47,7.72 21.56,7.92 21.67,0.16 6.6,-0.51 10.4,-6.6z"/>
   <path class="fil1" d="M531.87 334.69c-26.53,22.54 -26.26,8.18 -39.73,26.26 -21.93,29.44 -1.35,31.81 1.15,53.3 3.57,-4.18 5.59,1.66 2.93,-6.5 9.72,5.94 16.88,4.44 31.29,4.22 0.64,-36.38 1.63,-19.43 18.41,-38.23 5.09,-5.7 3.28,-5.63 8.91,-11.23 13.85,-6.03 36.84,5.77 48.26,16.24 1.66,1.52 4.45,4.78 6.01,6.33l8.07 7.25c6.89,-11.99 -2.83,-4.69 11.56,-5.12 20.64,-0.63 29.35,15.58 25.22,-61.81 0.75,0.64 1.54,1.65 2.01,2.16 11.73,12.98 4.01,9.61 7.88,8.65 -2.66,-7.27 -5.21,-11.69 -9.22,-18.65l-11.53 -15.79c-11.71,18.58 -15.47,40.93 -46.05,29.71 -25.85,-9.48 -43.08,-16.29 -65.16,3.21z"/>
   <path class="fil6" d="M402.69 207.61c1.97,18.38 12.79,28.34 12.91,56.48 0.01,3.13 -0.35,10.07 -0.21,12.51 2.34,40.99 46.71,13.95 0.06,96.95 3.01,6.03 0.71,1.64 4.03,6.57 0.53,0.79 2.17,3.11 2.75,3.87 12.23,16.27 30.92,20.97 37.02,57.17 26.32,0.34 8.89,9.42 29.8,11.41 5.21,-12.12 3.07,-24.92 4.24,-38.31 -2.5,-21.5 -23.08,-23.86 -1.15,-53.3 13.47,-18.08 13.2,-3.72 39.73,-26.26 -0.72,-0.59 -1.73,-1.29 -2.25,-1.63l-7.7 -4.47c-5.44,-2.39 -0.48,-0.37 -9.38,-3.3 -29.52,30.67 -59,17.89 -67.95,-25.8 -6.09,-29.78 -13.34,-77.17 -27.07,-96.97 -6.34,3.73 -5.32,1.38 -2.99,9.29l-4.69 -2.83c-10.72,-5.33 -0.54,-6.37 -7.14,-1.37z"/>
   <path class="fil4" d="M245.8 263.92c-0.12,8.19 -1.25,31.18 0.2,37.9 3.66,16.85 8.76,4.09 9.7,26.29 23.89,0.46 24.89,8.85 45.38,6.44 17.51,-2.07 7.58,-5.43 34.66,-12.75l-1.67 -73.53 -29.58 -14.28c-1.19,-0.22 -5.04,-0.58 -6.34,-0.65 -16.13,-0.93 -24.67,3.39 -36.18,13.02l-16.18 17.57z"/>
   <path class="fil5" d="M512.53 325.29c8.9,2.93 3.94,0.91 9.38,3.3l7.7 4.47c0.52,0.34 1.53,1.04 2.25,1.63 22.08,-19.51 39.31,-12.7 65.16,-3.21 30.58,11.23 34.34,-11.13 46.05,-29.71l-13.11 -9.75c-43.58,-39.74 -95.14,10.64 -100.2,18.27l-2.21 -3.25c-0.17,-0.11 -0.83,-0.61 -1.03,-0.69l-9.14 1.08c-9.05,4 -8.29,4.53 -9.42,16.25l9.74 -2.97c-3.29,3.49 -1.16,0.66 -5.17,4.57z"/>
   <path class="fil6" d="M603.73 273.01c-10.65,-5.29 -10.78,-4.1 -26.6,-1.55 -0.06,-15.88 -9.43,-18.38 -17.94,-27.6l-25.28 -27.84c-0.48,-0.42 -1.19,-1.01 -1.68,-1.43l-23.52 -20.38c-20.26,-16.8 -12.39,7.03 -23.41,-18.62 -5.47,8.1 -8.25,25.33 -6.91,37.08 6.05,53.07 74.11,-0.66 77.5,70.15 14.94,-4.42 28.18,-10.34 47.83,-9.81z"/>
   <path class="fil1" d="M642.54 421.28c8.04,6.57 -10.4,5.51 10.14,5.51l-17.43 -3.53c2.99,11.46 1.4,3.92 2.83,6.9 0.09,0.18 0.53,0.96 0.61,1.1l0.71 0.39c-23.89,12.93 -15.67,16.89 -19.51,27.43l-1.57 3.39c15.91,7.78 29.23,32.06 46.03,17.93l13.73 -17.88c-1.08,16.62 -5.9,29.57 -11.8,44.05 -4.8,11.76 -14.79,25.74 -15.9,36.69 11.85,-26.38 23.72,-42.58 30.53,-77.54 3.14,-16.18 4.7,-33.62 3.69,-50.69 -0.69,-11.59 -6.46,-34.31 -6.03,-42.36l3.05 41.61c-0.6,0.27 -1.59,0.23 -1.94,0.28 -0.36,0.05 -1.53,0.21 -1.98,0.29 -24.57,3.94 -13.21,9.33 -35.16,6.43z"/>
   <path class="fil3" d="M438.6 240.69l-2.2 -1.82c3.28,19.91 7.36,43.58 12.33,65.08 5.22,22.56 11.91,36.78 40.68,32.76 -5.31,-9.82 -2.48,-3.46 -7.43,-9.6 -29.09,-36.07 32.52,-35.65 45.5,-50.66l-11.54 -3.66c-12.17,-1.32 -20.83,1.91 -44.37,-3.83 -23.61,-5.75 -24.19,-9.24 -32.97,-28.27z"/>
   <path class="fil3" d="M617.16 392.33c7.41,1.81 5.5,3.73 11.9,13.38 5.7,8.6 7.52,7.85 13.48,15.56 21.95,2.9 10.59,-2.49 35.16,-6.43 0.45,-0.07 1.61,-0.24 1.98,-0.29 0.35,-0.05 1.34,-0.02 1.94,-0.28l-3.05 -41.61c-3,-13.84 -4.8,-28.21 -14.74,-36.44 -3.87,0.95 3.85,4.32 -7.88,-8.65 -0.47,-0.51 -1.26,-1.53 -2.01,-2.16 4.13,77.39 -4.58,61.18 -25.22,61.81 -14.39,0.43 -4.66,-6.87 -11.56,5.12z"/>
   <path class="fil6" d="M394.86 157.99l0.2 5.95c6.48,3.03 -0.05,-3.14 6.95,5.31 1.66,2 2.69,4.23 5.14,7.73 5.54,7.92 7.67,9.05 9.82,18.48l3.12 2.87c7.06,9.15 14.02,29.52 16.3,40.55l2.2 1.82c-0.48,-26.46 10.08,-43.72 16.16,-65.41 -4.38,-4.47 -3.15,6.81 -4.02,-8.01 -19.46,6.35 -10.79,-3.94 -26.8,-4.24l-6.86 0.66c-0.24,-0.05 -1.04,-0.35 -1.29,-0.41l-8.03 -2.85c-7.42,-3 -5.22,-4.49 -12.9,-2.44z"/>
   <path class="fil5" d="M349.98 154.25c10.59,9.27 19.77,13.11 28.5,22.85 5.12,5.71 6.18,8.22 10.49,14.62 6.18,9.18 6.12,10.47 13.72,15.88 6.6,-5 -3.58,-3.97 7.14,1.37l4.69 2.83c-2.32,-7.92 -3.35,-5.56 2.99,-9.29l-0.55 -7.06c-0.56,-0.55 -1.48,-2.12 -1.7,-1.61 -0.23,0.5 -1.33,-1.26 -1.63,-1.64 -11.25,-14.48 8.82,13.13 -2.75,-3.71 -2.53,-3.68 -2.72,-4.68 -4.75,-7.75 -4.76,-7.19 -7.02,-9.95 -11.08,-16.81l-11.15 -8.02c-0.41,-0.41 -4.32,-4.7 -4.4,-4.81 -3.88,-5.25 -0.99,-0.99 -2.45,-5.39 -8.23,6.56 -2.23,2.98 -6.99,3.22l-5.37 -1.09c-0.42,-0.06 -1.35,-0.33 -1.77,-0.37l-5.11 0.17c-10.32,1.83 -6.6,-1.6 -7.84,6.62z"/>
   <path class="fil7" d="M151.58 250.13c12.15,-5.93 14.88,-12.99 9.61,-29.87l-4.47 -8.91c-15.68,-0.71 -22.25,3.83 -25.74,17.31 -4.53,17.5 4.33,24.55 20.6,21.47z"/>
   <path class="fil5" d="M602.23 489.7c5.17,7.63 5.53,7.35 4.19,19.94 1.29,-45.81 10.57,-27.47 4.21,-42.12 3.1,-1.84 5.3,-0.71 7.69,-5.06l1.57 -3.39c-7.67,-4.68 -7.71,-6.91 -15.32,-13.02 -6,-4.81 -9.95,-7.47 -17.59,-11.29 2.01,15.51 12.75,28.37 15.25,54.94z"/>
   <path class="fil7" d="M622.47 540.84l9.98 1.63c12.36,-2.42 14.96,-15.27 13.42,-28.04 -21.54,-3.08 -32.59,6.88 -23.4,26.41z"/>
   <path class="fil4" d="M375.96 351.95c53.95,0.89 -7.64,-48.3 0,0z"/>
   <path class="fil7" d="M164.73 190.49c12.49,1.85 16.65,-3.36 12.96,-16.06 -12.17,-1.01 -15.73,3.54 -12.96,16.06z"/>
   <path class="fil0" d="M380.69 304.65c12.67,12.6 34.6,-0.8 28.42,-20.77 -2.83,8.14 -5.4,5.48 -6.78,18.57l-21.64 2.2z"/>
   <path class="fil0" d="M338.69 326.92c-2.19,5 -4.58,9.24 -6.49,15.31l-21.1 3.13c7.17,6.75 -16.44,-3.48 4.56,3.35 1.37,0.44 5.15,0.72 6.73,0.66 6.19,-0.25 9.89,-2.29 14.22,-3.72l2.08 -18.73z"/>
   <path class="fil0" d="M592.97 609.24c11.76,-11.76 19.71,-19.89 31.88,-31.07 -9.33,2.02 -7.38,2.43 -26.25,20.92 -9.95,9.75 -3.38,0.67 -5.63,10.15z"/>
   <path class="fil0" d="M416.97 195.46c-2.15,-9.43 -4.28,-10.56 -9.82,-18.48 -2.45,-3.5 -3.48,-5.73 -5.14,-7.73 -7.01,-8.45 -0.47,-2.28 -6.95,-5.31 4.06,6.87 6.33,9.62 11.08,16.81 2.03,3.07 2.22,4.06 4.75,7.75 11.57,16.84 -8.5,-10.77 2.75,3.71 0.29,0.38 1.4,2.14 1.63,1.64 0.22,-0.51 1.14,1.06 1.7,1.61z"/>
   <path class="fil0" d="M395.06 163.94l-0.2 -5.95c-8.82,-1.56 -9.18,-7.27 -17.81,-12.28 1.47,4.4 -1.43,0.14 2.45,5.39 0.08,0.11 4,4.4 4.4,4.81l11.15 8.02z"/>
   <path class="fil0" d="M133.56 159.53c10.96,-2.35 0.58,5.9 11.22,-4.96 9.86,-10.08 2.76,-1.22 4.8,-11.05 -7.09,8.87 -7.25,8.72 -16.02,16.02z"/>
  </g>
 </g>
</svg>
