<?xml version="1.0" encoding="UTF-8"?>
<!DOCTYPE svg PUBLIC "-//W3C//DTD SVG 1.1//EN" "http://www.w3.org/Graphics/SVG/1.1/DTD/svg11.dtd">
<!-- Creator: CorelDRAW 2018 (64-Bit) -->
<svg xmlns="http://www.w3.org/2000/svg" xml:space="preserve" width="15.4781mm" height="12.5609mm" version="1.1" style="shape-rendering:geometricPrecision; text-rendering:geometricPrecision; image-rendering:optimizeQuality; fill-rule:evenodd; clip-rule:evenodd"
viewBox="0 0 426.91 346.45"
 xmlns:xlink="http://www.w3.org/1999/xlink">
 <defs>
  <style type="text/css">
   <![CDATA[
    .fil0 {fill:#1A1A1A}
   ]]>
  </style>
 </defs>
 <g id="Layer_x0020_1">
  <metadata id="CorelCorpID_0Corel-Layer"/>
  <g id="_2071340779312">
   <path class="fil0" d="M397.15 193.77l-0.04 94.04c-0.9,13.01 -9.52,22.87 -19.86,26.93 -8.57,3.36 -33.56,2.03 -44.55,2.03 -62.65,0 -125.31,-0 -187.96,0 -14.65,0 -84,1.21 -92.97,-1.25 -10.94,-3 -20.08,-12.99 -21.95,-24.94 -1.37,-8.71 -0.41,-125.12 -0.41,-139.78 0,-10.53 -1.22,-36.84 1.64,-45.08 3.49,-10.04 13.53,-19.99 25.76,-20.86 3.65,-2.51 24.19,-1.05 32.32,-1.02 3.7,0.01 13.91,-0 16.96,-0.21l3.49 0.18c7.39,-0.29 8.47,0.12 15.42,-0.08 -0.08,-24.8 8.31,-51.83 37.6,-53.66 16.96,-1.06 37.41,-0.07 54.75,-0.07 13.83,0 42.57,-1.38 53.42,1.26 27.82,6.77 29.68,29.95 29.82,53.17l69.7 0.53c12.91,0.97 24,12.7 26.32,24.38 1.76,8.86 0.93,39.76 0.54,50.21l0.01 2.15 -0.01 29.93 0.02 2.14zm-23.87 -137.69c-3.91,-3.27 -37.07,0.99 -45.33,-1.69l0.04 -0.99c-0.87,-3.6 -0.33,-3.17 -2.06,-5.02 0.31,-7.86 -11.53,-22.31 -15.32,-26.34 -26.03,-27.71 -61.84,-21.43 -102.13,-21.43 -24.9,0 -54.71,-3.05 -74.54,7.87 -18.18,10.02 -28.87,22.75 -35.75,46.55 -19.41,2.21 -39.09,-2.99 -57.69,3.6 -14.88,5.27 -26.52,15.88 -32.74,27.77 -9.52,18.2 -7.58,30.73 -7.58,53.1l0 121.81c0,21.37 -1.91,36.22 7.36,53.32 6.39,11.78 17.96,22.54 32.56,27.95 14.53,5.38 39.92,3.57 57.05,3.57 80.95,0 161.87,0 242.82,0 20.16,0 38.24,1.79 54.38,-7.06 37.39,-20.51 32.11,-54.58 32.11,-89.07 0,-20.2 -0.22,-40.53 0.02,-60.71l0.06 -1.13 -0.02 -23.05 -0.02 -1.11c-0.47,-24.11 3.51,-55.18 -6.27,-74.94 -4.95,-9.99 -10.63,-16.3 -18.27,-22.05 -5.81,-4.38 -19.04,-11.34 -28.68,-10.94z"/>
   <path class="fil0" d="M144.18 208.07c-5.2,-39.91 26.52,-73.11 61.85,-76.58 41.06,-4.03 72.33,25.84 76.48,62.22 4.57,40.16 -26.89,72.75 -62.27,76.07 -41.52,3.9 -71.4,-25.97 -76.06,-61.71zm-14.92 43.56c1.63,4.88 4.77,8.2 7.6,11.89 1.98,2.59 6.65,7.87 10.3,9.87 0.69,2.45 9.33,8.19 12.43,10.17 4.97,3.19 9.48,5.62 15.28,8.12 24.88,10.69 53.44,10.19 78.02,-0.49 10.01,-4.35 22.44,-12.51 28.25,-18.55 14.39,-14.98 28.14,-33.96 30.62,-62.94 2.58,-30.1 -8.53,-55.24 -22.28,-72.16 -4.65,-5.73 -11.56,-12.34 -17.92,-16.75l-3.32 -2.28c-1.44,-1.03 -2.21,-1.52 -3.97,-2.53 -61.23,-35.32 -131.72,0.03 -146.56,59.47 -3.38,13.54 -4.39,28.06 -1.63,42.67 1.51,8.01 8.64,31.66 13.2,33.5z"/>
  </g>
 </g>
</svg>
