<?xml version="1.0" encoding="UTF-8"?>
<!DOCTYPE svg PUBLIC "-//W3C//DTD SVG 1.1//EN" "http://www.w3.org/Graphics/SVG/1.1/DTD/svg11.dtd">
<!-- Creator: CorelDRAW 2018 (64-Bit) -->
<svg xmlns="http://www.w3.org/2000/svg" xml:space="preserve" width="21.6744mm" height="14.6671mm" version="1.1" style="shape-rendering:geometricPrecision; text-rendering:geometricPrecision; image-rendering:optimizeQuality; fill-rule:evenodd; clip-rule:evenodd"
viewBox="0 0 968.13 655.14"
 xmlns:xlink="http://www.w3.org/1999/xlink">
 <defs>
  <style type="text/css">
   <!-- <![CDATA[
    .fil0 {fill:#333333}
   ]]> -->
  </style>
 </defs>
 <g id="Layer_x0020_1">
  <metadata id="CorelCorpID_0Corel-Layer"/>
  <path className="fil0" d="M39.2 611.62c3.58,-32.21 31.51,-79.97 18.27,-96.97 -23.34,-29.98 -28.16,-48.9 -28.17,-95.96 -0.02,-92.29 -11.05,-153.91 51.25,-198.28 31.79,-22.65 57.65,-22.24 103.34,-22.24l247.2 0c44.07,0 68.88,-2.22 103.15,20.64 20.76,13.84 43.14,39.27 50.66,75.04 6.02,28.64 2.75,88.82 2.76,121.26 0,44.2 -4.15,70.27 -27.33,98.8 -16,19.69 -42.73,39.58 -80.38,43.73 -26.94,2.97 -255.95,0.83 -310.39,0.84 -31.07,0.01 -27.01,-2.19 -50.36,10.48 -27.77,15.07 -54.41,30.15 -80,42.66zm589.46 -334.58c-11.31,4.17 -22.83,27.43 15.58,27.8 28.91,0.28 179.66,1.67 187.18,-1.39 7,-2.85 21.72,-27.72 -16.96,-27.49 -29.1,0.18 -178.82,-1.49 -185.81,1.09zm-13.02 -70.32c-8.69,2.71 -14.68,11.89 -7.5,22.25 4.77,6.87 16.9,5.72 27.15,5.68 30.39,-0.12 188.7,1.67 196.06,-1.38 6.93,-2.88 11.36,-13.05 5.51,-21.43 -5.25,-7.52 -15.78,-6.18 -26.02,-6.14 -31.63,0.15 -186.28,-1.76 -195.21,1.03zm-96.78 -52.34l302.73 0c24.89,0 24.31,-28.74 0,-28.74l-302.73 0c-26.16,0 -26.34,28.74 0,28.74zm-380.62 137.66c-13.36,4.69 -13.02,24.39 1.49,27.36l144.48 0.46c27.66,0.02 178.37,3.35 192.59,-0.76 13.43,-3.88 14.19,-24.39 -1.2,-27.56l-337.36 0.5zm-9.53 85.45c1.68,15.86 21.7,12.47 35.47,12.46l290.19 0c15.53,0.04 33.5,2.15 32.15,-15.86 -1.25,-16.6 -19.67,-13.05 -35.73,-13.04l-290.19 -0.02c-14.91,-0.04 -33.83,-1.83 -31.89,16.46zm1.02 73.44c4.47,13.23 26.82,8.99 39.83,8.99l290.2 0.02c14.53,0.08 31.66,-0.9 26.49,-19.14 -3.79,-13.37 -23.94,-9.79 -39.04,-9.79l-290.2 -0.01c-13.57,-0.07 -34.16,-0.4 -27.29,19.93zm251.51 -281.73c-6.82,-45.8 15.85,-88.19 38.34,-107.73 34.15,-29.66 57.02,-31.93 113.62,-31.93 48.96,0 97.92,0 146.88,0 46.42,0 99.57,-2.4 145.16,0.24 43.75,2.54 76.2,27.92 93.23,53.78 25.77,39.12 20.34,74.09 20.34,125.55 0,52.05 5.37,86.81 -19.81,126.07 -15.41,24.03 -17.02,11.44 -5.28,52.09 3.43,11.89 14.78,46.4 14.89,55.85 -19.98,-9.53 -40.86,-21.8 -60.01,-32.07 -41.39,-22.2 -30.55,-21.16 -70.3,-21.16 -27.83,-0 -166.6,1.72 -181.79,-0.63 -2.18,-38.26 3.27,-73.25 -5.28,-109.6 -6.6,-28.05 -27.69,-57.36 -42.49,-70.26 -58.48,-50.99 -100.08,-38.39 -187.5,-40.18zm235.29 250.31c22.54,-3.9 81.93,-0.73 108.33,-0.73 19.87,0 91.68,-3.55 105.04,4.11 22.48,12.88 47.07,25.81 71.02,38.3 16.28,8.49 45.73,27.9 56.32,25.34 7.36,-1.77 10.95,-8.59 9.81,-17.44l-24.27 -85.44c-8.14,-28.23 -8.56,-16.98 4.15,-38.51 6.37,-10.79 12.17,-24.48 15.7,-37.93 7.84,-29.86 5,-72.73 5,-105.26 0,-37.33 2.66,-67.71 -8.55,-101.58 -16.06,-48.52 -62.74,-90.21 -120.12,-98.21 -27.34,-3.81 -277.62,-1.36 -327.25,-1.43 -34.63,-0.04 -61.36,5.59 -87.98,21.86 -22.22,13.57 -40.46,32.26 -53.52,55.86 -20.3,36.66 -14.71,50.11 -18.8,90.42 -49.55,5.64 -162.45,-4.57 -217.42,1.28 -60.33,6.43 -104.61,47.32 -123.5,94.99 -12.56,31.73 -9.91,63.89 -9.91,99.84 0,31.3 -2.76,77.56 3.75,105.94 13.93,60.73 33.43,39.36 22.32,77.19 -8.13,27.72 -17.17,56.78 -24.45,84.92 -5.96,23.05 10.05,26.61 26.49,17.49l106.06 -56.93c9.56,-5.12 9.21,-6.35 22.2,-6.29l299.23 0.07c62.11,-0.09 111.9,-23.48 141.57,-77.27 17.97,-32.58 16.63,-48.91 18.8,-90.55z"/>
 </g>
</svg>
