<svg width="42" height="17" viewBox="0 0 42 17" fill="none" xmlns="http://www.w3.org/2000/svg">
<rect width="42" height="17" rx="8.5" fill="#E44672"/>
<path d="M13.96 5.60156V12H12.8569V5.60156H13.96ZM16.5703 8.40088V9.27539H13.6787V8.40088H16.5703ZM16.9351 5.60156V6.48047H13.6787V5.60156H16.9351ZM18.6577 8.15039V12H17.5986V7.24512H18.6094L18.6577 8.15039ZM20.1123 7.21436L20.1035 8.19873C20.0391 8.18701 19.9688 8.17822 19.8926 8.17236C19.8193 8.1665 19.7461 8.16357 19.6729 8.16357C19.4912 8.16357 19.3315 8.18994 19.1938 8.24268C19.0562 8.29248 18.9404 8.36572 18.8467 8.4624C18.7559 8.55615 18.6855 8.67041 18.6357 8.80518C18.5859 8.93994 18.5566 9.09082 18.5479 9.25781L18.3062 9.27539C18.3062 8.97656 18.3354 8.69971 18.394 8.44482C18.4526 8.18994 18.5405 7.96582 18.6577 7.77246C18.7778 7.5791 18.9272 7.42822 19.106 7.31982C19.2876 7.21143 19.4971 7.15723 19.7344 7.15723C19.7988 7.15723 19.8677 7.16309 19.9409 7.1748C20.0171 7.18652 20.0742 7.19971 20.1123 7.21436ZM22.7842 12.0879C22.4326 12.0879 22.1147 12.0308 21.8306 11.9165C21.5493 11.7993 21.3091 11.6367 21.1099 11.4287C20.9136 11.2207 20.7627 10.9761 20.6572 10.6948C20.5518 10.4136 20.499 10.1104 20.499 9.78516V9.60938C20.499 9.2373 20.5532 8.90039 20.6616 8.59863C20.77 8.29688 20.9209 8.03906 21.1143 7.8252C21.3076 7.6084 21.5361 7.44287 21.7998 7.32861C22.0635 7.21436 22.3491 7.15723 22.6567 7.15723C22.9966 7.15723 23.2939 7.21436 23.5488 7.32861C23.8037 7.44287 24.0146 7.604 24.1816 7.81201C24.3516 8.01709 24.4775 8.26172 24.5596 8.5459C24.6445 8.83008 24.687 9.14355 24.687 9.48633V9.93896H21.0132V9.17871H23.6411V9.09521C23.6353 8.90479 23.5972 8.72607 23.5269 8.55908C23.4595 8.39209 23.3555 8.25732 23.2148 8.15479C23.0742 8.05225 22.8867 8.00098 22.6523 8.00098C22.4766 8.00098 22.3198 8.03906 22.1821 8.11523C22.0474 8.18848 21.9346 8.29541 21.8438 8.43604C21.7529 8.57666 21.6826 8.74658 21.6328 8.9458C21.5859 9.14209 21.5625 9.36328 21.5625 9.60938V9.78516C21.5625 9.99316 21.5903 10.1865 21.646 10.3652C21.7046 10.541 21.7896 10.6948 21.9009 10.8267C22.0122 10.9585 22.147 11.0625 22.3052 11.1387C22.4634 11.2119 22.6436 11.2485 22.8457 11.2485C23.1006 11.2485 23.3276 11.1973 23.5269 11.0947C23.7261 10.9922 23.8989 10.8472 24.0454 10.6597L24.6035 11.2002C24.501 11.3496 24.3677 11.4932 24.2036 11.6309C24.0396 11.7656 23.8389 11.8755 23.6016 11.9604C23.3672 12.0454 23.0947 12.0879 22.7842 12.0879ZM27.6094 12.0879C27.2578 12.0879 26.9399 12.0308 26.6558 11.9165C26.3745 11.7993 26.1343 11.6367 25.9351 11.4287C25.7388 11.2207 25.5879 10.9761 25.4824 10.6948C25.377 10.4136 25.3242 10.1104 25.3242 9.78516V9.60938C25.3242 9.2373 25.3784 8.90039 25.4868 8.59863C25.5952 8.29688 25.7461 8.03906 25.9395 7.8252C26.1328 7.6084 26.3613 7.44287 26.625 7.32861C26.8887 7.21436 27.1743 7.15723 27.4819 7.15723C27.8218 7.15723 28.1191 7.21436 28.374 7.32861C28.6289 7.44287 28.8398 7.604 29.0068 7.81201C29.1768 8.01709 29.3027 8.26172 29.3848 8.5459C29.4697 8.83008 29.5122 9.14355 29.5122 9.48633V9.93896H25.8384V9.17871H28.4663V9.09521C28.4604 8.90479 28.4224 8.72607 28.3521 8.55908C28.2847 8.39209 28.1807 8.25732 28.04 8.15479C27.8994 8.05225 27.7119 8.00098 27.4775 8.00098C27.3018 8.00098 27.145 8.03906 27.0073 8.11523C26.8726 8.18848 26.7598 8.29541 26.6689 8.43604C26.5781 8.57666 26.5078 8.74658 26.458 8.9458C26.4111 9.14209 26.3877 9.36328 26.3877 9.60938V9.78516C26.3877 9.99316 26.4155 10.1865 26.4712 10.3652C26.5298 10.541 26.6147 10.6948 26.7261 10.8267C26.8374 10.9585 26.9722 11.0625 27.1304 11.1387C27.2886 11.2119 27.4688 11.2485 27.6709 11.2485C27.9258 11.2485 28.1528 11.1973 28.3521 11.0947C28.5513 10.9922 28.7241 10.8472 28.8706 10.6597L29.4287 11.2002C29.3262 11.3496 29.1929 11.4932 29.0288 11.6309C28.8647 11.7656 28.6641 11.8755 28.4268 11.9604C28.1924 12.0454 27.9199 12.0879 27.6094 12.0879Z" fill="white"/>
</svg>
