<?xml version="1.0" encoding="UTF-8"?>
<!DOCTYPE svg PUBLIC "-//W3C//DTD SVG 1.1//EN" "http://www.w3.org/Graphics/SVG/1.1/DTD/svg11.dtd">
<!-- Creator: CorelDRAW 2018 (64-Bit) -->
<svg xmlns="http://www.w3.org/2000/svg" xml:space="preserve" width="12.3435mm" height="21.6742mm" version="1.1" style="shape-rendering:geometricPrecision; text-rendering:geometricPrecision; image-rendering:optimizeQuality; fill-rule:evenodd; clip-rule:evenodd"
viewBox="0 0 187.02 328.38"
 xmlns:xlink="http://www.w3.org/1999/xlink">
 <defs>
  <style type="text/css">
   <!-- <![CDATA[
    .fil0 {fill:#333333}
   ]]> -->
  </style>
 </defs>
 <g id="Layer_x0020_1">
  <metadata id="CorelCorpID_0Corel-Layer"/>
  <g id="_1500506539808">
   <path className="fil0" d="M125.3 314.18c-2.6,6.71 -12.62,13.1 -23.16,14.09 -10.44,0.98 -22,-4.65 -29.58,-8.53 -17.28,-8.85 -31.25,-17.13 -47.35,-26.81 -23.82,-14.31 -25.54,-15.36 -25.17,-49.81 0.12,-11.82 3.18,-37.83 5.93,-50.06 2.13,-9.46 17.89,-49.25 28.98,-52.01 1.92,-2.24 14.63,-6.5 18.34,-8.31 -2.15,-18.47 -10.32,-35.68 -11.1,-56.17 -0.66,-17.68 6.3,-41.61 14.7,-53.06 24.52,-33.38 87.31,-30.38 82.68,3.78l-1.92 -6.41c-3.07,-12.99 -19.99,-20.88 -36.7,-18.57 -9.16,1.26 -16.74,4.47 -24.03,8.08 -9.55,4.73 -13.23,7.58 -18.37,14.76 -8.45,11.79 -14.99,33.2 -14.39,51.41 0.27,8.37 8,49.28 10.87,54.72 12.84,-5.93 20.47,-23.98 20.68,-43.82 -1.3,5.02 2.42,23.28 -11.15,38.75 -3.55,4.04 -6.66,4.6 -9.45,7.9l1.55 9.82 -0.96 2.35c0.29,-4.18 -1,-7.24 -1.6,-11.52 -8.23,1.68 -20.86,7.06 -26.24,14.91 -5.2,7.61 -16.5,34.22 -18.69,44.87 -2.52,12.25 -5.84,37.37 -5.99,49.05 -0.39,31.8 1.1,33.95 24.12,47.24 15.76,9.1 29.82,18.39 46.49,26.79 17.54,8.83 34.71,13.98 49.67,-1.74l1.8 -1.75 0.06 0.06zm-21.22 -241.99c-5.57,2.35 -9.11,-2.53 -11.67,-6.04 2.26,0.99 3.22,2.02 5.64,3.12 2.85,1.31 4.27,0.69 6.04,2.92zm11.93 28.63c-3.59,10.95 -10.1,8.02 -12.21,3.03 3.02,1.11 4.7,2.52 7.69,1.4 -8.22,-3.29 -4.89,1.01 -10.74,-6.54 11.24,6.6 6.93,3.37 15.25,2.11zm-33.94 -40.8c4.9,-7.76 18.38,-9.95 29.41,-13.38 5.28,-1.63 10.27,-4.1 14.04,-6.86 4.82,-3.52 5.81,-8.28 7.36,-10.94 1.52,-2.63 0.23,-0.81 1.83,-2.15 0.52,11.5 -11.47,18.55 -21.5,21.7 -14.74,4.63 -17.6,2.75 -31.15,11.62zm66.94 18.62c-5.4,2.55 -10.36,-3.21 -9.95,-9.79 0.75,-11.75 17.15,-17.9 13.73,-31.84 -2.16,-8.78 -9.42,-8.56 -12.46,-11.95 6.12,-0.58 12.19,4.37 14.08,8.8 2.68,6.29 0.52,13.59 -2.78,18.08 -3.02,4.11 -7.41,8.19 -9.72,12.92 -3.44,7.01 -1.11,14.26 7.11,13.78zm-50.37 38.01c8.13,1.98 12.42,1.77 19.39,-5.87 4.35,-4.77 7.8,-6.96 11.63,-16.3 2.84,-6.93 1.25,-9.08 -0.21,-15.83 -3.02,-1.09 -2.85,-0.14 -5.61,-2.1 0.18,-0.15 0.49,-0.56 0.6,-0.36 0.11,0.19 0.47,-0.27 0.63,-0.31 0.16,-0.04 0.47,-0.16 0.69,-0.21l3.73 -0.44c1.42,-4.37 3.88,-7.46 4.48,-11.94 0.75,-5.59 -0.71,-10.03 -1.38,-15.04 6.75,3.41 3.58,20.21 0.11,24.58 0.69,3.01 -1.23,0.26 2.29,2.72 0.18,0.13 0.54,0.23 0.78,0.38l-4.02 1.39c1.43,11.55 4.58,14.04 -7.22,29.5 -3.6,4.72 -4.89,6.26 -10.66,9.47 -5.8,3.23 -10.32,4.34 -15.24,0.37l-3.85 -1.42c1.46,15.74 2.72,24.05 13.82,33.28 13.17,10.93 35.3,23.74 35.78,43.13 0.18,7.16 -3.73,16.54 -6.16,21.83 2.48,2.25 15.64,6.47 25.86,13.88 23.06,16.71 29.85,47.44 15.23,72.07 -1.68,2.83 -6.84,9.91 -9.08,11.68 22.5,-26.56 20.23,-63.33 -7.55,-82.32 -6.92,-4.72 -18.28,-11.26 -27.63,-13.41 2.02,-6.49 4.57,-10.38 5.35,-14.92 4.09,-23.94 -8.31,-30.67 -33.06,-50.62 -13.43,-12.74 -12.66,-12.89 -14.35,-33.64l-4.61 20.29c-0.99,-10.08 0.81,-14.76 3.23,-23.69 3.47,0.55 5.07,2.23 7.04,3.85z"/>
   <path className="fil0" d="M132.76 199.56c1,14.25 -8.08,16.65 -10.15,23.12 72.66,6.41 70.72,95.42 9.34,88.45 -37.9,-4.31 -63.65,-29 -96.38,-35.14 17.3,-23.53 7.73,-111.42 55.34,-120.25 19.37,-3.59 42.49,22.33 41.84,43.82z"/>
  </g>
 </g>
</svg>
