<?xml version="1.0" encoding="UTF-8"?>
<!DOCTYPE svg PUBLIC "-//W3C//DTD SVG 1.1//EN" "http://www.w3.org/Graphics/SVG/1.1/DTD/svg11.dtd">
<!-- Creator: CorelDRAW 2018 (64-Bit) -->
<svg xmlns="http://www.w3.org/2000/svg" xml:space="preserve" width="21.6748mm" height="11.876mm" version="1.1" style="shape-rendering:geometricPrecision; text-rendering:geometricPrecision; image-rendering:optimizeQuality; fill-rule:evenodd; clip-rule:evenodd"
viewBox="0 0 773.69 423.92"
 xmlns:xlink="http://www.w3.org/1999/xlink">
 <defs>
  <style type="text/css">
   <!-- <![CDATA[
    .fil0 {fill:#333333}
   ]]> -->
  </style>
 </defs>
 <g id="Layer_x0020_1">
  <metadata id="CorelCorpID_0Corel-Layer"/>
  <g id="_1500506838800">
   <path className="fil0" d="M389.29 375.52c5.68,-4.54 16.97,-17.03 23.71,-24.24l27.07 -22.35c41.57,-31.19 90.56,-51.5 144.86,-56.64 38.13,-3.62 57.33,1.73 91.3,6.25l-25.35 -269.38c-96.89,-19.21 -201.37,9.81 -245.89,63.38 -21.29,25.62 -16.28,22.11 -16.32,62.58 -0.07,64.43 -2.83,187.87 0.62,240.4z"/>
   <path className="fil0" d="M123.01 9.88l-25.74 268.74c60.36,-13.81 118.93,-8.26 171.99,13.34 74.3,30.23 90.85,66.26 115.06,83.51 2.31,-17.18 0.55,-202.02 0.65,-236.4 0.1,-36.38 5.03,-55.08 -35.66,-85.29 -26.19,-19.44 -44.98,-30.14 -80.57,-39.85 -31.84,-8.68 -115.18,-15.58 -145.73,-4.04z"/>
   <path className="fil0" d="M17.85 393.29c1.05,-15.96 1.65,-45.12 7.54,-57.1l-2.64 38.38c11.25,-2.6 23.67,-8.53 36.24,-11.76 12.61,-3.24 26.48,-6.03 39.58,-7.73 64.48,-8.35 208.49,1.29 254.63,20.86 -27.17,-0.02 -57.29,-4.23 -85.13,-5.15 -30.63,-1.01 -60.28,-1.72 -90.97,-0.5 -77.03,3.07 -88.09,6.1 -159.25,22.99zm402.38 -17.26c26.32,-11.79 130.08,-22.55 165.94,-24.14 29.82,-1.32 59.35,-0.59 88.42,3.09 43.77,5.54 47.04,12.25 76.72,19.52l4.67 19.2c-57.04,-15.05 -96.4,-20.95 -159.95,-23.46 -76.48,-3.01 -113.94,5.05 -175.8,5.78zm-30.94 -0.51c-3.45,-52.53 -0.7,-175.97 -0.62,-240.4 0.05,-40.47 -4.96,-36.97 16.32,-62.58 44.52,-53.57 148.99,-82.59 245.89,-63.38l25.35 269.38c-33.98,-4.51 -53.17,-9.86 -91.3,-6.25 -54.3,5.15 -103.29,25.45 -144.86,56.64l-27.07 22.35c-6.74,7.2 -18.02,19.69 -23.71,24.24zm-266.28 -365.63c30.55,-11.54 113.9,-4.64 145.73,4.04 35.58,9.7 54.38,20.4 80.57,39.85 40.69,30.21 35.76,48.91 35.66,85.29 -0.1,34.39 1.66,219.22 -0.65,236.4 -24.22,-17.25 -40.77,-53.28 -115.06,-83.51 -53.06,-21.59 -111.63,-27.15 -171.99,-13.34l25.74 -268.74zm455.15 338.67c-28.14,1.47 -56.26,4.65 -83.79,8.84 -25.51,3.89 -55.83,12.41 -78.86,14.66 21.95,-14.96 109.41,-34.42 143.35,-38.86 62.22,-8.14 107.13,-4.17 165.79,7.07 2.39,-15.05 -18.24,-207.7 -20.58,-243.62l19.86 7.46 23.44 264.88c-70.92,-18.24 -87.06,-24.73 -169.22,-20.44zm-508.17 -251.12c-2.51,39.49 -23.26,223.4 -20.99,242.75 27.69,-4.2 50.34,-9.92 80.62,-10.97 65.24,-2.26 181.57,14.7 229.28,42.89 -22.32,-1.83 -55,-10.98 -80.04,-14.78 -73.28,-11.13 -187.99,-17.91 -251.25,11.95 -1.77,-10.63 18.95,-238.52 22.14,-265.17l20.24 -6.66zm484.11 232.74c-85.8,12.25 -99.24,28.46 -143.51,38.24 8.54,-9.05 46.69,-27.92 61.83,-34.86 47.08,-21.6 101.67,-37.13 155.24,-35.08 49.66,1.9 60.4,12.73 81.06,15.01l-22.75 -246.62 11.86 5.94 23.87 262.76c-62.7,-9.33 -102.41,-14.71 -167.61,-5.39zm-466.03 -263.02c-2.25,33.08 -25.46,233.31 -21.12,246.83 55.76,-18.54 106.25,-21.2 165.78,-5.32 38.85,10.36 106.93,38.52 130.41,59.76l-68.62 -22.79c-86.01,-23.76 -154.95,-25.72 -242.5,-9.9l24.32 -263.71 11.73 -4.88zm28.6 -30.59l-23.06 246.82c59.87,-9.87 99.61,-15.18 162.85,7.54 24.06,8.64 42.44,18.9 61.41,31.4 10.64,7.01 44.19,31.52 49.58,42.6 -12.96,-5.91 -37.18,-21.98 -62.16,-33.86 -21.39,-10.17 -45.5,-18.77 -69.58,-25.23 -73.25,-19.64 -103.11,-11 -166.46,3.03l25.66 -265.93 21.76 -6.37zm400.27 254.64c88.24,-31.74 137.12,-8.38 163.71,-8.66l-23.03 -245.98c3.82,0.72 8.53,1.88 12.05,3.12 6.18,2.16 5.41,1.32 9.07,5.34 3.91,6.69 23.79,235.96 25.8,264.01 -30.26,-6.86 -46.85,-14.1 -82.81,-14.3 -29.81,-0.16 -59.01,4.08 -85.72,11.46 -70.66,19.52 -81.67,35.35 -131.53,60.24 15.57,-25.18 77.96,-62.83 112.45,-75.23zm-516.93 132.7c94.74,-10.61 239.74,-34.13 333.22,-29.27 13.69,17.67 24.74,23.93 55.33,23.93 28.31,0.01 41.45,-5.85 55.33,-23.97 110.1,-2.34 223.61,17.65 329.81,29.31l-25.36 -318.56 -17.93 1.34c-0.38,-0.41 -0.81,-1.01 -1.08,-1.3l-25.92 -13.16 -2.22 -22.53 -15.93 -7.2 -2.48 -21.89 -26.15 -9.59c-2.63,-26.68 1.85,-25.57 -23.22,-28.08 -86.46,-8.65 -163.94,1.8 -227.01,63.08 -12.37,12.03 -14.21,19.28 -19.81,23.23 -7.98,-9.65 -12.84,-17.18 -20.07,-24.97 -56.33,-60.71 -167.25,-73.44 -246.5,-58.7l-2.81 26.38 -26.15 9.12c-4.09,24.85 3.14,18.63 -18.29,29.02l-2.84 22.95c-7.53,2.08 -15.8,4.47 -21.31,8.55 -5.03,3.71 -3.23,4.26 -9.71,4.79 -2.75,0.22 -10.38,-0.69 -14.29,-0.79l-24.61 318.32z"/>
  </g>
 </g>
</svg>
