<?xml version="1.0" encoding="UTF-8"?>
<!DOCTYPE svg PUBLIC "-//W3C//DTD SVG 1.1//EN" "http://www.w3.org/Graphics/SVG/1.1/DTD/svg11.dtd">
<!-- Creator: CorelDRAW 2018 (64-Bit) -->
<svg xmlns="http://www.w3.org/2000/svg" xml:space="preserve" width="21.6747mm" height="19.9943mm" version="1.1" style="shape-rendering:geometricPrecision; text-rendering:geometricPrecision; image-rendering:optimizeQuality; fill-rule:evenodd; clip-rule:evenodd"
viewBox="0 0 889.08 820.15"
 xmlns:xlink="http://www.w3.org/1999/xlink">
 <defs>
  <style type="text/css">
   <!-- <![CDATA[
    .fil0 {fill:#E6E6E6}
   ]]> -->
  </style>
 </defs>
 <g id="PowerClip_x0020_Contents">
  <metadata id="CorelCorpID_0Corel-Layer"/>
  <g id="_1500506865904">
   <path className="fil0" d="M660.95 685.99c-25.18,7.17 -407.5,7.17 -432.68,0 -15.84,-34.96 -7.54,-131.43 -7.76,-180.43 -0.14,-31.61 -7.1,-162.74 8.31,-180.21l157.14 -123.44c75.75,-57.92 43.04,-55.88 169.91,40.76l104.52 82.69c15.43,17.51 8.49,148.57 8.32,180.2 -0.25,48.83 8.13,145.58 -7.76,180.43zm-660.02 -324.19c24.58,11.3 62.97,4.31 91.65,5.41 -0.11,132.45 -3.43,269.25 -0.28,401.16 1.58,66.14 49.81,50.06 152.07,50.06l498.56 0.16c39.7,-0.46 53.03,-10.49 53.99,-50.23 3.15,-131.91 -0.17,-268.71 -0.28,-401.16 28.74,-1.1 67.05,5.82 91.67,-5.37 6.01,-25.49 -24.5,-40.28 -41.81,-53.48 -67.76,-51.67 -51.79,-24.75 -51.93,-163.52 -0,-3.97 0.06,-13.1 -0.57,-16.65l-1.78 -6.74c-8.91,-24.48 -83.41,-11.48 -88.47,-7.01 -11.66,10.3 -5.95,46.78 -7.55,73.32l-214.99 -168.24c-51.1,-39.35 -48.35,-18.26 -142.83,55.05l-305.6 241.61c-13.72,10.74 -37.8,20.61 -31.85,45.63z"/>
   <path className="fil0" d="M290.8 483.31c0,117.72 -12.47,136.13 33.67,136.13l240.28 0c36.72,0 33.96,-6.69 33.57,-42.48l0.7 -187.49c-0.79,-29 -23.59,-38.45 -42.59,-53.35 -137.96,-108.24 -86.16,-106.72 -221.13,-1.93 -59.84,46.46 -44.5,30.96 -44.5,149.11z"/>
  </g>
 </g>
</svg>
