<?xml version="1.0" encoding="UTF-8"?>
<!DOCTYPE svg PUBLIC "-//W3C//DTD SVG 1.1//EN" "http://www.w3.org/Graphics/SVG/1.1/DTD/svg11.dtd">
<!-- Creator: CorelDRAW 2018 (64-Bit) -->
<svg xmlns="http://www.w3.org/2000/svg" xml:space="preserve" width="2.7943mm" height="3.4289mm" version="1.1"
    style="shape-rendering:geometricPrecision; text-rendering:geometricPrecision; image-rendering:optimizeQuality; fill-rule:evenodd; clip-rule:evenodd; fill: white;stroke:#e44672"
    viewBox="0 0 10.66 13.08" xmlns:xlink="http://www.w3.org/1999/xlink">
    <defs>
        <style type="text/css">
            <!-- <![CDATA[
            .str0 {
                stroke: #E44672;
                stroke-width: 0.76;
                stroke-miterlimit: 22.9256
            }

            .fil0 {
                fill: none
            }

            ]]>
            -->
        </style>
    </defs>
    <g id="Layer_x0020_1">
        <metadata id="CorelCorpID_0Corel-Layer" />
        <path className="fil0 str0"
            d="M8.52 10.39l-6.34 0.01c0.11,-3.43 6.2,-3.48 6.34,-0.01zm-4.01 -7.34c2.31,-1.38 3.82,2.13 1.83,3.2 -0.97,0.52 -2.2,0.18 -2.65,-0.64 -1.07,-1.96 0.76,-2.52 0.83,-2.56zm-4.06 9.64l9.77 -0 0.05 -12.31 -9.89 0.06 0.07 12.26z" />
        <path className="fil0 str0" d="M8.52 10.39c-0.15,-3.47 -6.24,-3.42 -6.34,0.01l6.34 -0.01z" />
        <path className="fil0 str0"
            d="M4.51 3.05c-0.07,0.04 -1.9,0.6 -0.83,2.56 0.45,0.83 1.68,1.17 2.65,0.64 1.99,-1.08 0.48,-4.58 -1.83,-3.2z" />
    </g>
</svg>