<?xml version="1.0" encoding="UTF-8"?>
<!DOCTYPE svg PUBLIC "-//W3C//DTD SVG 1.1//EN" "http://www.w3.org/Graphics/SVG/1.1/DTD/svg11.dtd">
<!-- Creator: CorelDRAW 2018 (64-Bit) -->
<svg xmlns="http://www.w3.org/2000/svg" xml:space="preserve" width="3.3085mm" height="3.5868mm" version="1.1" style="shape-rendering:geometricPrecision; text-rendering:geometricPrecision; image-rendering:optimizeQuality; fill-rule:evenodd; clip-rule:evenodd"
viewBox="0 0 14.84 16.09"
 xmlns:xlink="http://www.w3.org/1999/xlink">
 <defs>
  <style type="text/css">
   <!-- <![CDATA[
    .str0 {stroke:#E44672;stroke-width:0.9;stroke-miterlimit:22.9256}
    .fil0 {fill:none}
    .fil1 {fill:#E44672}
   ]]> -->
  </style>
 </defs>
 <g id="Layer_x0020_1">
  <metadata id="CorelCorpID_0Corel-Layer"/>
  <g id="_2071291511456">
   <path className="fil0 str0" d="M2.15 4.88l10.57 0.03 -0.03 8.27 -5.26 0.01 -1.52 0 -1.14 0.01 -2.63 -0.06 0.01 -8.27zm0.69 -3.12l-1.89 0.41c-0.67,1.9 -0.65,10.94 -0.04,12.97 2.15,0.65 10.86,0.66 13.01,0.01 0.62,-1.93 0.63,-11.13 -0.02,-13.02l-1.89 -0.39 -0.84 -1.06 -0.75 0.78c-0.93,0.53 -5.06,0.58 -6,-0.06l-0.79 -0.61 -0.8 0.97z"/>
   <path className="fil1" d="M4.1 7.29l2.09 -0.96c0.26,5.44 0.48,5.28 -1.01,5.42l0.01 -3.37c-0.08,-0.07 -0.22,-0.25 -0.25,-0.18 -0.04,0.09 -0.22,-0.14 -0.43,-0.35l-0.41 -0.56zm3.64 0.76c0.41,-1.8 0.5,-1.91 2.62,-1.46 0.86,1.7 -0.23,2.87 -0.95,4.06 1.61,0.7 0.87,-0.51 1.51,1.15l-3.14 0.02c0.44,-2.48 1.87,-1.66 1.87,-4.53 -1.78,0.58 0.27,0.55 -1.91,0.76zm-5.61 5.2l2.63 0.06 1.14 -0.01 1.52 -0 5.26 -0.01 0.03 -8.27 -10.57 -0.03 -0.01 8.27z"/>
  </g>
 </g>
</svg>
