<?xml version="1.0" standalone="no"?>
<!DOCTYPE svg PUBLIC "-//W3C//DTD SVG 20010904//EN" "http://www.w3.org/TR/2001/REC-SVG-20010904/DTD/svg10.dtd">
<svg version="1.0" xmlns="http://www.w3.org/2000/svg" width="512.000000pt" height="512.000000pt"
    viewBox="0 0 512.000000 512.000000" preserveAspectRatio="xMidYMid meet">

    <g transform="translate(0.000000,512.000000) scale(0.100000,-0.100000)" fill="#e44672" stroke="none">
        <path d="M1475 5106 c-84 -21 -147 -57 -211 -121 -89 -89 -134 -199 -134 -330
0 -52 -1 -54 -31 -60 -137 -30 -322 -173 -414 -320 -24 -38 -59 -113 -77 -165
l-33 -95 -3 -1665 c-3 -1822 -5 -1742 55 -1884 75 -179 230 -334 408 -409 140
-59 94 -57 1525 -57 1412 0 1380 -1 1514 51 172 68 333 223 412 398 63 141 59
6 59 1866 l0 1690 -23 75 c-72 228 -230 406 -440 494 -34 14 -68 26 -77 26
-12 0 -15 12 -15 55 0 222 -148 410 -358 454 -80 17 -2089 14 -2157 -3z m2135
-306 c26 -13 47 -34 60 -60 18 -36 20 -58 20 -256 0 -206 -1 -218 -22 -256
-14 -24 -38 -48 -60 -59 -36 -18 -75 -19 -1048 -19 -993 0 -1011 0 -1050 20
-26 13 -47 34 -60 60 -18 36 -20 58 -20 257 1 247 6 267 76 309 l39 24 1013 0
c995 0 1013 0 1052 -20z m-2421 -717 c59 -109 175 -195 299 -222 74 -16 2069
-16 2144 0 175 37 308 173 348 356 l15 73 51 -34 c94 -64 160 -157 190 -269
11 -43 14 -328 14 -1664 0 -1157 -3 -1627 -11 -1665 -16 -74 -62 -162 -115
-218 -52 -55 -155 -113 -232 -129 -76 -16 -2590 -16 -2664 0 -172 37 -310 175
-347 347 -8 38 -11 501 -11 1665 0 1728 -2 1655 50 1761 28 59 92 130 154 172
l51 34 15 -73 c9 -39 31 -100 49 -134z" />
        <path d="M1848 3007 c-21 -12 -94 -91 -164 -175 -69 -84 -129 -150 -132 -147
-3 3 -22 36 -42 73 -27 49 -47 73 -76 89 -74 43 -159 20 -201 -53 -33 -57 -29
-98 18 -189 22 -44 67 -133 100 -197 54 -106 64 -119 103 -137 102 -50 129
-31 379 270 113 135 212 260 221 277 48 93 -29 212 -136 212 -18 0 -50 -10
-70 -23z" />
        <path d="M2812 2773 c-108 -53 -106 -210 3 -263 39 -19 62 -20 503 -20 527 0
523 0 567 75 31 52 31 98 2 149 -44 78 -31 76 -567 76 -417 0 -479 -2 -508
-17z" />
        <path d="M1292 1893 c-44 -21 -74 -66 -79 -117 -6 -52 6 -77 94 -198 37 -52
62 -96 59 -104 -3 -8 -38 -60 -77 -115 -85 -119 -96 -161 -58 -228 24 -43 84
-81 129 -81 49 0 104 38 150 105 25 35 47 64 50 64 3 0 25 -29 50 -64 46 -67
101 -105 150 -105 49 0 108 39 131 86 33 70 24 106 -60 224 -39 54 -74 106
-77 114 -3 8 22 52 59 104 36 49 72 103 81 120 47 91 -28 212 -132 212 -56 0
-100 -28 -148 -96 -25 -35 -49 -64 -54 -64 -5 0 -29 29 -54 64 -65 92 -136
118 -214 79z" />
        <path d="M2814 1600 c-109 -54 -109 -212 0 -264 30 -14 91 -16 506 -16 519 0
517 0 561 62 52 72 25 179 -55 217 -41 20 -58 21 -507 21 -445 0 -466 -1 -505
-20z" />
    </g>
</svg>