<?xml version="1.0" encoding="UTF-8"?>
<!DOCTYPE svg PUBLIC "-//W3C//DTD SVG 1.1//EN" "http://www.w3.org/Graphics/SVG/1.1/DTD/svg11.dtd">
<!-- Creator: CorelDRAW 2018 (64-Bit) -->
<svg xmlns="http://www.w3.org/2000/svg" xml:space="preserve" width="3.2398mm" height="2.5678mm" version="1.1"
    style="shape-rendering:geometricPrecision; text-rendering:geometricPrecision; image-rendering:optimizeQuality; fill-rule:evenodd; clip-rule:evenodd;fill: white;stroke:#e44672"
    viewBox="0 0 14.38 11.39" xmlns:xlink="http://www.w3.org/1999/xlink">
    <defs>
        <style type="text/css">
            <!-- <![CDATA[
            .str0 {
                stroke: #E44672;
                stroke-width: 0.89;
                stroke-miterlimit: 22.9256
            }

            .fil0 {
                fill: none
            }

            ]]>
            -->
        </style>
    </defs>
    <g id="Layer_x0020_1">
        <metadata id="CorelCorpID_0Corel-Layer" />
        <g id="_2071291501856">
            <path className="fil0 str0"
                d="M13.93 10.93c0.03,-2.67 -0.98,-3.75 -3.75,-3.74 -2.79,0.01 -3.76,1.06 -3.76,3.76l7.51 -0.02z" />
            <path className="fil0 str0" d="M12.2 5c0.99,-3.29 -3.18,-4.06 -4.08,-1.73 -0.99,2.57 2.46,4.7 4.08,1.73z" />
            <polygon className="fil0 str0" points="3.46,1.88 4.87,1.89 4.89,0.46 3.46,0.45 " />
            <polygon className="fil0 str0" points="0.45,1.88 1.87,1.89 1.88,0.46 0.46,0.45 " />
            <polygon className="fil0 str0" points="0.45,4.89 1.87,4.9 1.88,3.47 0.46,3.46 " />
            <polygon className="fil0 str0" points="0.45,7.88 1.87,7.9 1.89,6.47 0.46,6.46 " />
            <polygon className="fil0 str0" points="3.46,4.88 4.88,4.89 4.88,3.47 3.46,3.46 " />
            <polygon className="fil0 str0" points="3.53,7.88 4.89,7.9 4.88,6.54 3.46,6.45 " />
        </g>
    </g>
</svg>