<?xml version="1.0" standalone="no"?>
<!DOCTYPE svg PUBLIC "-//W3C//DTD SVG 20010904//EN"
 "http://www.w3.org/TR/2001/REC-SVG-20010904/DTD/svg10.dtd">
<svg version="1.0" xmlns="http://www.w3.org/2000/svg"
 width="512.000000pt" height="512.000000pt" viewBox="0 0 512.000000 512.000000"
 preserveAspectRatio="xMidYMid meet">

<g transform="translate(0.000000,512.000000) scale(0.100000,-0.100000)"
fill="#e44672" stroke="none">
<path d="M2628 4305 c-31 -10 -229 -143 -575 -386 -290 -203 -655 -459 -810
-567 l-282 -197 -1 -1067 0 -1066 64 -59 c65 -59 156 -111 249 -141 47 -15
136 -17 947 -17 l895 0 55 26 c202 96 250 355 95 513 -38 38 -122 84 -160 87
-11 1 23 5 75 9 156 10 254 70 307 187 80 175 -5 371 -188 433 l-51 18 94 4
c73 3 105 10 149 30 141 65 217 225 176 369 -32 110 -102 183 -210 220 -51 18
-37 18 683 21 l735 3 55 26 c202 96 250 355 95 513 -21 21 -64 51 -94 65 l-56
26 -1220 5 -1219 5 243 194 c281 224 299 241 331 307 33 68 34 188 3 256 -29
63 -97 134 -156 165 -62 31 -163 39 -229 18z"/>
<path d="M80 3337 c-25 -13 -51 -37 -61 -57 -18 -33 -19 -84 -19 -1200 0
-1116 1 -1167 19 -1200 10 -20 36 -44 61 -57 41 -22 54 -23 240 -23 186 0 199
1 240 23 25 13 51 37 61 57 18 33 19 84 19 1200 0 1116 -1 1167 -19 1200 -10
20 -36 44 -61 57 -41 22 -54 23 -240 23 -186 0 -199 -1 -240 -23z"/>
</g>
</svg>
