<?xml version="1.0" standalone="no"?>
<!DOCTYPE svg PUBLIC "-//W3C//DTD SVG 20010904//EN"
 "http://www.w3.org/TR/2001/REC-SVG-20010904/DTD/svg10.dtd">
<svg version="1.0" xmlns="http://www.w3.org/2000/svg"
 width="512.000000pt" height="512.000000pt" viewBox="0 0 512.000000 512.000000"
 preserveAspectRatio="xMidYMid meet">

<g transform="translate(0.000000,512.000000) scale(0.100000,-0.100000)"
fill="#000000" stroke="none">
<path d="M1615 4794 c-680 -240 -927 -332 -945 -350 l-25 -24 0 -908 c0 -943
4 -1068 45 -1377 128 -950 519 -1430 1670 -2045 204 -109 196 -109 400 0 411
219 705 410 925 601 511 444 707 883 777 1749 9 121 13 405 13 1072 l0 908
-25 24 c-19 18 -265 109 -948 350 -508 179 -934 326 -945 325 -12 0 -436 -146
-942 -325z m1121 -764 c215 -55 383 -187 484 -382 52 -98 78 -202 86 -337 l7
-108 41 -11 c65 -17 108 -52 139 -111 l27 -55 0 -565 c0 -364 -4 -579 -11
-604 -13 -49 -63 -105 -114 -128 -38 -17 -87 -19 -835 -19 -748 0 -797 2 -835
19 -51 23 -101 79 -114 128 -7 25 -11 240 -11 604 l0 565 28 55 c30 59 73 94
138 111 l41 11 7 108 c11 191 67 343 175 474 175 212 481 313 747 245z"/>
<path d="M2501 3619 c-98 -19 -193 -95 -232 -183 -16 -37 -24 -77 -27 -143
l-4 -93 322 0 322 0 -4 93 c-3 67 -10 106 -27 142 -59 133 -211 212 -350 184z"/>
<path d="M2472 2754 c-19 -10 -46 -30 -61 -45 -84 -84 -81 -227 7 -301 28 -23
30 -30 34 -114 6 -118 33 -157 108 -157 75 0 102 39 108 157 4 84 6 91 34 114
49 41 71 96 66 166 -4 71 -34 123 -95 164 -49 34 -150 42 -201 16z"/>
</g>
</svg>
