<?xml version="1.0" encoding="UTF-8"?>
<!DOCTYPE svg PUBLIC "-//W3C//DTD SVG 1.1//EN" "http://www.w3.org/Graphics/SVG/1.1/DTD/svg11.dtd">
<!-- Creator: CorelDRAW 2018 (64-Bit) -->
<svg xmlns="http://www.w3.org/2000/svg" xml:space="preserve" width="3.3065mm" height="3.6318mm" version="1.1" style="shape-rendering:geometricPrecision; text-rendering:geometricPrecision; image-rendering:optimizeQuality; fill-rule:evenodd; clip-rule:evenodd"
viewBox="0 0 14.82 16.28"
 xmlns:xlink="http://www.w3.org/1999/xlink">
 <defs>
  <style type="text/css">
   <!-- <![CDATA[
    .str0 {stroke:#E44672;stroke-width:0.9;stroke-miterlimit:22.9256}
    .fil0 {fill:none}
   ]]> -->
  </style>
 </defs>
 <g id="Layer_x0020_1">
  <metadata id="CorelCorpID_0Corel-Layer"/>
  <path className="fil0 str0" d="M3.86 5l2.4 0.04 -0.03 8.48 -2.38 -0.03 0.02 -8.5zm5.4 -0.02l2.36 0 0 8.53 -2.36 0 0 -8.53zm-5.64 -4.49c-0.91,0.38 -0.25,0.41 -1.13,1.17 -0.76,0.66 -0.66,0.15 -1.38,0.89 -1.13,1.15 -0.55,11.65 -0.2,12.78 2.11,0.67 10.88,0.67 13.01,0.01 0.59,-1.89 0.54,-10.04 0.21,-12.48 -0.89,-0.82 -0.96,-0.5 -1.59,-1 -0.06,-0.05 -0.14,-0.13 -0.2,-0.18 -0.92,-0.83 -0.17,-0.79 -1.12,-1.18 -1.57,0.67 -0.08,-0.21 -1.14,1.51l-5.31 -0.02c-1.07,-1.7 0.44,-0.82 -1.14,-1.49z"/>
 </g>
</svg>
