<?xml version="1.0" standalone="no"?>
<!DOCTYPE svg PUBLIC "-//W3C//DTD SVG 20010904//EN"
 "http://www.w3.org/TR/2001/REC-SVG-20010904/DTD/svg10.dtd">
<svg version="1.0" xmlns="http://www.w3.org/2000/svg"
 width="512.000000pt" height="512.000000pt" viewBox="0 0 512.000000 512.000000"
 preserveAspectRatio="xMidYMid meet">

<g transform="translate(0.000000,512.000000) scale(0.100000,-0.100000)"
fill="#000000" stroke="none">
<path d="M717 5104 c-289 -52 -550 -269 -658 -548 -61 -158 -59 -80 -59 -1996
0 -1916 -2 -1838 59 -1996 90 -230 296 -432 522 -511 156 -54 88 -52 1975 -53
1926 0 1840 -3 2004 61 220 85 414 279 501 503 61 158 59 80 59 1996 0 1521
-2 1759 -15 1835 -63 358 -352 647 -710 710 -126 22 -3556 21 -3678 -1z m3661
-200 c208 -43 378 -175 472 -369 75 -154 71 -31 68 -2010 l-3 -1770 -27 -80
c-64 -189 -188 -329 -363 -411 -146 -68 -38 -64 -1965 -64 -1943 0 -1822 -4
-1975 70 -147 72 -252 178 -321 325 -68 146 -64 38 -64 1965 0 1927 -4 1819
64 1965 69 147 174 253 321 325 150 73 25 68 1968 69 1560 1 1756 -1 1825 -15z"/>
<path d="M1025 4610 c-130 -18 -250 -77 -344 -171 -100 -100 -154 -214 -172
-363 -6 -51 -9 -635 -7 -1576 4 -1633 0 -1521 60 -1652 74 -158 232 -286 408
-329 82 -21 3099 -21 3180 0 223 56 397 229 451 451 21 82 21 3099 0 3180 -54
216 -212 382 -427 446 -56 17 -148 18 -1574 20 -833 1 -1542 -2 -1575 -6z
m3042 -199 c134 -20 247 -101 306 -220 l32 -66 0 -1565 0 -1565 -32 -66 c-60
-121 -175 -202 -311 -220 -88 -11 -2917 -11 -3006 0 -181 24 -320 162 -347
344 -11 81 -11 2933 0 3014 26 177 163 318 335 343 74 11 2948 11 3023 1z"/>
<path d="M1944 3709 c-115 -15 -220 -93 -270 -202 l-29 -62 0 -885 0 -885 33
-67 c40 -82 111 -149 189 -178 65 -24 170 -29 229 -10 71 22 1484 841 1530
887 24 23 55 65 71 95 26 48 28 62 28 158 0 96 -2 110 -28 158 -49 93 -94 126
-437 324 -179 102 -498 286 -710 408 -212 123 -401 229 -420 237 -48 21 -125
30 -186 22z m818 -613 c387 -223 717 -419 733 -436 52 -55 45 -160 -15 -215
-11 -10 -339 -203 -728 -427 -679 -392 -709 -408 -758 -408 -61 0 -108 27
-135 80 -18 33 -19 76 -19 870 0 794 1 837 19 870 33 62 100 94 168 79 17 -3
348 -189 735 -413z"/>
</g>
</svg>
