<?xml version="1.0" encoding="UTF-8"?>
<!DOCTYPE svg PUBLIC "-//W3C//DTD SVG 1.1//EN" "http://www.w3.org/Graphics/SVG/1.1/DTD/svg11.dtd">
<!-- Creator: CorelDRAW 2018 (64-Bit) -->
<svg xmlns="http://www.w3.org/2000/svg" xml:space="preserve" width="4.2286mm" height="4.2334mm" version="1.1"
    style="shape-rendering:geometricPrecision; text-rendering:geometricPrecision; image-rendering:optimizeQuality; fill-rule:evenodd; clip-rule:evenodd;stroke:#e44672"
    viewBox="0 0 23.94 23.97" xmlns:xlink="http://www.w3.org/1999/xlink">
    <defs>
        <style type="text/css">
            <!-- <![CDATA[
            .fil0 {
                fill: #E44672
            }

            .fil1 {
                fill: #E44672
            }

            ]]>
            -->
        </style>
    </defs>
    <g id="Layer_x0020_1">
        <metadata id="CorelCorpID_0Corel-Layer" />
        <g id="_2071381215568">
            <path className="fil0"
                d="M22.61 16.81c-0.27,0.16 -3.16,0.07 -3.5,0.08 -0.03,0.27 -0.04,0.46 0.04,0.72 1.07,-0.07 3.46,0.22 4.15,-0.28 0.45,-0.33 0.64,-0.79 0.64,-1.55l-0 -13.43c0,-0.79 0.06,-1.35 -0.41,-1.84 -0.51,-0.52 -0.9,-0.47 -1.78,-0.47l-11.23 0c-2.96,0 -6.02,-0.07 -8.98,0 -1.82,0.05 -1.52,1.95 -1.52,2.92 0,1.09 -0.06,12.97 0.03,13.46 0.11,0.56 0.56,0.99 1.06,1.13 0.39,0.11 6.14,0.06 6.72,0.05l-0.34 -0.74 -5.78 -0c-0.7,-0 -0.95,-0.25 -0.95,-0.95l0 -13.56c0,-0.67 -0.1,-1.27 0.43,-1.49 0.36,-0.15 16.82,-0.07 19.26,-0.07 2.11,0 2.73,-0.31 2.72,1.13l-0 13.56c0,0.68 0.06,1.22 -0.58,1.34z" />
            <path className="fil0"
                d="M14.46 14.32c0.49,0.12 0.61,-0.16 1.08,0.03 0.41,0.17 0.28,0.4 0.59,0.63 0.44,0.09 0.72,-0.25 1.16,0.07 0.34,0.25 0.3,0.64 0.3,1.09 -0,0.94 -0.01,1.87 -0,2.81 0,1.63 -0.33,1.96 -0.96,3.24 -0.15,0.32 -0.26,0.75 -0.38,1.01l-4.34 -0c-0.29,-2.22 -1.04,-2.14 -2.01,-4.6 -0.19,-0.49 -0.41,-1.13 -0.65,-1.61 -0.29,-0.58 -1.69,-2.67 -0.51,-3 1.28,-0.35 1.6,2.31 2.39,1.84 0.28,-0.17 0.17,-1.56 0.17,-2.01l0 -4.46c-0,-0.74 -0.06,-1.55 0.81,-1.48 0.84,0.07 0.67,1.08 0.67,1.54l-0 3.36c-0.01,1.43 0.54,0.42 1.24,0.84 0.34,0.2 0.29,0.42 0.45,0.69zm-3.93 -0.15c-0.29,-0.18 -0.35,-0.45 -0.67,-0.67 -0.9,-0.63 -2.14,-0.14 -2.34,0.77 -0.24,1.09 0.92,2.68 1.26,3.6 0.5,1.34 0.92,2.25 1.61,3.34 1.61,2.54 -0.16,2.75 2.13,2.75 5.45,-0 3.95,0.29 4.75,-1.4 0.4,-0.85 0.89,-1.59 1.02,-2.64 0.07,-0.61 0.09,-4.37 -0.05,-4.78 -0.2,-0.57 -0.73,-0.96 -1.51,-0.96 -0.51,0 -0.36,-0.19 -0.76,-0.43 -0.32,-0.19 -0.59,-0.21 -1,-0.2 -0.47,-0.44 -0.51,-0.71 -1.44,-0.78 -0.12,-1.02 -0.02,-2.79 -0.02,-3.88 0,-1.57 -1.21,-2 -2.12,-1.61 -1.08,0.46 -0.86,1.74 -0.86,3.02 0,1.29 0,2.59 -0,3.88z" />
            <path className="fil0"
                d="M6.79 13.94c0.04,-0.04 0.39,-0.66 0.43,-0.73 -0.91,-0.03 -1.84,-0.01 -2.75,-0.01 -1.15,0 -1.65,0.14 -1.65,-1.15 0.01,-1.87 0,-3.74 0,-5.62 0,-0.92 -0.23,-1.96 0.79,-2.01 0.89,-0.04 1.9,0 2.81,0 1.49,0 13.52,-0.05 14.04,0.01 0.9,0.11 0.67,1.23 0.67,2.12 0,1.87 -0,3.75 0,5.62 0,1.23 -0.69,1.03 -1.77,1.03 -0.69,0 -2.19,-0.08 -2.78,0.03 0.41,0.36 0.46,0.04 1.17,0.37 0.69,0.32 0.26,0.35 1.25,0.35 1.08,-0 2.1,0.12 2.59,-0.6 0.47,-0.7 0.29,-1.95 0.29,-2.89 0,-1.08 0,-2.16 0,-3.24 0,-0.88 0.16,-2.26 -0.27,-2.92 -0.5,-0.77 -1.52,-0.63 -2.55,-0.63 -1.6,0 -15.39,-0.09 -15.9,0.05 -1.16,0.32 -1.09,1.4 -1.09,2.15 0,2.12 -0.01,4.23 -0,6.35 0,0.52 0.13,0.93 0.37,1.23 0.19,0.24 0.63,0.47 1.1,0.49 0.98,0.04 2.26,0.04 3.24,-0.01z" />
            <path className="fil0"
                d="M9.78 11.57c0.08,-1.52 -0.1,-0.91 -0.42,-1.78 -0.67,-1.77 0.61,-3.74 2.56,-3.77 1.36,-0.02 2.28,0.82 2.67,1.78 0.54,1.36 -0.12,2.15 -0.29,2.6 -0.1,0.27 -0.04,0.78 -0.03,1.09 0.85,-0.4 1.67,-2.36 1.01,-4.01 -1.19,-2.95 -5.46,-2.96 -6.62,0.09 -0.59,1.56 0.16,3.49 1.13,4.01z" />
            <path className="fil1"
                d="M19.15 17.6c-0.08,-0.26 -0.06,-0.45 -0.04,-0.72 0.34,-0.01 3.23,0.08 3.5,-0.08l-3.53 0.01c-0.06,0.22 -0.13,0.64 0.07,0.78z" />
        </g>
    </g>
</svg>