<?xml version="1.0" encoding="UTF-8"?>
<!DOCTYPE svg PUBLIC "-//W3C//DTD SVG 1.1//EN" "http://www.w3.org/Graphics/SVG/1.1/DTD/svg11.dtd">
<!-- Creator: CorelDRAW 2018 (64-Bit) -->
<svg xmlns="http://www.w3.org/2000/svg" xml:space="preserve" width="33.093mm" height="32.0044mm" version="1.1" style="shape-rendering:geometricPrecision; text-rendering:geometricPrecision; image-rendering:optimizeQuality; fill-rule:evenodd; clip-rule:evenodd"
viewBox="0 0 3114.45 3012"
 xmlns:xlink="http://www.w3.org/1999/xlink">
 <defs>
  <style type="text/css">
   <![CDATA[
    .fil6 {fill:#2B2A29}
    .fil8 {fill:#E83B6D}
    .fil21 {fill:#1C344B}
    .fil2 {fill:#223A0A}
    .fil0 {fill:#351602}
    .fil4 {fill:#53534B}
    .fil1 {fill:#5B9D2C}
    .fil3 {fill:#887B74}
    .fil7 {fill:#D83F7C}
    .fil17 {fill:#F3C5AA}
    .fil11 {fill:#F3CBB2}
    .fil18 {fill:#F4C3A4}
    .fil13 {fill:#F4D3B4}
    .fil22 {fill:#F5C4C8}
    .fil23 {fill:#F6C1C6}
    .fil10 {fill:#F6C6A6}
    .fil12 {fill:#F6C6A9}
    .fil19 {fill:#F7C2C7}
    .fil16 {fill:#F9DEC1}
    .fil9 {fill:#FADDBE}
    .fil25 {fill:#FAFAFA}
    .fil20 {fill:#FCFEFA}
    .fil5 {fill:#FDDEBF}
    .fil24 {fill:#FDFDFD}
    .fil15 {fill:#D83F7C;fill-opacity:0.678431}
    .fil14 {fill:#EF4172;fill-opacity:0.678431}
   ]]>
  </style>
 </defs>
 <g id="Layer_x0020_1">
  <metadata id="CorelCorpID_0Corel-Layer"/>
  <g id="_1500516147760">
   <g>
    <path className="fil0" d="M259.64 939.89c23.38,70.74 184.03,145.92 265.27,170.25 281.61,84.35 711.39,-113.62 932.54,391.03 46.32,105.7 69.48,229.38 79.22,356.93 9.54,124.98 -22.94,278.04 -40.23,400.66 -18.3,129.8 -35.9,257.56 -54.95,387.37 -15.39,104.78 -10.5,169.51 -55.4,260.87 -13.99,28.5 -38.19,49.85 -44.54,64.67 42.81,1.39 136.62,-5.86 169.35,7.81l272.61 0c-60.44,-151.45 -83.49,-146.97 -100.09,-352.9 -11.73,-145.55 -10.47,-299.55 -11.89,-446.47 -0.91,-93.43 8.55,-116.24 32.05,-196.4 47.46,-161.92 141.71,-324.2 236.51,-448.54 92.34,-121.13 313.23,-370.63 579.56,-327.46 108.54,17.59 215.59,92.76 272.28,184.03 73.11,117.72 87.36,211.79 90.84,373.71 19.39,-113.13 -14.27,-261.61 -59.07,-348.21 -144.73,-279.72 -451.14,-301.83 -690.86,-130.61 -56.17,40.11 -79.49,66.47 -119.35,96.65 6.64,-35.32 18.62,-81.83 -3.57,-122.96l-11.12 -14.62c13.93,59.21 40.85,107.94 -31.57,186.8 -86.51,94.22 -150.19,177.1 -216.45,292.45 -14.13,24.58 -80.07,147.51 -81.21,166.9 -8.52,-71.57 -8.23,-409.21 3.36,-478.8 23.07,-138.4 52.56,-269.42 105.24,-387.56 55.9,-125.36 122.02,-213.98 206.66,-281.28 117.81,-93.66 216.36,-100.48 396.12,-89.5 5.81,27.43 74.06,91.05 97.24,116.57 58.89,64.81 208.5,126.99 312.67,118.78 58.55,-4.61 130.62,-35.05 145.24,-73.12 -19.73,9.27 -104.93,118.99 -309.96,34.56 -82.39,-33.93 -186.53,-120.6 -220.52,-193.69 146.34,8.05 235.95,15.74 360.58,-40.51 77.43,-34.94 199.82,-132.84 213.05,-196.7 -0.98,0.69 -2.42,0.72 -2.78,2.27l-22.65 28.93c-9.11,12.76 -17.31,22.13 -28.27,33.97 -64.25,69.47 -135.81,113.39 -234.05,139.88 -253.31,68.3 -530.6,-133.72 -799.19,145.45 -32.38,33.65 -80.8,92.08 -107.36,141.77 -15.74,29.46 -75.82,137.02 -79.42,164.04 -13.95,-127.22 7.58,-183.65 -56.6,-337.85 -78.3,-188.12 -240.36,-321.47 -437.95,-361.78 -88.94,-18.14 -274.71,-15.09 -344.71,27.8 36.52,-3.85 72.38,-16.4 114.41,-21.47 42.36,-5.11 88.94,-6.99 132.86,-2.64 224.9,22.32 401.37,136.84 496.93,344.3 104.93,227.8 33.84,465.55 -0.58,723.45l-31.18 228.29c-5.31,21.21 10.36,-11.19 -5.88,16.08 -46.82,-110.83 -43.23,-210.16 -160.56,-354.23 -68.7,-84.35 -168.3,-169.49 -313.34,-206.03 -219.06,-55.2 -449.41,41.39 -691.52,-81.63 -49.94,-25.38 -75.44,-44.64 -113.45,-78.54l-22.51 -24.38c-10.34,-9.44 -2.97,-4.14 -11.78,-8.39z"/>
    <path className="fil1" d="M657.09 1742.86c-38.84,23.7 -52.29,69.3 -54.93,115.71 -3.17,55.67 5.99,107.34 18.55,156.87 9.33,-5.43 6.62,5.04 13.55,-14.44 3.47,-35.58 115.02,-118.57 74.29,-279.27 -15.42,17.98 -16.92,27.67 -28.03,48.23l12.81 -43.41 -36.24 16.31z"/>
    <path className="fil1" d="M3057.3 1785.21c-44.19,-50.75 -21.89,-34.83 -74.9,-80.28 -6.81,-5.84 -8.75,-8.71 -16.38,-14.62 -13.19,-10.24 -23.22,-14.89 -37.12,-23.86 -0.82,26.7 9.23,56.06 19.75,77.52 24.41,49.8 121.42,137.88 155.42,154.29 12.71,-36.94 -9.29,-131.89 -27.69,-162.45 -25.09,-41.71 -76.62,-70.28 -126.7,-72.34l30.46 22.89c17.71,14.37 64.03,73.09 77.16,98.85z"/>
    <path className="fil1" d="M1494.15 123.67c9.8,-24.74 18.71,-26.92 33.04,-49.83 11.74,-18.75 18.43,-39.94 29.08,-55.28 -44.87,-1.86 -106.35,3.56 -146.62,21.04 -41.49,18.01 -69.85,46.82 -78.61,92.85 12.2,-18.93 97.3,-67.61 132.1,-73.19 -40.42,9.23 -119.52,73.05 -132.97,96.5 99.89,35.72 148.41,-25.21 163.98,-32.09z"/>
    <path className="fil1" d="M2395.58 1857c2.69,23.96 10.73,177.78 11.91,180.34 -2.45,-54.03 -9.22,-157.68 -28.21,-207.61 -4.56,28.89 -52.2,81.58 -38.25,153.36 10.57,54.39 47.03,103.32 61.1,141.59l19.1 -30.24c4.2,-10.71 7.26,-20.81 10.62,-30.55 21.72,-62.98 15.37,-83.8 -6.12,-145.2 -7.2,-20.59 -15.56,-48.03 -30.15,-61.69z"/>
    <path className="fil1" d="M1306 823.8c-11.21,1.87 -6.58,-0.08 -14.78,4.79 -16.18,9.6 -7.34,5.58 -10.28,9.62 0.05,11.96 7.66,12.97 -0.73,9.57 36.05,18.14 103.44,36.35 147.29,35.71 39.89,-0.58 121.36,-22.74 140.9,-43.96 -38.92,-7.11 -126.38,-24.06 -163.82,-16.04 41.55,-1.93 151.47,5.03 157.04,2.65 -73.19,-42.98 -73.83,-57.32 -188.5,-23.62 -25.59,7.53 -40.06,21.8 -67.13,21.28z"/>
    <path className="fil1" d="M299.26 919.42c3.61,-13.24 2.31,-26.7 8.71,-41.14 4.21,-9.49 12.72,-18.07 19.58,-32.33 40.02,-83.2 -22.11,-185.85 -64.38,-229.61 -18.78,16.39 -20.38,52.15 -23.58,76.01 -4.59,34.31 -3.66,56.92 5.78,88.88 14,47.35 45.95,97.04 46.14,98.04 2.54,13.13 -1.8,9.51 -0.91,19.3 2.44,26.89 -5.33,7.78 8.68,20.84z"/>
    <path className="fil1" d="M793.36 347.94c-47.86,-8.03 -56.82,-52.56 -148.64,-29.9 -35.4,8.74 -115.1,36.23 -132.9,57.65 70.52,45.01 221.01,46.28 287.58,-6.66 -43.23,-14.89 -102.42,-17.06 -155.2,-18.83 26.52,-0.74 54.16,-2.59 80.7,0.23 14.25,1.52 65.56,15.62 68.46,-2.48z"/>
    <path className="fil1" d="M311.28 1416.6c-0.81,-0.96 -1.86,-2.36 -2.33,-2.93l-10.26 -11.82c-8.12,7.06 -23.24,16.52 -34.98,21.59l26.93 -23.98c0.6,-2.11 2.22,-2.25 3.33,-4.17l-57.36 -0.02c-31.9,1.26 -52.88,36.15 -66.44,67.9 -15.06,35.23 -25.35,70.21 -26.21,111.33 90.88,-15 149.41,-65.8 167.32,-157.91z"/>
    <path className="fil1" d="M1790.38 404.41c10.89,-7.66 -0.28,-10.48 12.07,3.27l65.96 90.81 19.04 12.29c37.96,40.14 51.55,25.76 50.37,44.99l45.89 15.99c9.76,-7.54 -14.89,-10.97 16.65,-7.84 -9.93,-20.91 -21.38,-36.15 -40.52,-57.87l36.15 26.2c0.73,0.83 2.16,2.34 2.76,3.02 0.63,0.7 2.5,3.93 2.96,3.02 0.47,-0.92 2,2.07 3.06,3.02 -4.77,-50.5 -24.69,-93.01 -61.1,-112.3 -29.77,-15.78 -68.61,-23.95 -103.14,-27.17 -16.25,-1.52 -31.48,2.11 -30.71,-12.86l-30.67 -1.21c4.71,14.31 -0.76,7.68 11.22,16.64z"/>
    <path className="fil1" d="M2341.57 540.33c-11,-18.74 -2.37,14.72 -0.08,-9.74 0.8,-8.54 -10.85,-0.36 -20.17,-24.19 -15.56,-21.37 -85.48,-49.24 -119.99,-48.55 -49.76,0.98 -76.82,20.69 -97.25,25.45 -21.37,4.98 -18.6,-3.87 -32.29,4.63 14.18,14.14 92.75,50.29 119.81,62.12 43.28,18.94 114.89,21.92 149.96,-9.72z"/>
    <path className="fil1" d="M1080.23 1287.36c-5,10.85 1.94,-0.08 -6.37,9.63 -0.87,1.02 -5.86,5.87 -7.72,7.87l-14.8 16.51c-6.27,8.22 -14.94,25.74 -21.55,40.2 -16.22,35.54 -23.87,59.73 -29.44,98.92 42,-13.31 96.92,-39.43 119.43,-60.61 16.32,-15.34 53.44,-87.39 58.81,-121.63 -24.48,8.89 -42.38,23.97 -63.96,36.42 0.87,-1.16 2.23,-4.35 2.72,-3.4l23.58 -20c6.95,-5.04 16.5,-11.34 26.24,-17.22 -42.98,-9.03 -56.21,5.78 -86.93,13.31z"/>
    <path className="fil1" d="M3002.07 940.64c21.71,-4.01 38.01,-24.95 45.63,-46.35 2.59,-22.06 21.56,-32.79 35.45,-68.87 -62.08,4.4 -158.86,23.52 -188.37,81.41 -12.24,24.05 -15.2,43.61 -9.43,58.89l5.87 10.66c37.97,-5.05 84.54,-34.02 110.84,-35.73z"/>
    <path className="fil1" d="M2893.13 1212.32c-6.3,2.2 -15.69,4.96 -21.41,8.19 -14.42,8.15 -8.34,1.8 -12.62,12.27 -6.25,21.82 -9.72,11.72 -19.71,34.09 38.75,-6.88 76.12,-23.18 117.43,-24.2l-110.59 30.83c-12.29,7.38 -6.49,3.31 -15.11,13.45 121.65,16.45 165.71,14.78 258.16,-45.38 -46.26,-38.44 -179.94,-25.16 -196.15,-29.25z"/>
    <path className="fil1" d="M782.49 1076.68c-8.35,-39.68 -29.33,-56.43 -41.5,-85.64 13.51,8.38 4.51,0.99 14.56,13.18 5.45,6.62 7.24,9.69 11.23,15.02 10.44,13.97 12.67,22.28 22.24,33.05 2.53,-53.72 -18.78,-82.88 -46.73,-102.47 -25.83,-18.11 -61.51,-46.96 -95.64,-56.82 -2.46,43.75 10.96,95.52 32.47,125.93 25.62,36.22 54.56,49.65 103.37,57.76z"/>
    <path className="fil1" d="M3008.94 229.1c22.53,-14.17 -4.88,-62.72 -5.97,-101.17l22.41 91.59c9.65,-27.77 15.94,-48.78 7.99,-81.44 -3.73,-15.31 -7.82,-14.7 -0.9,-27.67 -18.3,-45.29 -54.76,-85.75 -81.69,-110.41l-11.91 0c-0.79,68.27 0.48,163.63 58.56,220.38 9.51,9.29 4.05,4.86 11.52,8.71z"/>
    <path className="fil1" d="M1765.13 1287.1c33.29,11.71 81.47,67.72 155.92,26.77 15.97,-8.78 34.59,-14.33 45.51,-26.2 -31.33,-14.57 -67.81,-15.66 -99.08,-25.84 42.3,-2.47 54.3,2.71 92.63,9.12 -30.79,-24.21 -28.2,-46.33 -96.61,-39.69 -42.49,4.12 -78.71,20.23 -116.45,30.57 11.43,14.75 13.03,8.69 18.08,25.27z"/>
    <path className="fil1" d="M76.59 1050.44c40.02,-7.36 89.01,-36.24 101.03,-62.2 5.98,-27.63 15.93,-22.46 22.79,-47.78 -52.45,14.74 -70.59,24.48 -112.36,45.31 14.86,-12.28 23.71,-20.19 45.94,-31.73 8.08,-4.21 15.69,-7.76 25.2,-11.7 16.51,-6.82 12.9,-3.24 24.06,-12.58 -24.98,-0.12 -50.67,-1.67 -73.61,4.56 -60.05,16.32 -95.5,102.06 -98.17,132.25 23.74,-6.13 41.05,-19.88 65.12,-16.13z"/>
    <path className="fil0" d="M643.17 586.33c12.89,60.93 86.79,114.08 146.74,134.37 144.26,48.83 327.96,-5.82 442.88,-89.95 38.84,-28.44 131.67,-107.05 148.39,-139.27 -46.08,-8.18 -27.9,4.99 -77.89,54.04 -154.94,152.07 -414.04,258.56 -596.79,118.2 -38.15,-29.3 -37.05,-45.67 -63.33,-77.4z"/>
    <path className="fil2" d="M3057.3 1785.21c-13.13,-25.76 -59.45,-84.47 -77.16,-98.85l-30.46 -22.89c50.09,2.06 101.61,30.63 126.7,72.34 18.4,30.56 40.4,125.51 27.69,162.45 -33.99,-16.4 -131,-104.48 -155.42,-154.29 -10.52,-21.46 -20.57,-50.82 -19.75,-77.52 13.9,8.97 23.92,13.62 37.12,23.86 7.63,5.91 9.57,8.77 16.38,14.62 53.01,45.45 30.72,29.52 74.9,80.28zm57.14 130.81l0 -86.94c-29.02,-60.84 5.32,-125.03 -134.28,-169.03 -12.84,-4.05 -29.02,-6.2 -41.8,-9.83 -19.25,-5.49 -16.66,-10.35 -35.71,-14.13 -4.11,32.69 8.1,4.99 17.08,36.52 5.64,19.78 4.76,31.53 12.01,51.53 17.39,48.08 70.16,107.92 110.89,138.55 23.56,17.73 44.79,40.88 71.81,53.31z"/>
    <path className="fil2" d="M1494.15 123.67c-15.57,6.88 -64.09,67.82 -163.98,32.09 13.45,-23.45 92.55,-87.27 132.97,-96.5 -34.79,5.58 -119.9,54.27 -132.1,73.19 8.76,-46.03 37.12,-74.84 78.61,-92.85 40.27,-17.49 101.74,-22.91 146.62,-21.04 -10.65,15.34 -17.34,36.53 -29.08,55.28 -14.33,22.92 -23.25,25.09 -33.04,49.83zm0 0c11.94,-2.8 6.84,1.84 24.5,-22.32 18.77,-25.71 40.71,-62.79 48.47,-91.88 -63.52,-2.8 -144.8,7.37 -191.4,37.2 -26.08,16.71 -31.2,34.43 -47.38,67.07 -32.97,66.55 -42.52,52.79 -28.58,70.88 8.11,-5.72 9.52,-8.15 18.69,-18.7 34.67,-1.44 71.31,12.18 108.03,4.76 16.41,-3.31 27.86,-10.19 39.56,-17.71 39.44,-25.32 25.19,-16.91 28.1,-29.3z"/>
    <path className="fil2" d="M2395.58 1857c14.6,13.66 22.95,41.1 30.15,61.69 21.49,61.4 27.84,82.22 6.12,145.2 -3.36,9.74 -6.42,19.84 -10.62,30.55l-19.1 30.24c-14.07,-38.28 -50.53,-87.2 -61.1,-141.59 -13.96,-71.78 33.69,-124.46 38.25,-153.36 18.99,49.93 25.77,153.58 28.21,207.61 -1.19,-2.56 -9.22,-156.38 -11.91,-180.34zm6.6 282.96l5.91 -6.13c4.13,-5.39 2,-1.56 6.97,-9.91 28.47,-47.88 45.3,-109.91 32.84,-164.53 -15.93,-69.82 -40.45,-96.86 -60.58,-152.6 -1.25,-3.44 -2.56,-7.68 -4.18,-10.96 -3.77,-7.68 -2.32,-4.94 -5.78,-8.85 -10.71,19.19 4.75,13.88 -5.13,40.05 -13.98,37.02 -44.91,75.14 -41.81,140.26 2.9,60.65 51.6,128.21 71.76,172.66z"/>
    <path className="fil0" d="M169.16 1290.57c6.08,13.2 -1.56,3.52 9.47,15.24l40.3 27.39c18.59,10.77 41.32,18.17 64.81,23.11 55.47,11.69 111.71,4.28 159.41,-15.14 39.66,-16.16 88.51,-44.62 110.15,-66.59 15.57,-15.82 30.71,-30.16 42.76,-45.22 9.74,-12.17 31.59,-40.67 42.89,-49.17 -0.16,-0.16 -3.64,-21.39 -24.18,-5.09 -8.25,6.55 -116.73,202.24 -318.12,173.74 -64.2,-9.08 -86.59,-34.09 -127.48,-58.26z"/>
    <path className="fil2" d="M1306 823.8c27.07,0.52 41.54,-13.75 67.13,-21.28 114.67,-33.7 115.31,-19.36 188.5,23.62 -5.57,2.37 -115.49,-4.58 -157.04,-2.65 37.44,-8.02 124.9,8.92 163.82,16.04 -19.54,21.22 -101,43.38 -140.9,43.96 -43.86,0.64 -111.24,-17.57 -147.29,-35.71 8.39,3.4 0.78,2.39 0.73,-9.57 -16.22,8.19 -10.19,6.33 -15.82,15.26 98.8,26.38 148.51,63.98 274.45,11.53 76.8,-31.99 33.05,-10.86 76.09,-11.17 8.63,-0.06 6.83,-0.65 10.95,-2.54 -1.18,-0.78 -2.98,-3.3 -3.62,-2.19l-36.05 -11.97c-15.93,-6.1 -21.12,-15.26 -32.48,-24.76 -76.13,-63.73 -196.9,-25.29 -248.47,11.44z"/>
    <path className="fil2" d="M793.36 347.94c-2.9,18.11 -54.21,4 -68.46,2.48 -26.54,-2.81 -54.18,-0.97 -80.7,-0.23 52.78,1.77 111.97,3.94 155.2,18.83 -66.57,52.95 -217.06,51.68 -287.58,6.66 17.8,-21.42 97.5,-48.91 132.9,-57.65 91.83,-22.66 100.78,21.87 148.64,29.9zm0 0c-57.51,-65.53 -157.29,-42.83 -231.54,-9.49l-56.78 31.61c-7.78,7.65 -2.3,0.86 -6.76,8.86 84.3,45.25 182.36,51.34 272.67,13.54 76.52,-32.03 34.2,-9.41 75.81,-10.61 10.96,-0.32 4.32,0.42 10.43,-2.94l-14.5 -7.12c-7.66,-2.62 -14.88,-3.4 -20.7,-5.25 -16.58,-5.28 -18.5,-9.35 -28.62,-18.61z"/>
    <path className="fil2" d="M766.78 1019.23c-3.99,-5.33 -5.78,-8.4 -11.23,-15.02 -10.05,-12.19 -1.05,-4.8 -14.56,-13.18 12.17,29.21 33.16,45.96 41.5,85.64 -48.82,-8.1 -77.76,-21.53 -103.37,-57.76 -21.5,-30.41 -34.92,-82.18 -32.47,-125.93 34.13,9.86 69.8,38.72 95.64,56.82 27.94,19.59 49.26,48.75 46.73,102.47 -9.57,-10.78 -11.8,-19.09 -22.24,-33.05zm21.79 65.97c5.52,23.15 1.01,19.5 16.01,24.26 0.38,-0.76 1.75,-111.23 -38.76,-151.95 -20.89,-21.01 -89.05,-64.39 -127.63,-77.49 -0.45,115.32 40.05,193.64 150.39,205.18z"/>
    <path className="fil2" d="M1765.13 1287.1c-5.05,-16.58 -6.65,-10.52 -18.08,-25.27 37.75,-10.33 73.96,-26.45 116.45,-30.57 68.41,-6.64 65.81,15.48 96.61,39.69 -38.32,-6.41 -50.32,-11.59 -92.63,-9.12 31.27,10.18 67.75,11.27 99.08,25.84 -10.93,11.87 -29.54,17.42 -45.51,26.2 -74.45,40.95 -122.64,-15.07 -155.92,-26.77zm0 0c4,11.4 -1.33,3.83 8.23,12.49 25.85,23.45 75.69,40.86 115.96,34.93 29.86,-4.4 74.73,-37 85.27,-38.73 22.7,-3.74 6.75,11.06 29.16,2.21 -7.24,-16.2 -16.66,-12.03 -49.17,-44.5 -16.56,-16.54 -30.91,-30.29 -65.95,-31.84 -44.55,-1.95 -122.33,23.06 -153.97,39.07 9.63,13.3 12.66,20.33 30.49,26.36z"/>
    <path className="fil2" d="M2893.13 1212.32c16.21,4.09 149.89,-9.19 196.15,29.25 -92.45,60.16 -136.51,61.83 -258.16,45.38 8.62,-10.14 2.82,-6.07 15.11,-13.45l110.59 -30.83c-41.32,1.02 -78.69,17.32 -117.43,24.2 9.99,-22.37 13.46,-12.27 19.71,-34.09 -36.61,25.07 -22.9,37.97 -60.76,55 -24.57,11.06 -18.31,9.92 -18.7,17.69 51.86,-19.82 17.51,-19.33 75.2,-7.51 25.92,5.32 67.36,9.76 95.1,6.71 45.54,-5.02 134.25,-42.89 153.31,-68.62 -55.19,-22.54 -142.36,-47.65 -210.11,-23.74z"/>
    <path className="fil2" d="M1080.23 1287.36c30.72,-7.53 43.95,-22.34 86.93,-13.31 -9.74,5.88 -19.29,12.18 -26.24,17.22l-23.58 20c-0.49,-0.95 -1.85,2.24 -2.72,3.4 21.58,-12.45 39.48,-27.53 63.96,-36.42 -5.37,34.24 -42.49,106.29 -58.81,121.63 -22.51,21.18 -77.43,47.3 -119.43,60.61 5.57,-39.19 13.21,-63.38 29.44,-98.92 6.61,-14.47 15.28,-31.99 21.55,-40.2l14.8 -16.51c1.85,-2 6.85,-6.85 7.72,-7.87 8.31,-9.71 1.37,1.22 6.37,-9.63zm0 0c-44.16,12.31 -84.47,120.78 -88.19,183.09 100.39,-19.17 147.49,-71.28 181.96,-151.43 25.26,-58.73 -4.74,-33.1 50.35,-61.68 -5.03,-4.76 10.44,-16 -31.3,2.8 -29.56,13.3 -94.14,-8.02 -112.81,27.23z"/>
    <path className="fil2" d="M3002.07 940.64c-26.29,1.71 -72.86,30.68 -110.84,35.73l-5.87 -10.66c-5.77,-15.27 -2.81,-34.84 9.43,-58.89 29.5,-57.89 126.29,-77 188.37,-81.41 -13.89,36.08 -32.86,46.81 -35.45,68.87 16.68,-17.37 36.04,-47.42 45.69,-74.89 -81.92,-0.87 -193.19,26.07 -215.05,112.3 -4.34,17.1 -2.72,32.37 -9.19,47.41 -6.57,15.27 -16.25,19.11 -17.57,36.35 20.55,-6.09 10.23,-16.27 26.09,-27.64 10.71,-7.67 82.7,-12.87 124.39,-47.18z"/>
    <path className="fil2" d="M2045.15 638.54c18.83,-10.31 8.88,-22.44 3.89,-45.04 -12.79,-57.74 -4.77,-123.73 23.06,-172.21 54.65,-95.24 146.35,-83.99 170.38,-92.15 -216.66,-15.89 -234.88,239.91 -197.32,309.4z"/>
    <path className="fil2" d="M0.01 1060.93l0 15.26 76.58 -25.75c-24.06,-3.75 -41.37,10 -65.12,16.13 2.67,-30.19 38.12,-115.93 98.17,-132.25 22.94,-6.23 48.63,-4.69 73.61,-4.56 -11.15,9.35 -7.55,5.76 -24.06,12.58 -9.51,3.93 -17.12,7.49 -25.2,11.7 -22.23,11.55 -31.08,19.45 -45.94,31.73 41.77,-20.84 59.91,-30.58 112.36,-45.31 -6.86,25.33 -16.82,20.15 -22.79,47.78 19.29,-15.56 23.24,-35.98 33.61,-45.59 13.51,-12.55 5.73,4.56 16.76,-13.51l-9.85 -3.14c-116.11,-11.34 -156.09,-0.16 -200.33,99.02 -3.21,7.19 -5.33,12.09 -7.98,17.69l-3.5 7.42c-4.42,8.51 -4.31,7.64 -6.31,10.8z"/>
    <path className="fil0" d="M2963.93 1027.94c-49.83,6.86 -108.57,37.38 -196.99,-21.3 -105.34,-69.9 -80.76,-128.43 -123.42,-122.83 34.91,82.68 151.86,185.01 272.85,163.28 21.2,-3.8 37.23,-8.97 47.55,-19.16z"/>
    <path className="fil2" d="M1983.71 571.76l19.9 0.24c10.11,15.66 2.05,14.96 19.63,17.9 2.94,-23.73 -19.81,-117.64 -53.43,-151.22 -37.87,-37.83 -100.11,-38.6 -159.98,-49.69 -0.77,14.96 14.46,11.33 30.71,12.86 34.53,3.22 73.37,11.39 103.14,27.17 36.41,19.29 56.33,61.8 61.1,112.3 -1.06,-0.95 -2.59,-3.94 -3.06,-3.02 -0.46,0.91 -2.33,-2.32 -2.96,-3.02 -0.6,-0.68 -2.02,-2.19 -2.76,-3.02l-36.15 -26.2c19.13,21.72 30.59,36.96 40.52,57.87 -31.54,-3.13 -6.89,0.3 -16.65,7.84z"/>
    <path className="fil2" d="M657.09 1742.86l36.24 -16.31 -12.81 43.41c11.11,-20.56 12.6,-30.26 28.03,-48.23 40.73,160.7 -70.82,243.68 -74.29,279.27 68.29,-62.38 96.14,-159.51 86.44,-256.77 -2.28,-22.95 -9.85,-25.81 2.16,-45.53 9.94,-16.3 21.19,-15.25 12.04,-30.45 -11.56,12.24 -19.87,30.5 -32.29,41.22 -18.4,15.88 -31.51,13.68 -45.52,33.38z"/>
    <path className="fil0" d="M1174.71 100.58c24.23,23.1 113.61,54.58 96.66,195.43 -6.87,57.13 -25.57,55.7 -4.82,70.67 50.59,-72.41 -4.35,-263.93 -91.84,-266.1z"/>
    <path className="fil2" d="M3008.94 229.1c6.94,11.59 7.28,29.44 12.07,45.92l5.13 -15.2c7.91,-86.06 28.62,-52.5 6.33,-149.4 -6.92,12.97 -2.82,12.36 0.9,27.67 7.95,32.66 1.66,53.66 -7.99,81.44l-22.41 -91.59c1.09,38.45 28.5,87 5.97,101.17z"/>
    <path className="fil2" d="M236.61 1395.28l57.36 0.02c-1.11,1.92 -2.73,2.06 -3.33,4.17l-26.93 23.98c11.75,-5.07 26.86,-14.53 34.98,-21.59l10.26 11.82c0.47,0.56 1.52,1.97 2.33,2.93l2.78 -17.75c7.23,-3.03 8.74,-3.31 14.29,-6.33l16.42 -11.78c-3.42,-1.32 -4.77,-3.24 -10.13,-2.09 -3.58,0.76 -6.61,3.04 -9.71,4.52 -38.77,18.3 -48.81,-6.66 -88.31,12.11z"/>
    <path className="fil3" d="M1174.71 100.58c-6.19,-11.88 2.72,-4.79 -14.35,-11.91 -24.7,-10.3 -86.46,-2.23 -115.56,14.34 117.51,-20.97 72.72,-0.73 129.91,-2.43z"/>
    <path className="fil2" d="M1868.42 498.48l-65.96 -90.81c-12.36,-13.75 -1.19,-10.93 -12.07,-3.27 13.66,26.99 36.54,50.61 53.38,72.06 2.65,3.38 6.94,9.9 8.99,12.13 12.86,14.06 2.37,5.72 15.67,9.88z"/>
    <path className="fil2" d="M1937.82 555.77c1.18,-19.24 -12.4,-4.86 -50.37,-44.99l-19.04 -12.29c9.44,25.66 41.65,42.82 69.41,57.29z"/>
    <path className="fil4" d="M1979.91 1222.69c-7.8,-12.44 2.01,-2.83 -11.85,-14.67 -15.65,-13.35 -37.89,-18.76 -59.22,-18.47l71.07 33.15z"/>
    <path className="fil4" d="M234.54 903.34l-41.15 -92.01c0.64,18.31 20.45,68.88 29.43,81.22 11.47,15.79 3.92,5.27 11.72,10.79z"/>
    <path className="fil3" d="M2936.08 816.93c12.3,-2.96 10.05,4.92 22.53,-23.85 6.4,-14.77 8.39,-19.56 9.84,-36.43 -8.34,16.23 -26.19,44.15 -32.37,60.28z"/>
    <path className="fil4" d="M165.08 1286.47c-10.79,-21.54 -15.69,-29.35 -32.56,-43.11 8.58,27.01 15.19,33.83 32.56,43.11z"/>
    <path className="fil2" d="M2341.57 540.33l19.28 -6.49 -39.53 -27.43c9.32,23.83 20.97,15.65 20.17,24.19 -2.3,24.46 -10.93,-9 0.08,9.74z"/>
    <path className="fil2" d="M259.64 939.89c-3.76,-9.97 -5.07,-12.67 -10.79,-20.92 -0.4,-0.56 -6.36,-8.29 -6.68,-8.65 -3.95,-4.4 -6.33,-5.84 -7.63,-6.97 2.45,12.65 0.24,7.86 8.81,20.91 1.41,2.16 5.33,7.83 6.72,9.21 8.32,8.31 0.45,1.73 9.57,6.42z"/>
    <path className="fil2" d="M2979.23 420.59c11.66,-9.32 9.85,-9.74 19.09,-28.05 6.78,-13.42 9.45,-17.76 12.98,-33.74l-32.06 61.79z"/>
    <path className="fil4" d="M2992.28 1009.66l27.14 -23.1c-7.46,1.94 -8.6,0.05 -16.47,7.54 -11.22,10.67 -4.65,5.18 -10.67,15.57z"/>
    <path className="fil2" d="M1998.79 1245.7c-7.75,-22.87 -1.16,-12.31 -18.06,-21.45 4.92,7.11 0.94,3.13 7.19,10.77l5.1 5.83c0.67,0.71 2.27,1.95 2.83,2.49 0.56,0.56 1.97,1.56 2.94,2.36z"/>
    <path className="fil2" d="M2963.93 1027.94c27.62,-6.2 20.75,-10.13 26.67,-17.72l-26.67 17.72z"/>
   </g>
   <g>
    <path className="fil5" d="M2385.37 2267.48c-8.73,-96.48 127.41,-88.7 122.45,-11.94 -5.15,79.74 -114.68,97.88 -122.45,11.94zm168.14 -59.69c-22,-68.84 80.34,-85.41 90.7,-29.81 13.19,70.84 -75.61,77.03 -90.7,29.81zm-3.42 -143.85l8.13 5.37c21.81,8.76 21.18,2.44 36.32,19.11 -6.91,3.81 -0.63,5.58 -15.11,3.21l-62.75 -10.27c10.17,-26.81 53.95,-40.22 81.54,-43 27.37,-2.76 18.65,-2.44 23.64,8.27l-71.76 17.3zm-289.59 -23.26c9.19,-7.69 -11.75,-5.02 16.74,-6.79 19.24,-1.2 73.74,15.16 89.23,43.6 -18.66,2.96 -26.6,0.08 -44.25,3.62 -2.64,0.53 -17.77,5.54 -18.26,5.56 -22.49,1.2 -3.59,4.8 -17.58,-7.9l46.27 -14.23c-21.66,-15.12 -53.11,-12.18 -72.16,-23.88zm-45.42 23.45c23.37,5.83 27.23,2.31 39.28,23.66 12.68,22.47 9.56,34.26 5.3,60.19 26.54,-2.83 48.76,-5.21 62.91,14.63 14.96,20.98 9.86,44.04 -2.03,58.82 -29.37,36.5 -83.33,16.46 -80.12,-48.28l-35.18 11.91 1.98 40.69c7.59,-5.01 -15.01,-14.94 12.6,-1.84 52.55,156 317.13,182.59 430.06,22.93l20.7 -33.04 3.81 -37.86c-52.42,-13.82 -70.1,-81.52 -17.26,-108.06 81.15,-40.77 109.51,43.18 121.48,59.57 27.27,-104.61 -33.61,-341.74 -216.67,-380.25 -6.3,-1.35 -8.67,-1.56 -14.47,-2.66 -32.72,-17.12 -138.58,-22.27 -180.71,-12.63l-34.29 14.31c-48.67,15.95 -92.68,88.99 -113.21,134.06 -48.12,105.71 -27.24,65.74 -49.86,137.82 -5.14,16.34 -13.18,3.61 -3.98,25.48 8.02,19.07 32.08,7.13 49.66,20.55z"/>
    <path className="fil5" d="M2705.55 2092.11c26.2,8.78 29.31,21.08 30.8,85.94 2.11,91.09 -60.69,182.26 -159.8,211.63 -49.86,7.36 -68.12,25.49 -138.15,25.24 -65.7,-0.24 -95.6,-22.6 -135.57,-26.04 -23.87,-4.58 -57.35,-20.8 -75.52,-35.43 -0.97,-0.78 -2.29,-1.95 -3.21,-2.78 -88.31,-79.14 -96.07,-235.35 -51.87,-262.71l-12.36 -2.42c-75.06,14.79 -70.73,153.33 -58.39,220.15 17.24,93.38 58.15,140.58 106.49,182.63 -0.51,39.22 -23.15,71.05 -19.52,111.74 6.72,35.37 29.27,83.01 52.95,109.01 81.25,14.31 387.49,16.38 453.99,-17.82 11.39,-91.21 -22.9,-147.52 -31.28,-192.7 31.23,-21.13 71.93,-70.54 92.58,-121.28 35.57,-87.42 38.54,-328.71 -76.73,-303.28 -79.74,17.6 -28.71,100.87 18.03,92.03l10.35 -29.12 -30.24 -23.58 27.43 -21.2z"/>
    <path className="fil6" d="M2170.05 2731.69c9.48,-26.93 102.27,-5.76 130.88,-3.94 104.98,6.63 253.9,5.06 358.22,-13.37 35.38,-6.26 40.32,-13.42 53.41,13.03 49.06,42.55 -27.71,67.51 -76.22,161.8 -13.21,25.69 -12.77,56.89 -20.64,74.29 -39.27,35.21 -271.15,31.41 -323.91,5.3 -31.11,-15.4 -15.49,-56.97 -56.07,-127.72 -43.84,-76.42 -92.15,-66.95 -65.67,-109.38zm-93.2 50.84c16.46,18.44 6.86,20.7 14.85,44.66 0.52,1.53 1.34,3.25 1.86,4.59 0.52,1.34 1.75,3.3 2.22,4.36 0.46,1.04 1.34,3.02 2.41,4.24l3.41 -26.99c0.07,-22.93 1.24,-25.8 28.43,-32.5 51.48,-12.69 87.23,53.71 90.11,74.09 19.21,15.15 45.88,87.67 37.35,113.67 -47.11,3.48 -97.85,-15.79 -135.25,-10.63 -42.96,5.94 -62.51,51.74 -119.55,36.78 -34.86,-22.68 -33.3,-64.43 -49.53,-104.41 -19.13,-47.11 -64.74,-53.26 -67.69,-89.81 33.39,-10.97 22.21,10.42 40.67,-13.8 -16.18,-6.9 -13.64,-8.56 -11.69,-28.58 27.49,-1.33 15.98,4.45 39.69,9.38 -2.6,-35.41 -25.55,-74.8 31.61,-44.52 1.53,-38.72 4.88,-65.08 46.78,-61.87 8.48,9.99 42.4,108.5 44.31,121.35zm914.35 13.92c12.39,-12.19 8.07,-10.32 25.65,-3.73 -1.02,43.75 -44.98,34.03 -65.88,89.12 -16.43,43.33 -18.76,78.94 -47.48,105.67 -67.39,11.4 -78.38,-33.89 -125.47,-37.89 -43.43,-3.7 -103.47,29.69 -141.75,16.18 -9.4,-41.23 15.02,-81.56 35.51,-102.57 15.05,-33.91 50.02,-59.71 69.49,-94.21l58.62 13.71 0.7 21.88c-0.06,24.03 -4.32,14.46 7.87,29 11.09,-20.92 -3.27,-28.79 15.26,-49.53l46.82 -130.35c44.55,-7.45 45.14,22.15 47.33,59.34 30.32,-7.77 -2.66,-10.44 33.58,-9.84 6.23,24.02 2.03,30.78 -3.92,57.16 26.53,-9.29 17.77,-14.4 43.11,-7.85 -0.8,21.87 -4.01,21.5 -14.42,34.2 6.47,10.44 -1.15,2.7 14.98,9.7zm-198.41 -628.87l1.27 -117.75c46.17,4.97 71.88,19.96 72.17,62.85 12.12,19.85 3.75,57.29 -9.63,77.61 -12.63,19.18 -32.83,31.41 -67.35,35.82l3.54 -58.53zm-711.87 51.93c-40.13,-9.06 -59.15,-38.54 -58.31,-89.26 0.84,-51.25 26.2,-73.68 72.14,-80.33 -1.27,62.82 -7.18,109.68 -13.83,169.59zm221.92 169.37c39.97,3.44 69.87,25.8 135.57,26.04 70.03,0.25 88.29,-17.88 138.15,-25.24 24.56,-29.69 72.96,-43.3 98.75,-130.31 5.49,-18.49 6.26,-29.92 9.42,-49.07 7.77,-47.08 -1.84,-13.82 21.11,-33.49 34.21,-29.33 2.11,-42.73 -0.28,-84.71l-27.43 21.2 30.24 23.58 -10.35 29.12c-46.75,8.84 -97.77,-74.43 -18.03,-92.03 115.27,-25.43 112.3,215.86 76.73,303.28 -20.65,50.75 -61.35,100.15 -92.58,121.28 8.39,45.18 42.67,101.49 31.28,192.7 -66.5,34.21 -372.74,32.13 -453.99,17.82 -21.65,-1.94 -47.81,-2.85 -61.25,-10.42 -7.74,-30.63 -4.03,-75.63 8.3,-98.59 -3.63,-40.68 19.01,-72.52 19.52,-111.74 -48.34,-42.05 -89.25,-89.26 -106.49,-182.63 -12.34,-66.82 -16.68,-205.35 58.39,-220.15 29.76,-29.42 82.15,-5.81 89.12,27.4 9.29,44.29 -37.55,70.7 -58.16,50.05 -22.2,-24.05 12.47,-33.2 25.81,-44.71 -12.25,-7.54 -9.65,-3.26 -19.77,-10.01 -18,-12.02 5.88,-1.07 -15.12,-12.87 -2.55,5.04 -10.88,42.12 -11.42,48.46 -2.25,26.73 1.17,18.92 12.43,38.2 16.09,27.57 12.58,126.83 87.22,182.36l21.98 14.88c1.04,0.79 2.81,2.38 3.65,3.04l7.21 6.56zm367.75 -175.09c-17.82,118.5 -94.44,186.91 -226.09,187.88 -61.92,0.45 -119.41,-12.26 -159.03,-47.16 -45.62,-40.19 -56.4,-52.16 -78.24,-128.75l-1.98 -40.69 35.18 -11.91c10.02,-10.04 10.82,-13.19 19.24,-25.17 4.26,-25.94 7.38,-37.72 -5.3,-60.19 -12.06,-21.35 -15.91,-17.82 -39.28,-23.66 -56.71,-9.62 -87.04,12.78 -108.67,40.4 -4.22,-89.93 20.46,-185.88 62,-250.47 38.58,-59.99 104.42,-112.81 198.34,-122.16 243.37,1.84 446.02,107.89 411.86,395.54 -11.97,-16.39 -40.33,-100.34 -121.48,-59.57 -52.84,26.54 -35.16,94.24 17.26,108.06l-3.81 37.86zm-725.2 698.36c16.54,43.04 21.29,94.93 69.74,99.43 58.48,5.42 73.58,-44.76 130.67,-40.43 23.66,1.8 48.54,8.35 72.46,10.31 35.94,2.96 47.37,-7.09 76.99,1.57 122.95,35.96 196.41,16.29 316.56,0.4 27.08,-3.58 51.08,-1.52 77.38,-6.08 23.23,-4.04 51.86,-12.8 73.68,-14.33 61.14,-4.31 142.6,117.56 187.12,-34.92l15.81 -35.3c0.4,-51.07 60.67,-41.58 66.51,-100.09 -3.96,-14.5 -13.78,-1.62 -28.44,-35.08 -9.1,-20.77 -3.37,-21 -34.92,-23.33 -0.24,-17.99 2.13,-27.1 -9.7,-38.42 -14.41,-13.79 -16.13,-0.76 -31.59,-21.95 -15.35,-21.02 -18.59,-42.83 -60.15,-33.37 -30.73,13.76 -15.94,60.47 -60.25,131.16 -19.44,-7.14 -91.37,-13.08 -97.6,-92.3 -11.39,-145 -1.82,-53.89 -28.31,-173.22 79.73,-102.55 100.19,-101.04 111.53,-262.61 25.04,-14.76 87.2,-15.55 91.11,-101.26 3.54,-77.71 -27.19,-91.39 -91.83,-107.78 -30.38,-307.18 -308.07,-312.26 -425.41,-316.54 -57.39,7.61 -103.66,26.98 -142.17,55.05 -110.36,80.45 -104.52,197.81 -131.53,262.21 -53.7,15.23 -82.26,30.5 -84.09,94.92 -2,69.87 27.84,82.93 70.65,107.43 30.36,151.1 19.64,162.32 114.2,256.65 -3.26,36.68 -20.04,85.29 -26.4,128.63 -10.12,68.92 10.47,43 -12.96,107.56 -4.67,12.85 -4.17,18.53 -7.41,33.63l-48.95 14.73c-37.51,-46.14 -26.52,-86.78 -54.21,-128.29 -27.09,-6.24 -47.04,-2.54 -59.96,16.29 -29.42,42.86 9.87,13.4 -41.48,35.32l-9.82 39.86c-32.55,3.34 -23.25,1.2 -33.16,26.01 -11.36,28.41 4.73,3.56 -28.76,28.32 3.76,63.99 56.47,40.56 74.68,115.81z"/>
    <path className="fil7" d="M2170.05 2731.69c28.86,37.27 46.51,-15.16 129.86,104.53 38.37,55.09 77.89,76.1 145.44,86.58 111.17,17.27 117.89,-43.88 183.94,-100.31l76.61 -72.85c7.74,-12.65 7.83,5.33 6.66,-22.24 -13.09,-26.45 -18.03,-19.28 -53.41,-13.03 -104.32,18.44 -253.24,20 -358.22,13.37 -28.61,-1.82 -121.4,-22.98 -130.88,3.94z"/>
    <path className="fil8" d="M2170.05 2731.69c-26.48,42.43 21.83,32.96 65.67,109.38 40.58,70.75 24.96,112.32 56.07,127.72 52.76,26.12 284.63,29.91 323.91,-5.3 7.87,-17.4 7.43,-48.6 20.64,-74.29 48.51,-94.29 125.28,-119.25 76.22,-161.8 1.17,27.57 1.07,9.59 -6.66,22.24l-76.61 72.85c-66.05,56.43 -72.77,117.58 -183.94,100.31 -67.55,-10.48 -107.07,-31.49 -145.44,-86.58 -83.35,-119.69 -100.99,-67.26 -129.86,-104.53z"/>
    <path className="fil5" d="M2823.71 2784.08c-11.07,45.29 0.41,202.78 72.78,139.23 20.92,-18.38 26.34,-54.32 39.35,-74.75 17.08,-26.81 49.94,-19.19 70.82,-49.87l-15.45 -2.24c-16.13,-7 -8.52,0.73 -14.98,-9.7 10.41,-12.7 13.62,-12.33 14.42,-34.2 -25.34,-6.55 -16.58,-1.44 -43.11,7.85 5.95,-26.38 10.15,-33.15 3.92,-57.16 -36.24,-0.59 -3.26,2.07 -33.58,9.84 -2.19,-37.18 -2.78,-66.79 -47.33,-59.34l-46.82 130.35z"/>
    <path className="fil9" d="M1926.15 2786.77c13.1,12.28 11.38,-19.44 10.26,23.33 -44.46,-6.45 -19.63,-11.49 -38.67,4.54 35.24,14.67 47.3,11.04 65.12,41.87 13.17,22.79 21.76,55.7 44.59,69.56 77.56,47.07 71.89,-130.56 69.41,-143.54 -1.91,-12.85 -35.83,-111.36 -44.31,-121.35 -41.9,-3.21 -45.25,23.15 -46.78,61.87 -57.16,-30.28 -34.21,9.11 -31.61,44.52 -23.71,-4.93 -12.2,-10.71 -39.69,-9.38 -1.95,20.02 -4.49,21.68 11.69,28.58z"/>
    <path className="fil10" d="M1926.15 2786.77c-18.46,24.22 -7.27,2.82 -40.67,13.8 2.95,36.55 48.55,42.7 67.69,89.81 16.23,39.98 14.67,81.73 49.53,104.41 57.04,14.96 76.59,-30.84 119.55,-36.78 37.4,-5.17 88.14,14.11 135.25,10.63 8.53,-25.99 -18.14,-98.52 -37.35,-113.67l4.97 16.75c-27.56,8.82 -12.39,13.31 -38.48,28 -78.18,44.04 -61.68,-67.04 -85.03,-86.34l-3.41 26.99c-1.07,-1.21 -1.95,-3.19 -2.41,-4.24 -0.47,-1.05 -1.7,-3.02 -2.22,-4.36 -0.53,-1.35 -1.35,-3.06 -1.86,-4.59 -7.99,-23.95 1.61,-26.22 -14.85,-44.66 2.48,12.98 8.15,190.61 -69.41,143.54 -22.83,-13.86 -31.42,-46.76 -44.59,-69.56 -17.82,-30.83 -29.87,-27.2 -65.12,-41.87 19.04,-16.03 -5.79,-10.98 38.67,-4.54 1.12,-42.77 2.84,-11.05 -10.26,-23.33z"/>
    <path className="fil10" d="M2800.59 2804.61c-19.41,35.3 -24.36,36.74 -25.07,92.01 -50.27,21.62 -79.57,6.63 -103.74,-33.4 -20.49,21.02 -44.91,61.34 -35.51,102.57 38.28,13.51 98.32,-19.88 141.75,-16.18 47.09,4 58.08,49.29 125.47,37.89 28.72,-26.73 31.05,-62.34 47.48,-105.67 20.9,-55.09 64.86,-45.37 65.88,-89.12 -17.57,-6.6 -13.26,-8.46 -25.65,3.73l15.45 2.24c-20.88,30.68 -53.74,23.06 -70.82,49.87 -13.01,20.43 -18.43,56.37 -39.35,74.75 -72.36,63.55 -83.84,-93.94 -72.78,-139.23 -18.52,20.74 -4.17,28.61 -15.26,49.53 -12.19,-14.54 -7.92,-4.97 -7.87,-29z"/>
    <path className="fil10" d="M2670.59 2213.8l-20.7 33.04c-112.93,159.66 -377.51,133.07 -430.06,-22.93 -27.61,-13.09 -5.01,-3.16 -12.6,1.84 21.84,76.6 32.63,88.57 78.24,128.75 39.62,34.9 97.11,47.61 159.03,47.16 131.64,-0.97 208.26,-69.38 226.09,-187.88z"/>
    <path className="fil10" d="M2215.09 2064.13c-17.58,-13.42 -41.64,-1.49 -49.66,-20.55 -9.19,-21.86 -1.16,-9.14 3.98,-25.48 22.62,-72.08 1.74,-32.11 49.86,-137.82 20.53,-45.07 64.53,-118.11 113.21,-134.06l34.29 -14.31c-93.92,9.35 -159.76,62.17 -198.34,122.16 -41.54,64.59 -66.22,160.54 -62,250.47 21.63,-27.62 51.96,-50.02 108.67,-40.4z"/>
    <path className="fil11" d="M2302.84 2388.88l-7.21 -6.56c-0.84,-0.66 -2.62,-2.25 -3.65,-3.04l-21.98 -14.88c-74.64,-55.53 -71.13,-154.79 -87.22,-182.36 -11.27,-19.28 -14.68,-11.47 -12.43,-38.2 0.54,-6.34 8.87,-43.41 11.42,-48.46 21.01,11.8 -2.88,0.86 15.12,12.87 10.13,6.76 7.52,2.48 19.77,10.01 -13.34,11.51 -48.01,20.67 -25.81,44.71 20.61,20.65 67.45,-5.76 58.16,-50.05 -6.97,-33.2 -59.37,-56.82 -89.12,-27.4l12.36 2.42c-44.2,27.37 -36.44,183.57 51.87,262.71 0.92,0.83 2.24,2 3.21,2.78 18.16,14.63 51.65,30.85 75.52,35.43z"/>
    <path className="fil9" d="M2671.78 2863.23c24.17,40.04 53.47,55.02 103.74,33.4 0.72,-55.27 5.67,-56.71 25.07,-92.01l-0.7 -21.88 -58.62 -13.71c-19.47,34.49 -54.44,60.3 -69.49,94.21z"/>
    <path className="fil9" d="M2101.61 2813.38c23.35,19.3 6.85,130.37 85.03,86.34 26.1,-14.69 10.93,-19.18 38.48,-28l-4.97 -16.75c-2.88,-20.38 -38.63,-86.77 -90.11,-74.09 -27.19,6.7 -28.37,9.57 -28.43,32.5z"/>
    <path className="fil12" d="M2576.55 2389.68c99.11,-29.37 161.91,-120.54 159.8,-211.63 -1.5,-64.86 -4.6,-77.16 -30.8,-85.94 2.39,41.98 34.49,55.38 0.28,84.71 -22.94,19.67 -13.34,-13.6 -21.11,33.49 -3.16,19.15 -3.93,30.58 -9.42,49.07 -25.8,87.01 -74.19,100.62 -98.75,130.31z"/>
    <path className="fil13" d="M2080.92 2219.51c6.64,-59.91 12.55,-106.77 13.83,-169.59 -45.94,6.65 -71.3,29.08 -72.14,80.33 -0.84,50.72 18.18,80.19 58.31,89.26z"/>
    <path className="fil14" d="M2490.99 2231.99c-54.47,-45 -117.44,-3.6 -84.97,56.13 25.98,47.79 95.86,22.15 84.97,-56.13z"/>
    <path className="fil15" d="M2553.51 2207.79c15.09,47.22 103.89,41.02 90.7,-29.81 -10.35,-55.59 -112.7,-39.03 -90.7,29.81z"/>
    <path className="fil15" d="M2240.43 2173.16c-3.21,64.74 50.75,84.78 80.12,48.28 11.9,-14.78 17,-37.84 2.03,-58.82 -14.15,-19.85 -36.37,-17.47 -62.91,-14.63 -8.41,11.99 -9.21,15.13 -19.24,25.17z"/>
    <path className="fil16" d="M2792.79 2167.58l69.23 -25.22 4.21 -29.68c-0.28,-42.89 -25.99,-57.88 -72.17,-62.85l-1.27 117.75z"/>
    <path className="fil6" d="M2490.99 2231.99c10.89,78.28 -58.99,103.92 -84.97,56.13 -32.47,-59.72 30.5,-101.13 84.97,-56.13zm-105.61 35.49c7.77,85.93 117.3,67.8 122.45,-11.94 4.96,-76.76 -131.18,-84.54 -122.45,11.94z"/>
    <path className="fil17" d="M2792.79 2167.58l-3.54 58.53c34.52,-4.41 54.72,-16.64 67.35,-35.82 13.37,-20.33 21.75,-57.77 9.63,-77.61l-4.21 29.68 -69.23 25.22z"/>
    <path className="fil18" d="M2241.42 2709.07c-23.68,-26 -46.23,-73.64 -52.95,-109.01 -12.33,22.96 -16.04,67.96 -8.3,98.59 13.44,7.57 39.6,8.48 61.25,10.42z"/>
    <path className="fil6" d="M2621.86 2046.65c-4.99,-10.71 3.73,-11.03 -23.64,-8.27 -27.59,2.78 -71.37,16.19 -81.54,43l62.75 10.27c14.48,2.37 8.21,0.6 15.11,-3.21 -15.13,-16.68 -14.51,-10.35 -36.32,-19.11l-8.13 -5.37 71.76 -17.3z"/>
    <path className="fil6" d="M2260.51 2040.68c19.05,11.7 50.5,8.75 72.16,23.88l-46.27 14.23c13.99,12.7 -4.91,9.1 17.58,7.9 0.49,-0.02 15.61,-5.03 18.26,-5.56 17.66,-3.54 25.59,-0.67 44.25,-3.62 -15.49,-28.44 -69.99,-44.8 -89.23,-43.6 -28.5,1.77 -7.56,-0.9 -16.74,6.79z"/>
   </g>
   <g>
    <path className="fil19" d="M742.86 2312.55c16.73,-1.08 19.61,-4.16 31.25,-9.83 -5.7,-18.87 0.79,-3.19 -8.39,-15.82 -37.3,-51.3 7.92,-108.38 38.37,-129.44 104.74,-72.47 158.31,36.02 76.81,109.48 -13.02,11.73 -30.93,25.92 -53.54,31.62 -48.93,12.36 -23.57,-9.01 -61.52,26.41 39.9,40.94 148.55,53.55 214.87,37.55 72.33,-17.45 129.22,-65.32 160.67,-111.66 60.31,-88.85 66.53,-214.1 2.82,-305.49 -23.05,-33.07 -33,-45.74 -67.22,-71.12 -198.57,-147.09 -475.05,26.87 -433.23,267.13 15.68,90.07 52.6,119.16 99.11,171.18z"/>
    <path className="fil20" d="M556.78 2158.38c46.97,-13.19 48.67,-4.72 77.34,13.28 -82.61,-351.57 386.24,-503.02 538.13,-209.7 137.4,265.33 -168.39,533.79 -411.88,379.32 -21.02,-13.35 -23.74,-16.14 -57.08,-13.29 -24.22,2.05 -36.05,8.03 -44.32,26.11 30.93,25.02 50.48,43.83 95.31,66.31 139.7,70.04 129.38,11.77 184.91,9.46 41.55,-1.74 36.74,21.29 58.79,18.81 67.58,-7.57 155.92,-70.83 200.99,-127.73 84.73,-107.02 102.92,-260.74 41.78,-382.96 -132.88,-265.57 -482.43,-263.87 -626.86,-43.99 -56.85,86.55 -64.99,147.68 -57.11,264.38z"/>
    <path className="fil21" d="M975.68 2511.84c-34.8,83.83 -161.68,101.48 -127.84,6.33 28.5,-80.08 170.33,-108.72 127.84,-6.33zm-369.37 -227.51c21.66,-31.56 28.89,-31.77 37.88,-83.44 26.84,67.97 49.98,74.2 75.68,111.55 -51.71,1.38 -43.15,8.67 -73.27,25.55 -13.32,-12.23 -31.58,-34.58 -40.3,-53.66zm17.85 -56.89c-30.71,89.57 -162.38,109.52 -131.83,16.64 10.01,-30.45 40.02,-58.39 68.42,-69.91 46.07,-18.68 79.81,5.47 63.41,53.27zm278 -20.32c-8.07,28.04 -39.17,61.12 -65.36,72.21 -43.81,18.57 -82.15,-0.81 -67.31,-50.75 25.25,-84.96 159.66,-115.22 132.67,-21.47zm-159.29 105.42c-46.51,-52.03 -83.43,-81.11 -99.11,-171.18 -41.82,-240.26 234.66,-414.22 433.23,-267.13 34.23,25.38 44.18,38.05 67.22,71.12 63.7,91.38 57.48,216.64 -2.82,305.49 -31.45,46.34 -88.34,94.22 -160.67,111.66 -66.32,16 -174.96,3.39 -214.87,-37.55 37.96,-35.41 12.59,-14.05 61.52,-26.41 22.62,-5.7 40.52,-19.9 53.54,-31.62 81.49,-73.46 27.92,-181.95 -76.81,-109.48 -30.45,21.06 -75.67,78.14 -38.37,129.44 9.19,12.63 2.69,-3.05 8.39,15.82 -11.64,5.67 -14.52,8.75 -31.25,9.83zm-186.09 -154.17c-7.89,-116.7 0.25,-177.83 57.11,-264.38 144.43,-219.88 493.98,-221.58 626.86,43.99 61.14,122.22 42.95,275.94 -41.78,382.96 -45.06,56.9 -133.4,120.16 -200.99,127.73 -22.05,2.48 -17.24,-20.55 -58.79,-18.81 -55.54,2.32 -45.21,60.58 -184.91,-9.46 -44.83,-22.48 -64.37,-41.29 -95.31,-66.31 8.26,-18.08 20.09,-24.06 44.32,-26.11 33.34,-2.85 36.05,-0.06 57.08,13.29 243.5,154.48 549.29,-113.99 411.88,-379.32 -151.9,-293.32 -620.74,-141.86 -538.13,209.7 -28.68,-18 -30.37,-26.47 -77.34,-13.28zm-14.05 4.08c-14.79,16.15 -39,21.05 -59.67,64.08 -27.73,57.73 6.8,77.81 12.87,91.19 -38.32,30.6 -72.08,-1.44 -110.57,26.06 -37.2,26.56 -26.52,53.63 -37.34,101.26 -13.63,59.93 -85.12,23.51 -124.55,82.47 -8.45,12.66 -19.73,43.7 0.61,53.11 8.94,-10.93 -3.71,-59.59 58.52,-74.8 45.42,-11.1 70.79,-12.15 80.64,-58.58 8.39,-39.56 -1.32,-80.71 41.19,-96.26 47.32,-17.33 59.86,19.47 108.1,-30.64 57.66,1.24 53.15,-13.73 81.26,-23.57 9.88,11.9 14.45,19.99 24.3,32.29 8.23,10.24 19.45,19.84 17.6,33.45 -20.05,147.27 -34.81,77.38 -109.37,122.43 -12.94,7.82 -20.03,13.47 -27.99,29.02 -3.62,7.07 -6.12,13.75 -6.86,22.61 -1.87,22.19 4.19,22.57 8.88,25.94 15.83,-12.55 -3.8,-34.66 27.35,-59.88 20.83,-16.87 35.67,-14.7 63.46,-21.87 57.87,-14.93 46.35,-59.61 58.28,-113 60.53,41.83 65.47,58.4 147.87,86.91 13.06,4.51 55.7,13.1 61.88,16.56 -5.9,12.38 -46.64,56.79 -26.88,98.48 8.91,18.79 13.97,6.09 17.16,27.7 -36.39,23.81 -71.66,-1.08 -109.66,23.85 -34.22,22.46 -26.74,54.06 -37.23,100.89 -15.27,68.19 -77.73,15.33 -124.08,83.28 -8.65,12.69 -19.19,40.83 -0.96,52.56 12.88,-9.21 4.16,-4.67 7.32,-24.88 1.68,-10.74 5.1,-18.19 9.38,-24.37 32.44,-46.7 107.09,-9.43 123.39,-83.5 9.22,-41.92 3.28,-82.82 41.01,-97.06 39.71,-14.95 92.96,12.86 105.76,-31.1 72.6,4.93 136.44,-53.01 132.17,-132.8 313.59,-66.05 403.61,-479.67 142.54,-672.52 -122.96,-90.84 -294.12,-100.67 -429.29,-13 -27.61,17.91 -57.48,39.72 -75.29,62.82 -73.06,94.67 -112.3,178.69 -91.82,320.88z"/>
    <path className="fil21" d="M551.51 2603.19c91.49,-27.7 66.55,103.59 -20.4,130.32 -93.83,28.84 -69.77,-103.02 20.4,-130.32zm-73.79 144.3c-22.29,33.18 -72.54,0.49 -110.9,29.01 -38.13,28.35 -24.56,53.91 -36.8,101.65 -15.66,61.16 -86.66,21.24 -124.13,83.04 -6.25,10.29 -13.07,29.26 -8.95,40.69 3.92,10.82 0.95,6.82 10.9,10.12 6.97,-11.4 -4.4,-60.12 59.39,-75.13 44.91,-10.57 69.63,-11.1 78.78,-59.18 8.39,-44.01 1.78,-82.54 42.66,-95.56 49.78,-15.87 58.43,19.57 107.61,-30.63 101.53,9.01 174.06,-133.48 97.91,-162.92 -45.53,-17.62 -96.79,24.24 -111.47,43.89 -10.44,13.99 -23,33.13 -26.07,54.96 -5.49,39.23 11.71,43.17 21.06,60.06z"/>
    <path className="fil22" d="M975.68 2511.84c42.49,-102.38 -99.34,-73.75 -127.84,6.33 -33.84,95.15 93.04,77.49 127.84,-6.33z"/>
    <path className="fil23" d="M624.16 2227.44c16.39,-47.8 -17.34,-71.95 -63.41,-53.27 -28.4,11.52 -58.41,39.46 -68.42,69.91 -30.55,92.88 101.12,72.93 131.83,-16.64z"/>
    <path className="fil24" d="M551.51 2603.19c-90.18,27.29 -114.23,159.15 -20.4,130.32 86.95,-26.73 111.89,-158.01 20.4,-130.32z"/>
    <path className="fil24" d="M902.16 2207.13c26.99,-93.75 -107.42,-63.5 -132.67,21.47 -14.84,49.94 23.5,69.31 67.31,50.75 26.19,-11.1 57.29,-44.18 65.36,-72.21z"/>
    <path className="fil25" d="M606.31 2284.33c8.71,19.09 26.98,41.43 40.3,53.66 30.12,-16.88 21.55,-24.17 73.27,-25.55 -25.7,-37.35 -48.84,-43.58 -75.68,-111.55 -8.99,51.67 -16.22,51.88 -37.88,83.44z"/>
   </g>
  </g>
 </g>
</svg>
