<?xml version="1.0" encoding="UTF-8"?>
<!DOCTYPE svg PUBLIC "-//W3C//DTD SVG 1.1//EN" "http://www.w3.org/Graphics/SVG/1.1/DTD/svg11.dtd">
<!-- Creator: CorelDRAW 2018 (64-Bit) -->
<svg xmlns="http://www.w3.org/2000/svg" xml:space="preserve" width="5.2797mm" height="5.2768mm" version="1.1" style="shape-rendering:geometricPrecision; text-rendering:geometricPrecision; image-rendering:optimizeQuality; fill-rule:evenodd; clip-rule:evenodd;"
viewBox="0 0 123.01 122.95"
 xmlns:xlink="http://www.w3.org/1999/xlink">
 <g id="Layer_x0020_1">
  <metadata id="CorelCorpID_0Corel-Layer"/>
  <g id="_2071617985600">
   <path class="fil0 str0" d="M54.97 11.69c26.39,-4.14 52.08,15.17 56.35,43.18 4.07,26.73 -16.22,53.21 -43.27,56.48 -29.99,3.63 -53.21,-18 -56.47,-43.17 -2.09,-16.2 3.71,-29.81 11.01,-38.61 7.28,-8.78 16.91,-15.45 32.37,-17.88zm65.44 54.46c1.03,-8.14 -1.1,-18.62 -3.55,-25.47 -10.47,-29.24 -44.31,-46.38 -76.35,-34.59 -7.5,2.76 -13.26,6.7 -18.47,11.11 -17.39,14.7 -24.81,41.35 -15.97,65.26 10.96,29.63 44.37,45.98 76.22,34.42 21.37,-7.76 35,-25.94 38.13,-50.73z"/>
   <path class="fil0 str0" d="M56.55 68.62c-1.68,-1.92 -4.1,-4.07 -6.01,-5.97 -1.42,-1.42 -4.49,-5.22 -6.78,-5.51 -4.22,-0.55 -6.52,3.67 -4.47,6.92l12.08 12.22c1.95,1.91 4.39,5.04 7.97,2.53l24.35 -24.23c1.66,-1.63 5.13,-4.05 4.75,-7.43 -0.39,-3.52 -4.72,-4.92 -7.57,-2.6 -3.41,2.77 -21.73,22.43 -24.32,24.08z"/>
  </g>
 </g>
</svg>
