<?xml version="1.0" encoding="UTF-8"?>
<!DOCTYPE svg PUBLIC "-//W3C//DTD SVG 1.1//EN" "http://www.w3.org/Graphics/SVG/1.1/DTD/svg11.dtd">
<!-- Creator: CorelDRAW 2018 (64-Bit) -->
<svg xmlns="http://www.w3.org/2000/svg" xml:space="preserve" width="10.2002mm" height="10.5066mm" version="1.1" style="shape-rendering:geometricPrecision; text-rendering:geometricPrecision; image-rendering:optimizeQuality; fill-rule:evenodd; clip-rule:evenodd"
viewBox="0 0 342.15 352.43"
 xmlns:xlink="http://www.w3.org/1999/xlink">
 <defs>
  <style type="text/css">
   <![CDATA[
    .fil0 {fill:#FF6600}
   ]]>
  </style>
 </defs>
 <g id="Layer_x0020_1">
  <metadata id="CorelCorpID_0Corel-Layer"/>
  <path class="fil0" d="M82.82 348.29c-38.77,-13.85 -66.91,-48.33 -78.06,-95.59 -5.06,-21.45 -6.49,-56.91 -2.29,-56.91 1.39,0 5.11,9.73 8.27,21.62 6.9,26.01 18.68,50.48 30.05,62.43 18.89,19.86 65.68,27.64 92.64,15.4 21,-9.53 29.52,-32.2 20.38,-54.24 -7.05,-17.04 -23.06,-22.73 -52.88,-18.82 0,0 -18.27,-19.67 -24.1,-54.61l18.73 1.7c22.56,2.05 39.6,-2.94 48.44,-14.18 8.31,-10.56 8.13,-14.65 -1.12,-25.4 -13.34,-15.51 -37.3,-11.58 -85.8,14.07l-24.47 -41.02 10.26 -7.83c25.71,-19.61 70.35,-29.41 95.76,-21.03 23.14,7.64 40.12,37.94 35.59,63.5 -3.07,17.28 -16.92,41.48 -27.63,48.25l-9.23 5.84 12.75 5.75c21.67,9.77 34.9,2.3 50.7,-28.62 21.87,-42.8 36.05,-53.88 69.04,-53.92 15.36,-0.02 20.82,1.59 32.02,9.44 27.96,19.59 43.18,60.16 39.83,106.16 -4.24,58.26 -31.83,93.6 -73.09,93.6 -22.65,0 -37.24,-7.94 -48.86,-26.59 -10.21,-16.38 -14.81,-48.81 -8.95,-63.08 2.81,-6.85 3.32,-7.08 3.51,-1.6 0.34,10.07 11.79,26.43 22.31,31.87 25.8,13.34 62.84,-3.42 77.49,-35.07 11.13,-24.03 5.16,-70.38 -10.11,-78.55 -3.2,-1.71 -11.09,-3.11 -17.55,-3.11 -13.72,0 -24.49,9.86 -39.6,36.25 -5.22,9.12 -14.01,20.91 -19.53,26.19 -8.97,8.59 -12.17,9.61 -30.11,9.61l-20.07 0 6.49 14.41c9.29,20.63 8.85,54.14 -0.98,74.54 -8.68,18.03 -28.75,36.28 -44.8,40.74 -15.62,4.34 -41.06,3.78 -55.03,-1.21zm75.58 -278.79c-8.88,-15.15 -14.34,-43.44 -8.39,-43.44 6.99,15.17 21.32,28.7 36.67,38.14 27.56,13.34 55.51,7.96 86.04,-16.58 6.72,-5.4 12.68,-9.22 13.23,-8.49 7.45,11.57 20.35,21.03 24.61,34.47 0,5.68 -24.42,22 -43.69,29.21 -47.76,13.76 -80.27,8.32 -108.47,-33.32zm24.07 -35.02l31.09 -34.48 34.55 31.99c-11.82,9.74 -20.35,24.85 -33.85,32.51 -10.67,-7.87 -26.59,-17.14 -31.8,-30.01z"/>
 </g>
</svg>
