<?xml version="1.0" encoding="UTF-8"?>
<!DOCTYPE svg PUBLIC "-//W3C//DTD SVG 1.1//EN" "http://www.w3.org/Graphics/SVG/1.1/DTD/svg11.dtd">
<!-- Creator: CorelDRAW 2018 (64-Bit) -->
<svg xmlns="http://www.w3.org/2000/svg" xml:space="preserve" width="16.4419mm" height="16.4419mm" version="1.1" style="shape-rendering:geometricPrecision; text-rendering:geometricPrecision; image-rendering:optimizeQuality; fill-rule:evenodd; clip-rule:evenodd"
viewBox="0 0 473.59 473.59"
 xmlns:xlink="http://www.w3.org/1999/xlink">
 <defs>
  <style type="text/css">
   <![CDATA[
    .str0 {stroke:#D9754D;stroke-width:2.19;stroke-miterlimit:22.9256;stroke-opacity:0.749020}
    .fil16 {fill:none}
    .fil6 {fill:#181319;fill-opacity:0.749020}
    .fil4 {fill:#493A45;fill-opacity:0.749020}
    .fil14 {fill:#612312;fill-opacity:0.749020}
    .fil5 {fill:#6B5567;fill-opacity:0.749020}
    .fil13 {fill:#8C6F71;fill-opacity:0.749020}
    .fil11 {fill:#A12215;fill-opacity:0.749020}
    .fil3 {fill:#B78D74;fill-opacity:0.749020}
    .fil9 {fill:#C23825;fill-opacity:0.749020}
    .fil7 {fill:#C64B35;fill-opacity:0.749020}
    .fil10 {fill:#CDB3AF;fill-opacity:0.749020}
    .fil15 {fill:#D4CED1;fill-opacity:0.749020}
    .fil0 {fill:#D9754D;fill-opacity:0.749020}
    .fil1 {fill:#E2B38B;fill-opacity:0.749020}
    .fil8 {fill:#E89968;fill-opacity:0.749020}
    .fil2 {fill:#F4D3B4;fill-opacity:0.749020}
    .fil12 {fill:#FBE8D8;fill-opacity:0.749020}
   ]]>
  </style>
   <clipPath id="id0">
    <path d="M236.8 0c130.78,0 236.8,106.02 236.8,236.8 0,130.78 -106.02,236.8 -236.8,236.8 -130.78,0 -236.8,-106.02 -236.8,-236.8 0,-130.78 106.02,-236.8 236.8,-236.8z"/>
   </clipPath>
 </defs>
 <g id="Layer_x0020_1">
  <metadata id="CorelCorpID_0Corel-Layer"/>
  <g>
  </g>
  <g style="clip-path:url(#id0)">
   <g>
    <path class="fil0" d="M305.15 739.31c24.66,54.39 53.5,85.75 37.17,158.64 -6.12,27.31 -27.46,104.21 -29.51,127.69 -1.42,16.36 2.06,37.17 1.18,50.55l4.48 12.24c-6.92,2.59 -27.08,16.12 -30.33,20.84 -14.51,4.94 -25.88,17.1 -40.17,23.07 -19.8,8.27 -31.16,2.64 -49.53,-2.42l0.12 0.75 -1.81 -6.53c3.23,-1.47 10.77,-2.52 10.93,-8.1 0.17,-5.83 -1.25,-5.72 -2.78,-8.17l-7.7 1.93c-0.48,0.22 -1.32,0.96 -2.03,1.35l-20.68 -2.13c-8.96,-6.69 -3.13,-0 -5.12,-7.57 8.52,-4.33 26.42,-18.6 30.3,-26.31 6.6,-3.1 4.16,-0.51 7.42,-7.43l15.26 -13.17c4.55,-2.51 3.01,0.01 5.94,-6.46 8.72,-10.55 12.39,-10.56 13.19,-30.17 1.19,-29.15 -7.35,-94.35 -11.27,-123.01 -5.19,-37.96 -0.53,-95.85 -12.77,-120.55 -5.36,-10.82 -8.74,-17.85 -10.48,-32.15 2.75,-11.23 -1.02,-7.09 15.91,-8.58 7.4,-0.65 10.95,-0.89 18.79,-1.6 10.42,-0.94 23.08,-3.19 31.11,-7.71l0.39 3.06c11.3,-7.12 14.17,-1.39 17.06,-9.82 0.59,0.46 1.18,1.39 1.47,1.68 0.25,0.26 1.03,1.2 1.32,1.46 10.61,9.73 1.42,2.53 5.44,-0.45 13.1,-9.76 -8.01,1.57 2.87,-2.52l3.83 21.58z"/>
    <path class="fil1" d="M212.84 406.43l-3.97 4.29c-2.69,4.73 -1.09,0.54 -1.66,6.94 7.19,-3.16 7.17,-1.75 10.62,-9.65l-4.99 -1.58zm-22.91 -67.97c3.98,8.55 2.45,5.87 8.28,14.37 5.34,7.79 0.29,4.48 8.08,8.64l0.85 39.51c2.41,6.85 -0.84,3.74 5.7,5.44 0.21,-0.63 0.54,-1.45 0.65,-1.89l1.03 -4.05c1.09,-6.61 0.06,2.58 0.54,-4.61 0.3,-4.46 -0.14,-10.4 -0.25,-14.91 6.81,-3.66 9.83,-3.03 19.81,-0.63 7.31,1.75 9.92,2.94 16.64,7.81 12.78,9.26 10.61,18.85 20.16,28.02 10.53,9.13 7.26,56 5.36,72.5 -2.75,23.99 -0.54,52.79 -0.87,77.67 -0.69,52.7 -3.05,103.57 -3.14,157.96 -8.04,4.53 -20.69,6.78 -31.11,7.71 -7.84,0.7 -11.39,0.95 -18.79,1.6 -16.94,1.48 -13.17,-2.66 -15.91,8.58 -15.35,-18.32 -23.98,-44.59 -32.1,-66.75 -5.06,-13.79 -22.55,-61.09 -22.23,-73.19l2.26 -30.98c7.63,3.44 4.17,7.64 8.01,13.61 -0.15,-11.71 1.16,-13.11 2.34,-23.97l0.24 -73.4c1.94,3.06 1.01,0.31 2.17,5.84 3.31,15.76 -4.62,31.77 5.52,36.21l-0.23 -42.26c4.73,5.52 3.61,10.45 3.68,10.79 1.65,8.16 -2.81,2.13 1.99,9.85l-0.66 -40.89 1.68 3.57c0.18,0.56 0.5,1.33 0.67,1.98l2.77 28.06c3.63,42.64 -1.56,29.71 9.93,32.15 6.62,-14.52 -0.19,-60.73 -3.87,-78.98 -3,-14.9 -6.93,-61.94 -18.08,-73.48 -0.1,24.63 3.52,42.2 5.78,65.73 -0.65,-0.64 -4.16,-2.77 -4.66,-2.98l-2.6 -0.57c-5.69,-1.52 1.47,4.38 -4.63,-2.13 -3.45,-3.68 -1.59,-4.82 -13.27,-12.43l16.44 -13.57 2.67 -77.03 7.67 1.02c-5.42,5.5 -4.48,7.72 0.32,13.73 3.09,-13 -0.33,-8.87 11.15,-13.64z"/>
    <path class="fil0" d="M228.09 335.61l-21.82 7.63c7.09,5.84 20.39,8.87 21.82,-7.63zm74.52 -327.21c10.14,11.37 0.68,4.73 15.23,12.13 7.93,4.03 10.27,4.73 14.72,12.97l-5.1 0.01c10.62,9.66 13.58,24.28 17.47,38.66 2.31,8.52 1.73,15.52 4.56,24.73 3.02,9.8 4.79,6.44 9.26,23.8 1.2,4.65 -0.2,0.89 0.97,2.54 8.1,11.5 2.77,-1.46 14.04,24.85 8.42,19.64 17.65,33.91 11.28,44.62 -5.95,9.99 -2.42,7.66 -6.37,20.08 -0.26,0.83 -1.3,3 -1.54,3.82 -4.29,14.66 3.08,5.86 -4.41,26.59 -3.61,9.98 -4.79,11.7 -13.23,18.65l-37.15 30.97c-16.22,10.19 -12.24,4.18 -9.53,8.42 -8.76,7.81 -3.33,1.45 -0.01,4.87l-15.8 11.27c-2.94,3.97 -1.1,1.53 -5.42,2.75l-8.11 -0.5c-4.42,6.41 -9.99,15.27 -11.56,22.04l-2.87 9.77 -22.33 23.01c-10.41,5.12 -18.85,3.1 -25.72,-2.92 -6.67,-5.85 10.81,-2.66 -7.56,-6.17l-7.17 -3.87c-7.79,-4.17 -2.74,-0.86 -8.08,-8.64 -5.84,-8.5 -4.3,-5.82 -8.28,-14.37 -4.83,-7.71 -3.27,-0.36 -2.18,-10.69l6.29 0.27c19.45,-3.84 25.61,-19.73 43.92,-19.91 21.24,2.78 25.58,0.56 34.54,-12.76 12.78,-4.37 44.57,-54.15 77.43,-83.38l-42.64 -65.19c-3.63,6.71 -7.53,14.23 -12.24,19.86 -36.73,-8.43 -45.23,-38.94 -54.7,-44.89 -0.23,-8.42 -3.75,-12.7 -4.07,-25.25 -0.28,-10.76 1.23,-18.54 4.37,-27.54 5.23,-14.98 14.7,-29.76 23.99,-36.67 8.97,-2.02 7.95,-3.45 14.98,-7.45 5.06,-2.88 10.54,-4.41 16.55,-5.5 -7.02,-6.62 9.88,-5.93 -12.43,-5.65 -3.29,0.04 -16.75,3.73 -21.49,13.23 -6.08,4.62 -20.83,17 -27.7,18.36 -10.49,-3.18 -5.93,-4.63 -4.91,-15.63 -8.16,0.59 -17.78,2.76 -21.44,1.25 7.34,-2 2.28,2.58 5.68,-5.93 9.5,-7.92 14.43,-5.44 16.72,-21.03 1.61,-10.98 0.46,-30.74 -0.13,-42.27l3.1 -1.54 1.38 30.86c11.25,-0.86 15.38,-3.64 22.89,-9.66 22.29,-17.88 9.65,-17.82 24.66,29.31 16.93,2.05 15.36,1.35 20.12,-2.28z"/>
    <path class="fil2" d="M264.62 32.32c-9.29,6.92 -18.76,21.69 -23.99,36.67 -3.14,9 -4.64,16.78 -4.37,27.54 0.32,12.54 3.84,16.83 4.07,25.25l1.33 7.89c-2.76,1.2 -10.37,10.25 -13.26,14.57 -9.84,14.68 5.12,13.02 -7.74,10.07 -1.69,2.34 -13.14,5.92 -13.94,6.18 -10.79,3.46 -21.63,2.29 -32.1,-2.46 -4.44,-2.01 -9.04,-5.1 -13.84,-3.78 8.11,10.59 20.56,15.27 38.82,15.63 -0.48,10.09 -2.71,10.92 -5.35,18.41 -8.73,24.77 -9.52,96.29 7.55,128.71 -4.72,13.02 1.64,-3.71 -5.99,6.05 -3.3,4.23 -3.54,-2.38 -1.8,5l-6.29 -0.27c-32.76,-3.78 -65.73,9.9 -98.41,2.53 -14.07,-3.17 0.84,-2.41 -14.03,-2.48 2.05,-5.69 5.72,-40.15 6.06,-49.46 7.24,-3.02 5.66,-2.89 7.77,-11.76 2.17,-9.06 0.7,-6.34 4.1,-14.38 4.04,-9.56 7.92,-18.51 10.14,-27.77 0.52,-6.33 -0.12,-2.57 1.79,-7.63l1.58 -3.53c6.77,-14.19 26.64,-38.35 29.82,-51.17 -5.36,-8.28 -35.6,-20.35 -21.05,-62.78 5.08,-14.82 34.25,-34.48 50.81,-40.6 -2.14,4.9 -2.65,6 -4.17,12.05 25.32,11.31 64.94,-8.79 72.38,-25.47 6.86,-1.36 21.62,-13.74 27.7,-18.36l5.72 -0.77c-4.07,2.66 -1.03,2.56 -3.33,6.14z"/>
    <path class="fil3" d="M305.15 739.31l-3.83 -21.58c-10.88,4.09 10.23,-7.24 -2.87,2.52 -4.02,2.99 5.17,10.18 -5.44,0.45 -0.29,-0.26 -1.07,-1.2 -1.32,-1.46 -0.29,-0.29 -0.88,-1.22 -1.47,-1.68 -2.89,8.43 -5.76,2.7 -17.06,9.82l-0.39 -3.06c0.08,-54.39 2.44,-105.26 3.14,-157.96 0.33,-24.88 -1.88,-53.68 0.87,-77.67 1.9,-16.51 5.17,-63.38 -5.36,-72.5 -0.9,-12.24 -0.44,-10.64 -5.76,-17.82 4.03,-15.95 3.06,15.23 4.68,-9.61l-0.42 -5.14c-2.01,-18.51 2.84,-25.64 -0.86,-32.19l2.87 -9.77c8.64,-8.28 11.99,-14.87 19.67,-21.53 4.32,-1.21 2.48,1.23 5.42,-2.75 6.71,19.7 47.53,42.23 51.75,76.3 5.15,41.58 -26.59,67.27 -31.14,97.86 -4.95,33.34 -2.03,89.15 -3.87,125.33 -1.73,33.97 -11.3,94.69 -8.62,122.45z"/>
    <path class="fil1" d="M295.04 166.67c-8.74,19.3 -24.2,39.42 -36.71,59.42 -22.54,36.05 -7.94,36.13 7.12,60.4 -7.49,2.28 -5.08,4.2 -12.76,10.05 -7.59,5.78 -9.56,3.95 -14.75,11.59 -18.31,0.18 -24.48,16.06 -43.92,19.91 -1.74,-7.38 -1.5,-0.77 1.8,-5 7.63,-9.77 1.27,6.96 5.99,-6.05 -17.07,-32.42 -16.28,-103.94 -7.55,-128.71 2.64,-7.49 4.87,-8.32 5.35,-18.41 -18.26,-0.35 -30.71,-5.03 -38.82,-15.63 4.8,-1.31 9.4,1.77 13.84,3.78 10.47,4.75 21.31,5.91 32.1,2.46 0.8,-0.26 12.24,-3.84 13.94,-6.18 12.86,2.95 -2.11,4.61 7.74,-10.07 2.89,-4.32 10.5,-13.37 13.26,-14.57l-1.33 -7.89c9.48,5.95 17.97,36.45 54.7,44.89z"/>
    <path class="fil2" d="M176.85 446.08l1.11 20.97 0.66 40.89c-4.8,-7.71 -0.34,-1.69 -1.99,-9.85 -0.07,-0.34 1.05,-5.27 -3.68,-10.79l0.23 42.26c-10.14,-4.44 -2.21,-20.45 -5.52,-36.21 -1.16,-5.53 -0.24,-2.78 -2.17,-5.84l-0.24 73.4c-1.19,10.86 -2.5,12.26 -2.34,23.97 -3.84,-5.97 -0.38,-10.16 -8.01,-13.61l-2.26 30.98c-0.47,-0.66 -1.05,-2.5 -1.26,-2.08 -2.41,5.01 -18.9,-85.11 -19.89,-94.8 -1.8,-17.55 -3.22,-36.31 -3.22,-54.52 0,-22.86 7.19,-36.29 -7.93,-46.27 -2.59,-7.25 -13.42,-19.11 -18.61,-22.07 -3.51,-3.52 -5.05,-6.2 -7.47,-10.42 -2.42,-8.01 2.55,-4.48 -3.3,-6.44 0.49,-0.72 2.62,-3.08 2.81,-3.53l-5.91 -9.75 13.93 -1.26c-5.76,-2.21 -11.64,-1.28 -20.8,-5.14l-0.44 -5.34c37.79,8.69 54.95,3.47 90.23,-3.27l-2.67 77.03 -16.44 13.57c11.68,7.61 9.82,8.75 13.27,12.43 6.1,6.51 -1.06,0.61 4.63,2.13l2.6 0.57c0.51,0.21 4.01,2.34 4.66,2.98z"/>
    <path class="fil0" d="M273.58 -147.33c-2.33,-2.16 -0.94,-1.94 -6.25,-4.52 -11.02,-5.35 -21.58,-7.22 -30.72,-1.01 4.06,3.14 -5.16,1.59 7.54,2.77l29.43 2.76zm-4.82 -31.19c10.41,11.42 13.27,10.57 22,24.35 5.63,8.89 11.12,21.6 11.92,31.96l17.2 0.21c5.44,4.72 7.01,4.96 5.4,15.82 -1.36,9.19 -5.08,11.4 -10.44,14.47 -2.17,-4.37 3.08,-3.68 -6.37,-2.97l3.81 -5.44c5,-8.84 3.92,-8.96 2.88,-14.86 -5.59,-0.2 -8.88,-0.89 -13.05,6.6 -1.53,2.75 -2.75,2.47 -1.41,6.9 3.39,11.27 -3.2,4.9 9.1,6.45 -3.52,8.79 -9.83,3.47 -11.08,3.3 -7.16,-0.99 -1.19,-4.2 -13.56,0.29 -0.04,-6.58 0.3,-11.77 -1.03,-18.29l-7.37 -15.13c2.54,-14.08 -38.46,-20.59 -39.29,3.22l-3.52 12.9 16.4 4.63c-4.26,2.22 -3.78,2.82 -3.93,8.9l0.49 4.95c-9.96,-2.03 -15.34,-3.59 -26.61,0.61 -7.61,2.84 7.74,3.78 -12.69,3.1l-12.14 -0.69c15.93,0.06 18.5,0.62 31.63,3.95 5.49,6.58 -3.76,0.93 5.21,6.55l-3.68 2.42 -13.37 -2.3c-4.77,-9.23 -1.66,-6.63 -15.59,-7.32 -7.42,5.87 -2.36,-2.05 -3.34,9.53 -4.19,-4.32 -1.38,5.28 -4.53,-6.18 -23.7,1.77 7.89,6.98 -8.19,4.76 -5.84,-7.33 -6.74,-15.95 -7.17,-30.21l7.01 -13.43 1.63 3.72c2.67,6.11 -6.16,3.49 6.05,6.76 5.64,1.51 7.85,0.12 13.58,-0.44l-2.47 -11.51c-2.7,-10.65 -0.5,-11.91 -8.94,-17.71l-14.55 -1.57 0.07 -8.84c8.17,-0.62 14.81,-0.01 21.15,-3.79 -8.93,-7.53 -9.14,-5.43 -20.6,-1.1 -1.34,-15.9 6.39,-27.02 14.8,-38.11 5.08,2.98 -2.05,1.24 5.13,1.34 0.21,0 4.7,-0.81 5.49,-0.99 23.37,-5.27 27.21,-0.04 36.52,-3.05 6.85,6.56 -0.58,0.61 7.65,5.26 2.57,1.45 4.67,2.12 7.47,3.51 6.85,3.4 6.81,3.99 12.36,7.48z"/>
    <path class="fil4" d="M378.94 -152.91c-15.01,-10.95 -13.76,6.31 -27.04,12.43 -17.64,-6.58 -21.88,-4.21 -33.59,-18.44 -7.59,-9.23 -3.18,-9.23 -8.85,-3.49l-1.96 -3.6c-5.06,-11.04 -4.02,-14.26 -12.18,-23.05 -0.32,-0.35 -1.02,-0.99 -1.56,-1.45 -4.49,-8.49 -15.38,-16.41 -25.44,-20.02 0.56,-0.36 1.49,-0.52 1.89,-0.65 5.71,-2.02 12.27,-3.42 14.03,-9.98 0.05,-0.18 0.06,-0.91 0.1,-1.09 0.04,-0.16 -0,-0.87 0.03,-1.03 2.14,-8.74 7.6,0.23 8.43,-23.14 10.06,-0.96 5.21,-2.22 17.31,-2.53 12.94,-5.03 13.24,9.99 28.27,17.24 20.67,9.98 5.61,-0.58 17.31,14.45l11.44 12.79c17.35,26.74 6.43,9.61 11.79,51.58z"/>
    <path class="fil5" d="M310.13 -248.97c-12.1,0.31 -7.25,1.58 -17.31,2.53 -0.83,23.37 -6.29,14.4 -8.43,23.14 -0.03,0.16 0.01,0.86 -0.03,1.03 -0.04,0.18 -0.05,0.91 -0.1,1.09 -1.76,6.56 -8.32,7.96 -14.03,9.98 -0.39,0.14 -1.33,0.29 -1.89,0.65l-14.06 -2.98c-31.32,-1.75 -44.15,7.24 -60.14,21.44 -8.41,11.09 -16.14,22.21 -14.8,38.11l-0.54 4.89 -0.07 8.84 14.55 1.57 -16.68 0.48c0.21,17.48 -1.37,1.85 7.3,7.98l-0.47 10.72 -7.01 13.43c-4.19,-20.16 -11.79,-8.24 -10.97,-30.82l0.69 -33.82c0.06,-9.33 7.98,-39.13 12.48,-45.03 2.77,-3.63 1.77,-1.66 5.45,-5.22l24.19 -20.78c0.17,-0.12 6.4,-3.19 6.98,-3.47 24.11,-11.89 17.36,-2.19 34.29,-10.21 9.56,-4.52 17.31,-4.74 29.54,-2.67 16.2,2.75 15.63,-1.07 23.09,2.42 8.19,3.84 5.45,3.87 7.99,6.67z"/>
    <path class="fil6" d="M378.94 -152.91l-5.68 34.76c-4.28,10.74 -2.94,0.4 -7.94,12.51 -10.11,24.44 5.91,10.68 -18.98,25.84 -6.14,3.74 -7.28,6.74 -13.19,10.53 -9.72,6.25 -24,7.74 -38.5,8.68 -0.28,-10.6 1.85,-17.42 5.63,-24.48 9.64,0.16 10.24,-1.24 14.54,-6.64 5.36,-3.08 9.08,-5.29 10.44,-14.47 1.61,-10.86 0.04,-11.1 -5.4,-15.82l-6.87 -4.68 -3.54 -35.74c5.66,-5.73 1.25,-5.73 8.85,3.49 11.71,14.23 15.95,11.86 33.59,18.44 13.28,-6.12 12.03,-23.38 27.04,-12.43z"/>
    <path class="fil0 str0" d="M309.79 -95.03l-1.33 0.36c9.45,-0.71 4.2,-1.4 6.37,2.97 -4.3,5.4 -4.9,6.8 -14.54,6.64l-9.39 -1.18c-2.32,16.76 -12.79,23.3 -23.55,29.93 -7.58,4.67 -25.19,15.34 -33.79,16.49l-3.1 1.54c-25.11,15.72 -42.7,-20.31 -46.88,-37.54 16.08,2.23 -15.51,-2.99 8.19,-4.76 3.15,11.46 0.35,1.86 4.53,6.18 9.15,13.62 2.51,16.44 27.14,15.07 -15.06,-5.9 7.77,-0.07 -19.25,-8.51l11.44 -4.06c-0.54,-0.31 -1.43,-0.79 -1.93,-1.08l-3.56 -2.11 13.99 -0.04c5.62,6.15 -6.91,4.09 6.44,5.3 -8.16,4.25 -4.09,2.26 -5.93,9.51 9.93,-3.93 15.29,-11.35 20.76,-22.76l-18.32 -0.2c-13.13,-3.33 -15.7,-3.89 -31.63,-3.95l12.14 0.69c20.43,0.69 5.08,-0.26 12.69,-3.1 11.28,-4.2 16.65,-2.64 26.61,-0.61l-0.49 -4.95c0.16,-6.08 -0.33,-6.67 3.93,-8.9 3.68,-3.64 7.66,-2.58 11.35,-2.97l1.92 -2.71c7.19,-3.62 3.66,-0.15 6.96,-6.64 0.73,-1.42 0.86,-6.16 1.05,-7.79l5.13 -0.64 7.37 15.13c1.33,6.52 0.99,11.71 1.03,18.29 12.37,-4.49 6.4,-1.28 13.56,-0.29 1.24,0.17 7.56,5.5 11.08,-3.3z"/>
    <path class="fil7" d="M312.82 306.1c-3.33,-3.42 -8.75,2.94 0.01,-4.87 -2.71,-4.24 -6.69,1.77 9.53,-8.42l37.15 -30.97c8.44,-6.95 9.62,-8.67 13.23,-18.65 7.49,-20.74 0.12,-11.93 4.41,-26.59 0.24,-0.82 1.27,-2.99 1.54,-3.82 3.95,-12.41 0.42,-10.09 6.37,-20.08 6.37,-10.71 -2.86,-24.98 -11.28,-44.62 -11.28,-26.31 -5.95,-13.35 -14.04,-24.85 -1.17,-1.65 0.23,2.11 -0.97,-2.54 -4.47,-17.36 -6.24,-14 -9.26,-23.8 -2.83,-9.2 -2.25,-16.21 -4.56,-24.73 -3.89,-14.37 -6.85,-29 -17.47,-38.66l5.1 -0.01c21.14,14.39 20.17,50.8 33.68,75.07 15.18,27.28 23.11,46.64 33.89,78.73 10.35,30.81 19.13,36.14 -19.18,74.75 -12.44,12.54 -54.03,39.58 -68.13,44.07z"/>
    <path class="fil2" d="M174.49 1109.03c4.93,3.71 -5.05,1.01 8.08,4.62 1.97,0.54 9.03,0.65 11.06,0.78 -0.66,11 -4.4,12.98 4.93,16.24l-0.12 -0.75c0.53,0.54 1.39,0.52 1.7,1.51l7.23 4.64c4.47,2.14 8.69,3.13 12.62,5.13 1.01,24.96 -2.35,19.11 -5.3,19.11l23.12 -0.73 -0.93 4.97c-12.91,0.8 -63.1,4.48 -70.45,-3.98 -0.3,-0.79 -0.86,-2.75 -1.05,-2.3 -0.19,0.43 -0.81,-1.67 -1.07,-2.16l-3.56 -7.05c7.66,-7.76 1.49,-0.17 5.37,-9.22l-20.47 -4.71c-5.04,-7.65 10.33,-5.78 -13.02,-7.3l3.81 -9.91c11.37,-1.16 15.33,-7.17 24.54,-12.25l6.16 -3.13c0.56,-0.29 1.49,-0.73 2.23,-1.1 1.99,7.57 -3.84,0.89 5.12,7.57z"/>
    <path class="fil7" d="M294.65 -60.59c-1.58,27.86 2.6,44.39 7.96,68.98 -4.76,3.63 -3.19,4.34 -20.12,2.28 -15.02,-47.13 -2.37,-47.19 -24.66,-29.31 -7.5,6.02 -11.64,8.8 -22.89,9.66l-1.38 -30.86c8.6,-1.15 26.2,-11.82 33.79,-16.49 10.76,-6.63 21.23,-13.17 23.55,-29.93l9.39 1.18c-3.78,7.06 -5.91,13.88 -5.63,24.48z"/>
    <path class="fil8" d="M234.54 45.31c-7.44,16.68 -47.06,36.78 -72.38,25.47 1.52,-6.05 2.02,-7.15 4.17,-12.05 16.95,-7.81 27.51,-22.06 41.87,-27.8 3.66,1.52 13.28,-0.66 21.44,-1.25 -1.02,11.01 -5.59,12.45 4.91,15.63z"/>
    <path class="fil1" d="M303.76 1125.09l-10.99 4.68c-37.51,9.71 -29.67,28.27 -54.95,29.82l-23.12 0.73c2.95,-0.01 6.31,5.84 5.3,-19.11 -3.93,-2 -8.15,-2.99 -12.62,-5.13l-7.23 -4.64c-0.31,-0.98 -1.17,-0.96 -1.7,-1.51 18.37,5.06 29.74,10.69 49.53,2.42 14.29,-5.97 25.66,-18.13 40.17,-23.07l6.33 -1.94c-1.15,13.12 -1.85,2.9 -0.65,12.61 0.89,7.16 -1.83,5.09 9.93,5.16z"/>
    <path class="fil9" d="M177.96 467.05l-1.11 -20.97c-2.26,-23.53 -5.88,-41.1 -5.78,-65.73 11.15,11.54 15.08,58.58 18.08,73.48 3.68,18.25 10.49,64.46 3.87,78.98 -11.48,-2.44 -6.3,10.48 -9.93,-32.15l-2.77 -28.06c-0.18,-0.65 -0.49,-1.42 -0.67,-1.98l-1.68 -3.57z"/>
    <path class="fil9" d="M189.93 338.46c-11.48,4.77 -8.06,0.65 -11.15,13.64 -4.8,-6.01 -5.73,-8.23 -0.32,-13.73l-7.67 -1.02c-35.29,6.73 -52.45,11.96 -90.23,3.27 -6.47,-4.44 -3.76,-2.32 -5.25,-12.81 14.86,0.07 -0.04,-0.7 14.03,2.48 32.68,7.37 65.65,-6.31 98.41,-2.53 -1.08,10.33 -2.65,2.98 2.18,10.69z"/>
    <path class="fil3" d="M309.47 -162.41l3.54 35.74 6.87 4.68 -17.2 -0.21c-0.8,-10.36 -6.29,-23.07 -11.92,-31.96 -8.73,-13.78 -11.59,-12.93 -22,-24.35 12.2,0.35 19.54,-3.73 25.02,-11.99 0.54,0.46 1.24,1.1 1.56,1.45 8.15,8.79 7.12,12.01 12.18,23.05l1.96 3.6z"/>
    <path class="fil10" d="M268.33 -210.54c10.06,3.61 20.95,11.53 25.44,20.02 -5.48,8.27 -12.81,12.35 -25.02,11.99 -5.55,-3.5 -5.5,-4.08 -12.36,-7.48 -2.8,-1.39 -4.9,-2.06 -7.47,-3.51 -8.23,-4.65 -0.8,1.29 -7.65,-5.26l13.36 2.78c-12.75,-9.15 -5.04,2 -7.6,-8.19l-0.82 -2.06c-2.46,-7.4 -3.12,3.64 0.45,-4.25l0.24 -3.64c12.99,-0.34 3.97,0.35 7.37,-3.38l14.06 2.98z"/>
    <path class="fil8" d="M271.43 416.18c-9.55,-9.18 -7.38,-18.76 -20.16,-28.02 -6.72,-4.87 -9.33,-6.05 -16.64,-7.81 -9.98,-2.4 -13,-3.04 -19.81,0.63l-1.36 -15.63c18.37,3.5 0.88,0.31 7.56,6.17 6.87,6.02 15.31,8.04 25.72,2.92l22.33 -23.01c3.71,6.55 -1.14,13.68 0.86,32.19l0.42 5.14c-1.62,24.84 -0.65,-6.33 -4.68,9.61 5.31,7.18 4.86,5.58 5.76,17.82z"/>
    <path class="fil8" d="M321.48 1105.48c-0.34,12.9 -4.25,19.63 -17.72,19.61 -11.76,-0.06 -9.04,2.01 -9.93,-5.16 -1.21,-9.71 -0.5,0.51 0.65,-12.61l-6.33 1.94c3.25,-4.72 23.41,-18.25 30.33,-20.84l-4.48 -12.24c3.86,3.97 0.67,-1.37 3.3,5.22 1.03,2.59 1.73,6.15 2.18,8.41 1.28,6.3 1.89,9.22 2,15.67z"/>
    <path class="fil2" d="M241.28 -194.78c-9.31,3.01 -13.15,-2.22 -36.52,3.05 -0.79,0.18 -5.28,0.99 -5.49,0.99 -7.18,-0.1 -0.05,1.64 -5.13,-1.34 15.99,-14.2 28.82,-23.19 60.14,-21.44 -3.4,3.73 5.62,3.03 -7.37,3.38l-0.24 3.64c-3.57,7.89 -2.91,-3.15 -0.45,4.25l0.82 2.06c2.56,10.19 -5.15,-0.96 7.6,8.19l-13.36 -2.78z"/>
    <path class="fil9" d="M272.49 295.37c-8.95,13.32 -13.3,15.54 -34.54,12.76 5.19,-7.65 7.16,-5.81 14.75,-11.59 7.68,-5.85 5.27,-7.78 12.76,-10.05l7.03 8.89z"/>
    <path class="fil11" d="M215.24 -76.62l-13.64 -1.67c3.92,4.22 0.95,1.38 8.54,3.18l3.56 2.11c0.5,0.29 1.39,0.77 1.93,1.08l-11.44 4.06c27.02,8.45 4.19,2.62 19.25,8.51 -24.62,1.37 -17.98,-1.45 -27.14,-15.07 0.98,-11.58 -4.08,-3.66 3.34,-9.53 13.93,0.69 10.82,-1.91 15.59,7.32z"/>
    <path class="fil9" d="M213.46 365.34l1.36 15.63c0.11,4.5 0.54,10.45 0.25,14.91 -0.48,7.19 0.55,-2.01 -0.54,4.61l-1.03 4.05c-0.11,0.44 -0.44,1.26 -0.65,1.89 -6.54,-1.71 -3.28,1.41 -5.7,-5.44l-0.85 -39.51 7.17 3.87z"/>
    <path class="fil8" d="M264.62 32.32c2.31,-3.58 -0.74,-3.48 3.33,-6.14l-5.72 0.77c4.74,-9.5 18.2,-13.19 21.49,-13.23 22.31,-0.28 5.4,-0.97 12.43,5.65 -6.01,1.1 -11.48,2.62 -16.55,5.5 -7.03,4 -6.01,5.42 -14.98,7.45z"/>
    <path class="fil3" d="M202.21 -120.95l2.47 11.51c-5.73,0.56 -7.94,1.95 -13.58,0.44 -12.21,-3.27 -3.38,-0.65 -6.05,-6.76 0.38,-3.47 0.32,-7.65 1.42,-10.78 3.32,-9.47 1.56,-3.77 5.82,-7.22 2.18,8.55 2.15,5.06 -0.65,15.43 7.59,-1.71 3.57,-1.64 10.57,-2.63z"/>
    <path class="fil12" d="M81.36 278.36c0.99,-10.91 4.44,-20.26 8.1,-29.64 1.7,-4.35 3.25,-8.27 5.14,-13.33 3.81,-10.25 1.44,-6.96 8.78,-10.93 -2.22,9.25 -6.1,18.21 -10.14,27.77 -3.4,8.04 -1.93,5.31 -4.1,14.38 -2.12,8.87 -0.54,8.74 -7.77,11.76z"/>
    <path class="fil6" d="M276.76 -124.86l-5.13 0.64c-3.3,-5.17 -3.34,-6.05 -12.14,-6.74 -2.33,-0.18 -6.69,0.07 -8.96,0.58 -5.06,1.13 -6.32,2.85 -6.66,3.05l-6.4 5.69c0.83,-23.81 41.83,-17.3 39.29,-3.22z"/>
    <path class="fil11" d="M224.13 -75.15l4.48 0.83 3.68 -2.42c-8.97,-5.62 0.29,0.03 -5.21,-6.55l18.32 0.2c-5.47,11.4 -10.83,18.83 -20.76,22.76 1.84,-7.25 -2.23,-5.27 5.93,-9.51 -13.35,-1.21 -0.82,0.85 -6.44,-5.3z"/>
    <path class="fil7" d="M308.46 -94.67l1.33 -0.36c-12.3,-1.54 -5.71,4.82 -9.1,-6.45 -1.33,-4.43 -0.12,-4.15 1.41,-6.9 4.17,-7.49 7.45,-6.8 13.05,-6.6 1.04,5.9 2.12,6.03 -2.88,14.86l-3.81 5.44z"/>
    <path class="fil6" d="M202.21 -120.95c-7,0.99 -2.98,0.92 -10.57,2.63 2.79,-10.37 2.83,-6.88 0.65,-15.43 -8.88,0.79 -3.66,-1.35 -8.4,3.55 -8.67,-6.13 -7.08,9.5 -7.3,-7.98l16.68 -0.48c8.43,5.8 6.24,7.06 8.94,17.71z"/>
    <path class="fil13" d="M252.02 -117.89l3.21 3.87 3.44 -4.03c8.56,-0.88 6.58,-2.93 6.58,5.43 -1.52,3.04 0.02,3.98 -2.62,6.3 -14.74,-2.17 -18.58,-1.82 -18.47,-18.39l3.43 0.04c0.76,12.23 -0.82,4.23 4.41,6.78z"/>
    <path class="fil14" d="M244.14 -150.09c-12.69,-1.19 -3.48,0.36 -7.54,-2.77 9.13,-6.21 19.7,-4.34 30.72,1.01 5.31,2.58 3.92,2.36 6.25,4.52l-29.43 -2.76z"/>
    <path class="fil12" d="M265.26 -112.62l-1.49 0 -0.15 2.83 -1.92 2.71c-3.68,0.39 -7.66,-0.67 -11.35,2.97l-16.4 -4.63 3.52 -12.9 6.4 -5.69 0.31 2.62c-0.12,16.57 3.73,16.22 18.47,18.39 2.64,-2.32 1.1,-3.26 2.62,-6.3z"/>
    <path class="fil1" d="M195.17 1111.16c14.82,1.3 4.32,-0.63 8.4,5.4 -9.1,6.93 -2.27,0.8 -6.82,7.58l1.81 6.53c-9.33,-3.26 -5.59,-5.24 -4.93,-16.24 -2.03,-0.14 -9.09,-0.24 -11.06,-0.78 -13.13,-3.61 -3.15,-0.91 -8.08,-4.62l20.68 2.13z"/>
    <path class="fil12" d="M94.26 372.1c-5.12,-3.56 -1.84,0.16 -5.68,-4.66 -1.14,-1.43 -3.09,-5.46 -3.68,-6.8 -2.23,-5.1 -2.88,-7.89 -3.9,-14.66 9.16,3.86 15.04,2.93 20.8,5.14l-13.93 1.26 5.91 9.75c-0.2,0.44 -2.32,2.8 -2.81,3.53 5.84,1.96 0.88,-1.57 3.3,6.44z"/>
    <path class="fil12" d="M145.66 1135.14c-8.49,-0.93 -15.93,-2.1 -20.9,-5.39 1.06,-8.89 3.26,-9.33 11.69,-11.82l-3.81 9.91c23.35,1.52 7.98,-0.35 13.02,7.3z"/>
    <path class="fil15" d="M271.62 -124.22c-0.19,1.62 -0.33,6.37 -1.05,7.79 -3.3,6.48 0.23,3.01 -6.96,6.64l0.15 -2.83c2.81,-12.58 1.41,-14.19 -8.99,-17.58 -5.59,2.23 -4.4,1.38 -7.17,5.53l-3.43 -0.04 -0.31 -2.62c0.35,-0.2 1.6,-1.92 6.66,-3.05 2.28,-0.51 6.63,-0.77 8.96,-0.58 8.8,0.69 8.84,1.58 12.14,6.74z"/>
    <path class="fil12" d="M166.43 1160.58c-9.54,-2.17 -9.86,-2.07 -14.57,-8.88 3.29,-8.52 4.76,-9.5 14.26,-11.85 -3.89,9.06 2.29,1.46 -5.37,9.22l3.56 7.05c0.25,0.5 0.88,2.59 1.07,2.16 0.19,-0.45 0.75,1.51 1.05,2.3z"/>
    <path class="fil1" d="M228.09 335.61c-1.42,16.5 -14.73,13.47 -21.82,7.63l21.82 -7.63z"/>
    <path class="fil14" d="M178.79 -149.07l0.54 -4.89c11.47,-4.33 11.68,-6.43 20.6,1.1 -6.34,3.78 -12.98,3.18 -21.15,3.79z"/>
    <path class="fil7" d="M271.94 341.65c1.58,-6.77 7.14,-15.62 11.56,-22.04l8.11 0.5c-7.68,6.67 -11.03,13.25 -19.67,21.53z"/>
    <path class="fil14" d="M263.77 -112.62l1.49 0c-0,-8.36 1.98,-6.31 -6.58,-5.43l-0.21 -5.1c-2.48,0.7 -2.71,0.47 -5.63,2.21 -2.2,-5.35 5.02,-5.61 -5.23,-3.73 2.77,-4.15 1.58,-3.3 7.17,-5.53 10.41,3.39 11.8,5 8.99,17.58z"/>
    <path class="fil8" d="M196.76 1124.14c4.55,-6.78 -2.28,-0.65 6.82,-7.58 -4.08,-6.03 6.42,-4.1 -8.4,-5.4 0.72,-0.39 1.55,-1.14 2.03,-1.35l7.7 -1.93c1.53,2.45 2.95,2.33 2.78,8.17 -0.16,5.58 -7.71,6.63 -10.93,8.1z"/>
    <path class="fil12" d="M120.33 404.59c-9.04,-6.54 -14.4,-12.33 -18.61,-22.07 5.19,2.96 16.02,14.83 18.61,22.07z"/>
    <path class="fil10" d="M212.84 406.43l4.99 1.58c-3.46,7.9 -3.44,6.49 -10.62,9.65 0.56,-6.4 -1.03,-2.21 1.66,-6.94l3.97 -4.29z"/>
    <path class="fil12" d="M185.05 -115.76l-1.63 -3.72 0.47 -10.72c4.74,-4.9 -0.48,-2.76 8.4,-3.55 -4.26,3.44 -2.5,-2.25 -5.82,7.22 -1.09,3.12 -1.04,7.31 -1.42,10.78z"/>
    <path class="fil6" d="M258.68 -118.05l-3.44 4.03 -3.21 -3.87 0.82 -3.05c2.92,-1.74 3.15,-1.51 5.63,-2.21l0.21 5.1z"/>
    <path class="fil12" d="M252.02 -117.89c-5.24,-2.55 -3.65,5.45 -4.41,-6.78 10.25,-1.88 3.04,-1.62 5.23,3.73l-0.82 3.05z"/>
    <path class="fil12" d="M215.24 -76.62l13.37 2.3 -4.48 -0.83 -13.99 0.04c-7.59,-1.8 -4.62,1.04 -8.54,-3.18l13.64 1.67z"/>
    <path class="fil1" d="M208.19 30.93l-0.32 -4.23 5.99 -1.71c-3.4,8.51 1.66,3.93 -5.68,5.93z"/>
    <path class="fil2" d="M199.67 1075.15c4.96,-9.13 -1.82,-2.37 7.42,-7.43 -3.26,6.92 -0.82,4.34 -7.42,7.43z"/>
    <path class="fil1" d="M222.35 1054.55l5.94 -6.46c-2.93,6.47 -1.39,3.95 -5.94,6.46z"/>
   </g>
  </g>
  <path class="fil16" d="M236.8 0c130.78,0 236.8,106.02 236.8,236.8 0,130.78 -106.02,236.8 -236.8,236.8 -130.78,0 -236.8,-106.02 -236.8,-236.8 0,-130.78 106.02,-236.8 236.8,-236.8z"/>
 </g>
</svg>
