<?xml version="1.0" encoding="UTF-8"?>
<!DOCTYPE svg PUBLIC "-//W3C//DTD SVG 1.1//EN" "http://www.w3.org/Graphics/SVG/1.1/DTD/svg11.dtd">
<!-- Creator: CorelDRAW 2018 (64-Bit) -->
<svg xmlns="http://www.w3.org/2000/svg" xml:space="preserve" width="10.3188mm" height="14.5185mm" version="1.1" style="shape-rendering:geometricPrecision; text-rendering:geometricPrecision; image-rendering:optimizeQuality; fill-rule:evenodd; clip-rule:evenodd"
viewBox="0 0 351.17 494.09"
 xmlns:xlink="http://www.w3.org/1999/xlink">
 <defs>
  <style type="text/css">
   <![CDATA[
    .fil2 {fill:#004B75}
    .fil1 {fill:#007CA6}
    .fil3 {fill:#24AED9}
    .fil0 {fill:#55D6EC}
    .fil4 {fill:#F9F9F9}
   ]]>
  </style>
 </defs>
 <g id="Layer_x0020_1">
  <metadata id="CorelCorpID_0Corel-Layer"/>
  <g id="_2071353978960">
   <path class="fil0" d="M97.3 250.35c-6.26,-16.91 3.96,-34.37 19.45,-31.26 3.95,6.42 1.9,14.24 -1.86,20.98 -1.29,2.32 -10.34,11.68 -17.59,10.28zm37.24 -94.1c0.37,38.48 -22.28,45.15 -28.97,38.22 -6.66,-6.9 10.73,-40.93 28.97,-38.22zm-54.98 58.55l-1.95 1.6c-0.51,0.58 -0.86,1.53 -1.34,2.35 3.86,2.69 1.55,-1.05 1.72,3.58l-7.72 23.12c-2.52,8.76 -5.47,19.14 -6.16,28.56 -0.34,9.46 0.5,1.69 -2.73,4.91 2.85,17.55 15.6,47.3 8.62,64.23 5.36,2.34 6.76,10.86 18.77,24.18 23.25,25.78 53.83,35.06 91.01,37.31 49.09,2.96 88.9,-33.08 93.49,-75.67 7.86,-72.93 -101.98,-134.59 -137.89,-203 -16.87,14.12 -33.03,42.4 -43.31,64l-9.58 22.08c-2.54,3.83 0.75,0.88 -2.94,2.75z"/>
   <path class="fil1" d="M141.54 83.78c3.1,3.52 6.54,15.84 9.22,21.26 13.29,26.9 57.46,81.79 77.48,98.24l22.43 25.49c31.19,37.32 59.71,85 40.52,138.37 -5.09,14.17 -12.18,23.38 -23.16,32.29 -5.15,4.18 -2.88,2.15 -2.56,3.5 12.94,-4.19 30.03,-24.68 37.16,-36.6 4.41,-7.37 8.38,-16.03 11.33,-25.6 4.5,-14.59 3.22,-16.34 0.21,-30.46 4.91,2.05 9.97,36.44 8.78,44.58 -2.84,19.53 -20.65,38.54 -32.73,50.67 -13.9,13.95 -32.32,26.33 -52.93,31.78 -29.43,7.78 -69.57,8.21 -99.71,0.35 -26.34,-6.87 -54,-27.28 -60.54,-49.96 5.21,-0.1 9.14,6.15 17.59,13.12 11.82,9.73 14.41,13.03 36.32,18.96 28.28,7.64 50.25,5.45 79.36,2.88 -6.44,-3.72 -47.27,10.1 -93.36,-14.71 -20.57,-11.07 -37.94,-26.86 -50.93,-44.92 -1.09,-1.52 -1.74,-2.97 -3.08,-4.33 -3.33,-3.36 0.1,-2.13 -5.15,-2.45 -13.43,0.35 -20.04,1.3 -25.53,-10.06 -6.36,7.89 7.95,50.37 19.85,66.36 8.74,11.73 17.1,20.19 29.37,28.37 46.66,31.11 115.02,29.53 165.61,9.97 11.6,-4.49 29.03,-13.49 37.41,-20.32l29.95 -25.13c2.4,-2.35 4.26,-8.31 5.85,-11.37 6.33,-12.24 11.06,-24.59 13.9,-38.78 12.71,-63.56 -11.84,-110.16 -45.99,-159.27 -20.99,-30.2 -111.85,-135.98 -117.94,-165.92 -0.53,2.64 -10.98,23.93 -13.08,27.42 -5.51,9.16 -10.71,17.55 -15.7,26.26z"/>
   <path class="fil2" d="M314.5 405.44c-5.33,13.59 -25.77,33.15 -37.67,41.95 -53.07,39.25 -123.49,44.64 -185.61,18.23 -21.89,-9.3 -48.91,-30.53 -56.39,-48.31 -41.68,-56.14 -18.61,-163.13 22.59,-220.04 6.47,-8.94 33.63,-47.73 40.75,-55.25 2.55,-4.66 2.56,-3.95 5.67,-7.7 11.25,-13.57 26.77,-36.04 37.71,-50.54 4.99,-8.72 10.19,-17.1 15.7,-26.26 2.1,-3.49 12.55,-24.78 13.08,-27.42 6.1,29.94 96.95,135.72 117.94,165.92 34.15,49.12 58.7,95.71 45.99,159.27 -2.83,14.19 -7.57,26.53 -13.9,38.78 -1.59,3.06 -3.44,9.02 -5.85,11.37zm-314.5 -72.44c0,52.82 18.81,95.18 47.26,118.88 54.19,45.14 131.62,53.63 196.52,27.59 25.14,-10.09 35.83,-17.15 52.97,-34.26 21.41,-21.36 23.01,-19.5 37.95,-49.34 10.11,-20.19 16.47,-47.7 16.47,-72.7 0,-58.1 -32.28,-109.89 -65.17,-153.08l-41.25 -52.14c-10.76,-13.05 -45.95,-60.37 -51.66,-73.6 -4.89,-11.32 -12.12,-35.54 -18.37,-44.36 -8.45,2.67 -15.67,26.1 -22.96,39.75 -19.17,35.89 -27.79,45.77 -49.87,76.67 -9.08,12.72 -18.75,23.4 -27.75,36.14 -8.66,12.25 -17.25,24.26 -25.75,36.89 -9.05,13.46 -16.03,23.36 -23.88,40.09 -14.12,30.08 -24.5,65.33 -24.5,103.46z"/>
   <path class="fil3" d="M98.16 142.02c-0.44,4.87 -5.74,11.42 -8.65,16.1 -28.93,46.64 -35.23,48.96 -54.44,102.87 -1.9,5.32 -2.48,4.86 -1.03,9.4 8.92,-17.42 5.09,-15.23 18.51,-33.8 7.44,-10.3 17.36,-17.58 26.65,-24.49l0.37 2.71c3.69,-1.87 0.4,1.08 2.94,-2.75l9.58 -22.08c10.28,-21.59 26.44,-49.88 43.31,-64 35.91,68.41 145.76,130.07 137.89,203 -4.59,42.58 -44.4,78.63 -93.49,75.67 -37.18,-2.25 -67.76,-11.52 -91.01,-37.31 -12.01,-13.32 -13.42,-21.83 -18.77,-24.18 -1.68,7.82 -6.38,9.54 -12.18,13.09 5.24,0.33 1.81,-0.91 5.15,2.45 1.34,1.35 1.98,2.81 3.08,4.33 12.98,18.06 30.36,33.84 50.93,44.92 46.08,24.81 86.92,10.98 93.36,14.71 14.02,-1.6 48.49,-11.27 55.14,-19.72 -0.32,-1.34 -2.6,0.69 2.56,-3.5 10.98,-8.92 18.06,-18.13 23.16,-32.29 19.2,-53.37 -9.32,-101.05 -40.52,-138.37l-22.43 -25.49c-20.02,-16.45 -64.2,-71.34 -77.48,-98.24 -2.67,-5.42 -6.12,-17.73 -9.22,-21.26 -10.94,14.5 -26.46,36.97 -37.71,50.54 -3.1,3.74 -3.12,3.04 -5.67,7.7z"/>
   <path class="fil3" d="M34.83 417.31c7.48,17.77 34.51,39 56.39,48.31 62.12,26.41 132.54,21.01 185.61,-18.23 11.9,-8.8 32.34,-28.36 37.67,-41.95l-29.95 25.13c-8.38,6.83 -25.81,15.84 -37.41,20.32 -50.59,19.57 -118.95,21.14 -165.61,-9.97 -12.27,-8.18 -20.63,-16.64 -29.37,-28.37 -11.9,-15.99 -26.21,-58.47 -19.85,-66.36 -8.4,-18.24 -7.27,-24.25 -5.59,-45.52 -7.99,8.91 -1.47,76.97 1.82,92.57 1.26,5.99 8.07,20.68 6.3,24.07z"/>
   <path class="fil4" d="M265.47 402.93c-6.66,8.44 -41.12,18.12 -55.14,19.72 -29.11,2.57 -51.08,4.76 -79.36,-2.88 -21.92,-5.92 -24.5,-9.23 -36.32,-18.96 -8.45,-6.96 -12.39,-13.21 -17.59,-13.12 6.54,22.68 34.2,43.09 60.54,49.96 30.15,7.86 70.28,7.43 99.71,-0.35 20.61,-5.45 39.04,-17.83 52.93,-31.78 12.07,-12.13 29.88,-31.14 32.73,-50.67 1.18,-8.14 -3.88,-42.53 -8.78,-44.58 3.01,14.12 4.29,15.87 -0.21,30.46 -2.95,9.57 -6.92,18.23 -11.33,25.6 -7.13,11.92 -24.23,32.41 -37.16,36.6z"/>
   <path class="fil4" d="M34.04 270.4c-0.72,4.71 -2.86,9.64 -4.1,14.56 -1.23,4.84 -1.91,11.31 -3.22,15.72 -1.68,21.27 -2.81,27.27 5.59,45.52 5.49,11.36 12.1,10.41 25.53,10.06 5.8,-3.55 10.5,-5.26 12.18,-13.09 6.98,-16.92 -5.78,-46.68 -8.62,-64.23 -0.66,-24.55 1.7,-43.77 14.89,-60.18 0.48,-0.82 0.82,-1.77 1.34,-2.35l1.95 -1.6 -0.37 -2.71c-9.29,6.91 -19.22,14.19 -26.65,24.49 -13.42,18.58 -9.59,16.39 -18.51,33.8z"/>
   <path class="fil0" d="M34.83 417.31c1.77,-3.39 -5.03,-18.08 -6.3,-24.07 -3.29,-15.6 -9.81,-83.66 -1.82,-92.57 1.32,-4.41 1.99,-10.88 3.22,-15.72 1.25,-4.91 3.38,-9.84 4.1,-14.56 -1.45,-4.55 -0.86,-4.08 1.03,-9.4 19.21,-53.91 25.51,-56.23 54.44,-102.87 2.91,-4.68 8.22,-11.23 8.65,-16.1 -7.11,7.52 -34.28,46.31 -40.75,55.25 -41.19,56.92 -64.26,163.9 -22.59,220.04z"/>
   <path class="fil4" d="M134.54 156.25c-18.24,-2.71 -35.62,31.32 -28.97,38.22 6.69,6.93 29.34,0.26 28.97,-38.22z"/>
   <path class="fil4" d="M97.3 250.35c7.25,1.4 16.3,-7.96 17.59,-10.28 3.76,-6.75 5.81,-14.56 1.86,-20.98 -15.49,-3.1 -25.71,14.35 -19.45,31.26z"/>
   <path class="fil3" d="M61.39 278.93c3.23,-3.22 2.4,4.55 2.73,-4.91 0.69,-9.42 3.64,-19.8 6.16,-28.56l7.72 -23.12c-0.17,-4.64 2.14,-0.9 -1.72,-3.58 -13.19,16.41 -15.55,35.63 -14.89,60.18z"/>
  </g>
 </g>
</svg>
